<?xml version="1.0" standalone="no" ?>
<!DOCTYPE svg PUBLIC "-//W3C//DTD SVG 1.1//EN" "http://www.w3.org/Graphics/SVG/1.1/DTD/svg11.dtd">
<svg width="1100px" height="1100px" xmlns="http://www.w3.org/2000/svg" version="1.1" >
	<circle cx="50" cy="800" r="1" fill="rgb(0,0,0)" />
	<circle cx="50" cy="675" r="1" fill="rgb(0,0,0)" />
	<circle cx="50" cy="650" r="1" fill="rgb(0,0,0)" />
	<circle cx="50" cy="625" r="1" fill="rgb(0,0,0)" />
	<circle cx="50" cy="600" r="1" fill="rgb(0,0,0)" />
	<circle cx="75" cy="900" r="1" fill="rgb(0,0,0)" />
	<circle cx="75" cy="875" r="1" fill="rgb(0,0,0)" />
	<circle cx="75" cy="850" r="1" fill="rgb(0,0,0)" />
	<circle cx="75" cy="825" r="1" fill="rgb(0,0,0)" />
	<circle cx="75" cy="800" r="1" fill="rgb(0,0,0)" />
	<circle cx="75" cy="675" r="1" fill="rgb(0,0,0)" />
	<circle cx="75" cy="600" r="1" fill="rgb(0,0,0)" />
	<circle cx="100" cy="900" r="1" fill="rgb(0,0,0)" />
	<circle cx="100" cy="875" r="1" fill="rgb(0,0,0)" />
	<circle cx="100" cy="675" r="1" fill="rgb(0,0,0)" />
	<circle cx="100" cy="575" r="1" fill="rgb(0,0,0)" />
	<circle cx="100" cy="550" r="1" fill="rgb(0,0,0)" />
	<circle cx="100" cy="525" r="1" fill="rgb(0,0,0)" />
	<circle cx="100" cy="500" r="1" fill="rgb(0,0,0)" />
	<circle cx="125" cy="900" r="1" fill="rgb(0,0,0)" />
	<circle cx="125" cy="875" r="1" fill="rgb(0,0,0)" />
	<circle cx="125" cy="675" r="1" fill="rgb(0,0,0)" />
	<circle cx="125" cy="500" r="1" fill="rgb(0,0,0)" />
	<circle cx="125" cy="300" r="1" fill="rgb(0,0,0)" />
	<circle cx="125" cy="275" r="1" fill="rgb(0,0,0)" />
	<circle cx="125" cy="250" r="1" fill="rgb(0,0,0)" />
	<circle cx="125" cy="225" r="1" fill="rgb(0,0,0)" />
	<circle cx="125" cy="200" r="1" fill="rgb(0,0,0)" />
	<circle cx="125" cy="175" r="1" fill="rgb(0,0,0)" />
	<circle cx="125" cy="150" r="1" fill="rgb(0,0,0)" />
	<circle cx="125" cy="125" r="1" fill="rgb(0,0,0)" />
	<circle cx="125" cy="100" r="1" fill="rgb(0,0,0)" />
	<circle cx="125" cy="75" r="1" fill="rgb(0,0,0)" />
	<circle cx="150" cy="900" r="1" fill="rgb(0,0,0)" />
	<circle cx="150" cy="875" r="1" fill="rgb(0,0,0)" />
	<circle cx="150" cy="675" r="1" fill="rgb(0,0,0)" />
	<circle cx="150" cy="600" r="1" fill="rgb(0,0,0)" />
	<circle cx="150" cy="575" r="1" fill="rgb(0,0,0)" />
	<circle cx="150" cy="550" r="1" fill="rgb(0,0,0)" />
	<circle cx="150" cy="525" r="1" fill="rgb(0,0,0)" />
	<circle cx="150" cy="500" r="1" fill="rgb(0,0,0)" />
	<circle cx="150" cy="475" r="1" fill="rgb(0,0,0)" />
	<circle cx="150" cy="450" r="1" fill="rgb(0,0,0)" />
	<circle cx="150" cy="425" r="1" fill="rgb(0,0,0)" />
	<circle cx="150" cy="400" r="1" fill="rgb(0,0,0)" />
	<circle cx="150" cy="375" r="1" fill="rgb(0,0,0)" />
	<circle cx="150" cy="350" r="1" fill="rgb(0,0,0)" />
	<circle cx="150" cy="325" r="1" fill="rgb(0,0,0)" />
	<circle cx="150" cy="100" r="1" fill="rgb(0,0,0)" />
	<circle cx="150" cy="75" r="1" fill="rgb(0,0,0)" />
	<circle cx="175" cy="900" r="1" fill="rgb(0,0,0)" />
	<circle cx="175" cy="875" r="1" fill="rgb(0,0,0)" />
	<circle cx="175" cy="675" r="1" fill="rgb(0,0,0)" />
	<circle cx="175" cy="625" r="1" fill="rgb(0,0,0)" />
	<circle cx="175" cy="425" r="1" fill="rgb(0,0,0)" />
	<circle cx="175" cy="400" r="1" fill="rgb(0,0,0)" />
	<circle cx="175" cy="125" r="1" fill="rgb(0,0,0)" />
	<circle cx="175" cy="50" r="1" fill="rgb(0,0,0)" />
	<circle cx="200" cy="900" r="1" fill="rgb(0,0,0)" />
	<circle cx="200" cy="850" r="1" fill="rgb(0,0,0)" />
	<circle cx="200" cy="825" r="1" fill="rgb(0,0,0)" />
	<circle cx="200" cy="800" r="1" fill="rgb(0,0,0)" />
	<circle cx="200" cy="775" r="1" fill="rgb(0,0,0)" />
	<circle cx="200" cy="675" r="1" fill="rgb(0,0,0)" />
	<circle cx="200" cy="600" r="1" fill="rgb(0,0,0)" />
	<circle cx="200" cy="575" r="1" fill="rgb(0,0,0)" />
	<circle cx="200" cy="550" r="1" fill="rgb(0,0,0)" />
	<circle cx="200" cy="525" r="1" fill="rgb(0,0,0)" />
	<circle cx="200" cy="500" r="1" fill="rgb(0,0,0)" />
	<circle cx="200" cy="475" r="1" fill="rgb(0,0,0)" />
	<circle cx="200" cy="450" r="1" fill="rgb(0,0,0)" />
	<circle cx="200" cy="375" r="1" fill="rgb(0,0,0)" />
	<circle cx="200" cy="350" r="1" fill="rgb(0,0,0)" />
	<circle cx="200" cy="325" r="1" fill="rgb(0,0,0)" />
	<circle cx="200" cy="125" r="1" fill="rgb(0,0,0)" />
	<circle cx="200" cy="50" r="1" fill="rgb(0,0,0)" />
	<circle cx="225" cy="900" r="1" fill="rgb(0,0,0)" />
	<circle cx="225" cy="775" r="1" fill="rgb(0,0,0)" />
	<circle cx="225" cy="675" r="1" fill="rgb(0,0,0)" />
	<circle cx="225" cy="650" r="1" fill="rgb(0,0,0)" />
	<circle cx="225" cy="625" r="1" fill="rgb(0,0,0)" />
	<circle cx="225" cy="450" r="1" fill="rgb(0,0,0)" />
	<circle cx="225" cy="375" r="1" fill="rgb(0,0,0)" />
	<circle cx="225" cy="350" r="1" fill="rgb(0,0,0)" />
	<circle cx="225" cy="325" r="1" fill="rgb(0,0,0)" />
	<circle cx="225" cy="200" r="1" fill="rgb(0,0,0)" />
	<circle cx="225" cy="175" r="1" fill="rgb(0,0,0)" />
	<circle cx="225" cy="150" r="1" fill="rgb(0,0,0)" />
	<circle cx="250" cy="900" r="1" fill="rgb(0,0,0)" />
	<circle cx="250" cy="825" r="1" fill="rgb(0,0,0)" />
	<circle cx="250" cy="800" r="1" fill="rgb(0,0,0)" />
	<circle cx="250" cy="775" r="1" fill="rgb(0,0,0)" />
	<circle cx="250" cy="750" r="1" fill="rgb(0,0,0)" />
	<circle cx="250" cy="725" r="1" fill="rgb(0,0,0)" />
	<circle cx="250" cy="700" r="1" fill="rgb(0,0,0)" />
	<circle cx="250" cy="600" r="1" fill="rgb(0,0,0)" />
	<circle cx="250" cy="450" r="1" fill="rgb(0,0,0)" />
	<circle cx="250" cy="325" r="1" fill="rgb(0,0,0)" />
	<circle cx="250" cy="250" r="1" fill="rgb(0,0,0)" />
	<circle cx="250" cy="225" r="1" fill="rgb(0,0,0)" />
	<circle cx="275" cy="900" r="1" fill="rgb(0,0,0)" />
	<circle cx="275" cy="875" r="1" fill="rgb(0,0,0)" />
	<circle cx="275" cy="850" r="1" fill="rgb(0,0,0)" />
	<circle cx="275" cy="750" r="1" fill="rgb(0,0,0)" />
	<circle cx="275" cy="725" r="1" fill="rgb(0,0,0)" />
	<circle cx="275" cy="700" r="1" fill="rgb(0,0,0)" />
	<circle cx="275" cy="600" r="1" fill="rgb(0,0,0)" />
	<circle cx="275" cy="475" r="1" fill="rgb(0,0,0)" />
	<circle cx="275" cy="425" r="1" fill="rgb(0,0,0)" />
	<circle cx="275" cy="400" r="1" fill="rgb(0,0,0)" />
	<circle cx="275" cy="250" r="1" fill="rgb(0,0,0)" />
	<circle cx="275" cy="200" r="1" fill="rgb(0,0,0)" />
	<circle cx="275" cy="175" r="1" fill="rgb(0,0,0)" />
	<circle cx="300" cy="925" r="1" fill="rgb(0,0,0)" />
	<circle cx="300" cy="575" r="1" fill="rgb(0,0,0)" />
	<circle cx="300" cy="475" r="1" fill="rgb(0,0,0)" />
	<circle cx="300" cy="400" r="1" fill="rgb(0,0,0)" />
	<circle cx="300" cy="250" r="1" fill="rgb(0,0,0)" />
	<circle cx="300" cy="225" r="1" fill="rgb(0,0,0)" />
	<circle cx="300" cy="175" r="1" fill="rgb(0,0,0)" />
	<circle cx="325" cy="925" r="1" fill="rgb(0,0,0)" />
	<circle cx="325" cy="575" r="1" fill="rgb(0,0,0)" />
	<circle cx="325" cy="550" r="1" fill="rgb(0,0,0)" />
	<circle cx="325" cy="525" r="1" fill="rgb(0,0,0)" />
	<circle cx="325" cy="500" r="1" fill="rgb(0,0,0)" />
	<circle cx="325" cy="475" r="1" fill="rgb(0,0,0)" />
	<circle cx="325" cy="400" r="1" fill="rgb(0,0,0)" />
	<circle cx="325" cy="325" r="1" fill="rgb(0,0,0)" />
	<circle cx="325" cy="300" r="1" fill="rgb(0,0,0)" />
	<circle cx="325" cy="275" r="1" fill="rgb(0,0,0)" />
	<circle cx="325" cy="200" r="1" fill="rgb(0,0,0)" />
	<circle cx="325" cy="175" r="1" fill="rgb(0,0,0)" />
	<circle cx="325" cy="100" r="1" fill="rgb(0,0,0)" />
	<circle cx="325" cy="75" r="1" fill="rgb(0,0,0)" />
	<circle cx="325" cy="50" r="1" fill="rgb(0,0,0)" />
	<circle cx="350" cy="925" r="1" fill="rgb(0,0,0)" />
	<circle cx="350" cy="900" r="1" fill="rgb(0,0,0)" />
	<circle cx="350" cy="875" r="1" fill="rgb(0,0,0)" />
	<circle cx="350" cy="825" r="1" fill="rgb(0,0,0)" />
	<circle cx="350" cy="800" r="1" fill="rgb(0,0,0)" />
	<circle cx="350" cy="775" r="1" fill="rgb(0,0,0)" />
	<circle cx="350" cy="750" r="1" fill="rgb(0,0,0)" />
	<circle cx="350" cy="725" r="1" fill="rgb(0,0,0)" />
	<circle cx="350" cy="700" r="1" fill="rgb(0,0,0)" />
	<circle cx="350" cy="675" r="1" fill="rgb(0,0,0)" />
	<circle cx="350" cy="650" r="1" fill="rgb(0,0,0)" />
	<circle cx="350" cy="625" r="1" fill="rgb(0,0,0)" />
	<circle cx="350" cy="600" r="1" fill="rgb(0,0,0)" />
	<circle cx="350" cy="450" r="1" fill="rgb(0,0,0)" />
	<circle cx="350" cy="425" r="1" fill="rgb(0,0,0)" />
	<circle cx="350" cy="375" r="1" fill="rgb(0,0,0)" />
	<circle cx="350" cy="350" r="1" fill="rgb(0,0,0)" />
	<circle cx="350" cy="275" r="1" fill="rgb(0,0,0)" />
	<circle cx="350" cy="200" r="1" fill="rgb(0,0,0)" />
	<circle cx="350" cy="175" r="1" fill="rgb(0,0,0)" />
	<circle cx="350" cy="100" r="1" fill="rgb(0,0,0)" />
	<circle cx="350" cy="75" r="1" fill="rgb(0,0,0)" />
	<circle cx="350" cy="50" r="1" fill="rgb(0,0,0)" />
	<circle cx="375" cy="925" r="1" fill="rgb(0,0,0)" />
	<circle cx="375" cy="875" r="1" fill="rgb(0,0,0)" />
	<circle cx="375" cy="825" r="1" fill="rgb(0,0,0)" />
	<circle cx="375" cy="800" r="1" fill="rgb(0,0,0)" />
	<circle cx="375" cy="775" r="1" fill="rgb(0,0,0)" />
	<circle cx="375" cy="725" r="1" fill="rgb(0,0,0)" />
	<circle cx="375" cy="575" r="1" fill="rgb(0,0,0)" />
	<circle cx="375" cy="550" r="1" fill="rgb(0,0,0)" />
	<circle cx="375" cy="525" r="1" fill="rgb(0,0,0)" />
	<circle cx="375" cy="500" r="1" fill="rgb(0,0,0)" />
	<circle cx="375" cy="475" r="1" fill="rgb(0,0,0)" />
	<circle cx="375" cy="400" r="1" fill="rgb(0,0,0)" />
	<circle cx="375" cy="325" r="1" fill="rgb(0,0,0)" />
	<circle cx="375" cy="275" r="1" fill="rgb(0,0,0)" />
	<circle cx="375" cy="200" r="1" fill="rgb(0,0,0)" />
	<circle cx="375" cy="150" r="1" fill="rgb(0,0,0)" />
	<circle cx="375" cy="125" r="1" fill="rgb(0,0,0)" />
	<circle cx="400" cy="925" r="1" fill="rgb(0,0,0)" />
	<circle cx="400" cy="900" r="1" fill="rgb(0,0,0)" />
	<circle cx="400" cy="875" r="1" fill="rgb(0,0,0)" />
	<circle cx="400" cy="750" r="1" fill="rgb(0,0,0)" />
	<circle cx="400" cy="725" r="1" fill="rgb(0,0,0)" />
	<circle cx="400" cy="550" r="1" fill="rgb(0,0,0)" />
	<circle cx="400" cy="525" r="1" fill="rgb(0,0,0)" />
	<circle cx="400" cy="500" r="1" fill="rgb(0,0,0)" />
	<circle cx="400" cy="475" r="1" fill="rgb(0,0,0)" />
	<circle cx="400" cy="400" r="1" fill="rgb(0,0,0)" />
	<circle cx="400" cy="325" r="1" fill="rgb(0,0,0)" />
	<circle cx="400" cy="275" r="1" fill="rgb(0,0,0)" />
	<circle cx="400" cy="200" r="1" fill="rgb(0,0,0)" />
	<circle cx="400" cy="150" r="1" fill="rgb(0,0,0)" />
	<circle cx="400" cy="125" r="1" fill="rgb(0,0,0)" />
	<circle cx="425" cy="1025" r="1" fill="rgb(0,0,0)" />
	<circle cx="425" cy="1000" r="1" fill="rgb(0,0,0)" />
	<circle cx="425" cy="975" r="1" fill="rgb(0,0,0)" />
	<circle cx="425" cy="950" r="1" fill="rgb(0,0,0)" />
	<circle cx="425" cy="850" r="1" fill="rgb(0,0,0)" />
	<circle cx="425" cy="825" r="1" fill="rgb(0,0,0)" />
	<circle cx="425" cy="800" r="1" fill="rgb(0,0,0)" />
	<circle cx="425" cy="775" r="1" fill="rgb(0,0,0)" />
	<circle cx="425" cy="700" r="1" fill="rgb(0,0,0)" />
	<circle cx="425" cy="675" r="1" fill="rgb(0,0,0)" />
	<circle cx="425" cy="650" r="1" fill="rgb(0,0,0)" />
	<circle cx="425" cy="550" r="1" fill="rgb(0,0,0)" />
	<circle cx="425" cy="450" r="1" fill="rgb(0,0,0)" />
	<circle cx="425" cy="425" r="1" fill="rgb(0,0,0)" />
	<circle cx="425" cy="375" r="1" fill="rgb(0,0,0)" />
	<circle cx="425" cy="350" r="1" fill="rgb(0,0,0)" />
	<circle cx="425" cy="325" r="1" fill="rgb(0,0,0)" />
	<circle cx="425" cy="300" r="1" fill="rgb(0,0,0)" />
	<circle cx="425" cy="275" r="1" fill="rgb(0,0,0)" />
	<circle cx="425" cy="200" r="1" fill="rgb(0,0,0)" />
	<circle cx="425" cy="175" r="1" fill="rgb(0,0,0)" />
	<circle cx="425" cy="100" r="1" fill="rgb(0,0,0)" />
	<circle cx="425" cy="75" r="1" fill="rgb(0,0,0)" />
	<circle cx="425" cy="50" r="1" fill="rgb(0,0,0)" />
	<circle cx="450" cy="1050" r="1" fill="rgb(0,0,0)" />
	<circle cx="450" cy="950" r="1" fill="rgb(0,0,0)" />
	<circle cx="450" cy="925" r="1" fill="rgb(0,0,0)" />
	<circle cx="450" cy="900" r="1" fill="rgb(0,0,0)" />
	<circle cx="450" cy="875" r="1" fill="rgb(0,0,0)" />
	<circle cx="450" cy="775" r="1" fill="rgb(0,0,0)" />
	<circle cx="450" cy="700" r="1" fill="rgb(0,0,0)" />
	<circle cx="450" cy="650" r="1" fill="rgb(0,0,0)" />
	<circle cx="450" cy="250" r="1" fill="rgb(0,0,0)" />
	<circle cx="450" cy="225" r="1" fill="rgb(0,0,0)" />
	<circle cx="450" cy="150" r="1" fill="rgb(0,0,0)" />
	<circle cx="450" cy="125" r="1" fill="rgb(0,0,0)" />
	<circle cx="450" cy="50" r="1" fill="rgb(0,0,0)" />
	<circle cx="475" cy="1050" r="1" fill="rgb(0,0,0)" />
	<circle cx="475" cy="950" r="1" fill="rgb(0,0,0)" />
	<circle cx="475" cy="875" r="1" fill="rgb(0,0,0)" />
	<circle cx="475" cy="800" r="1" fill="rgb(0,0,0)" />
	<circle cx="475" cy="750" r="1" fill="rgb(0,0,0)" />
	<circle cx="475" cy="725" r="1" fill="rgb(0,0,0)" />
	<circle cx="475" cy="650" r="1" fill="rgb(0,0,0)" />
	<circle cx="475" cy="625" r="1" fill="rgb(0,0,0)" />
	<circle cx="475" cy="600" r="1" fill="rgb(0,0,0)" />
	<circle cx="475" cy="575" r="1" fill="rgb(0,0,0)" />
	<circle cx="475" cy="550" r="1" fill="rgb(0,0,0)" />
	<circle cx="475" cy="525" r="1" fill="rgb(0,0,0)" />
	<circle cx="475" cy="500" r="1" fill="rgb(0,0,0)" />
	<circle cx="475" cy="475" r="1" fill="rgb(0,0,0)" />
	<circle cx="475" cy="250" r="1" fill="rgb(0,0,0)" />
	<circle cx="475" cy="225" r="1" fill="rgb(0,0,0)" />
	<circle cx="475" cy="150" r="1" fill="rgb(0,0,0)" />
	<circle cx="475" cy="50" r="1" fill="rgb(0,0,0)" />
	<circle cx="500" cy="1050" r="1" fill="rgb(0,0,0)" />
	<circle cx="500" cy="950" r="1" fill="rgb(0,0,0)" />
	<circle cx="500" cy="925" r="1" fill="rgb(0,0,0)" />
	<circle cx="500" cy="900" r="1" fill="rgb(0,0,0)" />
	<circle cx="500" cy="875" r="1" fill="rgb(0,0,0)" />
	<circle cx="500" cy="800" r="1" fill="rgb(0,0,0)" />
	<circle cx="500" cy="750" r="1" fill="rgb(0,0,0)" />
	<circle cx="500" cy="725" r="1" fill="rgb(0,0,0)" />
	<circle cx="500" cy="700" r="1" fill="rgb(0,0,0)" />
	<circle cx="500" cy="675" r="1" fill="rgb(0,0,0)" />
	<circle cx="500" cy="625" r="1" fill="rgb(0,0,0)" />
	<circle cx="500" cy="600" r="1" fill="rgb(0,0,0)" />
	<circle cx="500" cy="575" r="1" fill="rgb(0,0,0)" />
	<circle cx="500" cy="475" r="1" fill="rgb(0,0,0)" />
	<circle cx="500" cy="275" r="1" fill="rgb(0,0,0)" />
	<circle cx="500" cy="150" r="1" fill="rgb(0,0,0)" />
	<circle cx="500" cy="125" r="1" fill="rgb(0,0,0)" />
	<circle cx="500" cy="100" r="1" fill="rgb(0,0,0)" />
	<circle cx="500" cy="75" r="1" fill="rgb(0,0,0)" />
	<circle cx="500" cy="50" r="1" fill="rgb(0,0,0)" />
	<circle cx="525" cy="1050" r="1" fill="rgb(0,0,0)" />
	<circle cx="525" cy="1025" r="1" fill="rgb(0,0,0)" />
	<circle cx="525" cy="850" r="1" fill="rgb(0,0,0)" />
	<circle cx="525" cy="825" r="1" fill="rgb(0,0,0)" />
	<circle cx="525" cy="775" r="1" fill="rgb(0,0,0)" />
	<circle cx="525" cy="650" r="1" fill="rgb(0,0,0)" />
	<circle cx="525" cy="550" r="1" fill="rgb(0,0,0)" />
	<circle cx="525" cy="475" r="1" fill="rgb(0,0,0)" />
	<circle cx="525" cy="200" r="1" fill="rgb(0,0,0)" />
	<circle cx="525" cy="175" r="1" fill="rgb(0,0,0)" />
	<circle cx="550" cy="1050" r="1" fill="rgb(0,0,0)" />
	<circle cx="550" cy="1000" r="1" fill="rgb(0,0,0)" />
	<circle cx="550" cy="850" r="1" fill="rgb(0,0,0)" />
	<circle cx="550" cy="775" r="1" fill="rgb(0,0,0)" />
	<circle cx="550" cy="650" r="1" fill="rgb(0,0,0)" />
	<circle cx="550" cy="550" r="1" fill="rgb(0,0,0)" />
	<circle cx="550" cy="525" r="1" fill="rgb(0,0,0)" />
	<circle cx="550" cy="500" r="1" fill="rgb(0,0,0)" />
	<circle cx="550" cy="475" r="1" fill="rgb(0,0,0)" />
	<circle cx="550" cy="275" r="1" fill="rgb(0,0,0)" />
	<circle cx="550" cy="250" r="1" fill="rgb(0,0,0)" />
	<circle cx="550" cy="225" r="1" fill="rgb(0,0,0)" />
	<circle cx="550" cy="150" r="1" fill="rgb(0,0,0)" />
	<circle cx="550" cy="125" r="1" fill="rgb(0,0,0)" />
	<circle cx="550" cy="100" r="1" fill="rgb(0,0,0)" />
	<circle cx="550" cy="75" r="1" fill="rgb(0,0,0)" />
	<circle cx="575" cy="1050" r="1" fill="rgb(0,0,0)" />
	<circle cx="575" cy="1000" r="1" fill="rgb(0,0,0)" />
	<circle cx="575" cy="975" r="1" fill="rgb(0,0,0)" />
	<circle cx="575" cy="950" r="1" fill="rgb(0,0,0)" />
	<circle cx="575" cy="925" r="1" fill="rgb(0,0,0)" />
	<circle cx="575" cy="900" r="1" fill="rgb(0,0,0)" />
	<circle cx="575" cy="875" r="1" fill="rgb(0,0,0)" />
	<circle cx="575" cy="750" r="1" fill="rgb(0,0,0)" />
	<circle cx="575" cy="725" r="1" fill="rgb(0,0,0)" />
	<circle cx="575" cy="700" r="1" fill="rgb(0,0,0)" />
	<circle cx="575" cy="675" r="1" fill="rgb(0,0,0)" />
	<circle cx="575" cy="625" r="1" fill="rgb(0,0,0)" />
	<circle cx="575" cy="600" r="1" fill="rgb(0,0,0)" />
	<circle cx="575" cy="575" r="1" fill="rgb(0,0,0)" />
	<circle cx="575" cy="450" r="1" fill="rgb(0,0,0)" />
	<circle cx="575" cy="425" r="1" fill="rgb(0,0,0)" />
	<circle cx="575" cy="150" r="1" fill="rgb(0,0,0)" />
	<circle cx="575" cy="75" r="1" fill="rgb(0,0,0)" />
	<circle cx="600" cy="1050" r="1" fill="rgb(0,0,0)" />
	<circle cx="600" cy="1025" r="1" fill="rgb(0,0,0)" />
	<circle cx="600" cy="875" r="1" fill="rgb(0,0,0)" />
	<circle cx="600" cy="850" r="1" fill="rgb(0,0,0)" />
	<circle cx="600" cy="775" r="1" fill="rgb(0,0,0)" />
	<circle cx="600" cy="700" r="1" fill="rgb(0,0,0)" />
	<circle cx="600" cy="650" r="1" fill="rgb(0,0,0)" />
	<circle cx="600" cy="550" r="1" fill="rgb(0,0,0)" />
	<circle cx="600" cy="525" r="1" fill="rgb(0,0,0)" />
	<circle cx="600" cy="500" r="1" fill="rgb(0,0,0)" />
	<circle cx="600" cy="475" r="1" fill="rgb(0,0,0)" />
	<circle cx="600" cy="400" r="1" fill="rgb(0,0,0)" />
	<circle cx="600" cy="375" r="1" fill="rgb(0,0,0)" />
	<circle cx="600" cy="350" r="1" fill="rgb(0,0,0)" />
	<circle cx="600" cy="325" r="1" fill="rgb(0,0,0)" />
	<circle cx="600" cy="150" r="1" fill="rgb(0,0,0)" />
	<circle cx="600" cy="50" r="1" fill="rgb(0,0,0)" />
	<circle cx="625" cy="1050" r="1" fill="rgb(0,0,0)" />
	<circle cx="625" cy="1025" r="1" fill="rgb(0,0,0)" />
	<circle cx="625" cy="875" r="1" fill="rgb(0,0,0)" />
	<circle cx="625" cy="850" r="1" fill="rgb(0,0,0)" />
	<circle cx="625" cy="775" r="1" fill="rgb(0,0,0)" />
	<circle cx="625" cy="750" r="1" fill="rgb(0,0,0)" />
	<circle cx="625" cy="725" r="1" fill="rgb(0,0,0)" />
	<circle cx="625" cy="675" r="1" fill="rgb(0,0,0)" />
	<circle cx="625" cy="650" r="1" fill="rgb(0,0,0)" />
	<circle cx="625" cy="400" r="1" fill="rgb(0,0,0)" />
	<circle cx="625" cy="375" r="1" fill="rgb(0,0,0)" />
	<circle cx="625" cy="350" r="1" fill="rgb(0,0,0)" />
	<circle cx="625" cy="325" r="1" fill="rgb(0,0,0)" />
	<circle cx="625" cy="150" r="1" fill="rgb(0,0,0)" />
	<circle cx="625" cy="125" r="1" fill="rgb(0,0,0)" />
	<circle cx="625" cy="100" r="1" fill="rgb(0,0,0)" />
	<circle cx="625" cy="75" r="1" fill="rgb(0,0,0)" />
	<circle cx="625" cy="50" r="1" fill="rgb(0,0,0)" />
	<circle cx="650" cy="625" r="1" fill="rgb(0,0,0)" />
	<circle cx="650" cy="600" r="1" fill="rgb(0,0,0)" />
	<circle cx="650" cy="575" r="1" fill="rgb(0,0,0)" />
	<circle cx="650" cy="475" r="1" fill="rgb(0,0,0)" />
	<circle cx="650" cy="450" r="1" fill="rgb(0,0,0)" />
	<circle cx="650" cy="425" r="1" fill="rgb(0,0,0)" />
	<circle cx="650" cy="400" r="1" fill="rgb(0,0,0)" />
	<circle cx="650" cy="275" r="1" fill="rgb(0,0,0)" />
	<circle cx="650" cy="250" r="1" fill="rgb(0,0,0)" />
	<circle cx="650" cy="225" r="1" fill="rgb(0,0,0)" />
	<circle cx="650" cy="200" r="1" fill="rgb(0,0,0)" />
	<circle cx="650" cy="175" r="1" fill="rgb(0,0,0)" />
	<circle cx="675" cy="725" r="1" fill="rgb(0,0,0)" />
	<circle cx="675" cy="675" r="1" fill="rgb(0,0,0)" />
	<circle cx="675" cy="650" r="1" fill="rgb(0,0,0)" />
	<circle cx="675" cy="625" r="1" fill="rgb(0,0,0)" />
	<circle cx="675" cy="600" r="1" fill="rgb(0,0,0)" />
	<circle cx="675" cy="575" r="1" fill="rgb(0,0,0)" />
	<circle cx="675" cy="475" r="1" fill="rgb(0,0,0)" />
	<circle cx="675" cy="400" r="1" fill="rgb(0,0,0)" />
	<circle cx="675" cy="275" r="1" fill="rgb(0,0,0)" />
	<circle cx="675" cy="250" r="1" fill="rgb(0,0,0)" />
	<circle cx="675" cy="225" r="1" fill="rgb(0,0,0)" />
	<circle cx="675" cy="200" r="1" fill="rgb(0,0,0)" />
	<circle cx="675" cy="175" r="1" fill="rgb(0,0,0)" />
	<circle cx="675" cy="150" r="1" fill="rgb(0,0,0)" />
	<circle cx="675" cy="125" r="1" fill="rgb(0,0,0)" />
	<circle cx="675" cy="100" r="1" fill="rgb(0,0,0)" />
	<circle cx="675" cy="75" r="1" fill="rgb(0,0,0)" />
	<circle cx="675" cy="50" r="1" fill="rgb(0,0,0)" />
	<circle cx="700" cy="725" r="1" fill="rgb(0,0,0)" />
	<circle cx="700" cy="675" r="1" fill="rgb(0,0,0)" />
	<circle cx="700" cy="650" r="1" fill="rgb(0,0,0)" />
	<circle cx="700" cy="550" r="1" fill="rgb(0,0,0)" />
	<circle cx="700" cy="475" r="1" fill="rgb(0,0,0)" />
	<circle cx="700" cy="425" r="1" fill="rgb(0,0,0)" />
	<circle cx="700" cy="400" r="1" fill="rgb(0,0,0)" />
	<circle cx="700" cy="75" r="1" fill="rgb(0,0,0)" />
	<circle cx="700" cy="50" r="1" fill="rgb(0,0,0)" />
	<circle cx="725" cy="875" r="1" fill="rgb(0,0,0)" />
	<circle cx="725" cy="850" r="1" fill="rgb(0,0,0)" />
	<circle cx="725" cy="775" r="1" fill="rgb(0,0,0)" />
	<circle cx="725" cy="750" r="1" fill="rgb(0,0,0)" />
	<circle cx="725" cy="700" r="1" fill="rgb(0,0,0)" />
	<circle cx="725" cy="625" r="1" fill="rgb(0,0,0)" />
	<circle cx="725" cy="525" r="1" fill="rgb(0,0,0)" />
	<circle cx="725" cy="500" r="1" fill="rgb(0,0,0)" />
	<circle cx="725" cy="450" r="1" fill="rgb(0,0,0)" />
	<circle cx="750" cy="875" r="1" fill="rgb(0,0,0)" />
	<circle cx="750" cy="850" r="1" fill="rgb(0,0,0)" />
	<circle cx="750" cy="775" r="1" fill="rgb(0,0,0)" />
	<circle cx="750" cy="750" r="1" fill="rgb(0,0,0)" />
	<circle cx="750" cy="700" r="1" fill="rgb(0,0,0)" />
	<circle cx="750" cy="600" r="1" fill="rgb(0,0,0)" />
	<circle cx="750" cy="575" r="1" fill="rgb(0,0,0)" />
	<circle cx="750" cy="525" r="1" fill="rgb(0,0,0)" />
	<circle cx="750" cy="475" r="1" fill="rgb(0,0,0)" />
	<circle cx="750" cy="425" r="1" fill="rgb(0,0,0)" />
	<circle cx="750" cy="400" r="1" fill="rgb(0,0,0)" />
	<circle cx="750" cy="375" r="1" fill="rgb(0,0,0)" />
	<circle cx="750" cy="350" r="1" fill="rgb(0,0,0)" />
	<circle cx="750" cy="225" r="1" fill="rgb(0,0,0)" />
	<circle cx="775" cy="875" r="1" fill="rgb(0,0,0)" />
	<circle cx="775" cy="850" r="1" fill="rgb(0,0,0)" />
	<circle cx="775" cy="775" r="1" fill="rgb(0,0,0)" />
	<circle cx="775" cy="750" r="1" fill="rgb(0,0,0)" />
	<circle cx="775" cy="700" r="1" fill="rgb(0,0,0)" />
	<circle cx="775" cy="600" r="1" fill="rgb(0,0,0)" />
	<circle cx="775" cy="575" r="1" fill="rgb(0,0,0)" />
	<circle cx="775" cy="525" r="1" fill="rgb(0,0,0)" />
	<circle cx="775" cy="500" r="1" fill="rgb(0,0,0)" />
	<circle cx="775" cy="475" r="1" fill="rgb(0,0,0)" />
	<circle cx="775" cy="425" r="1" fill="rgb(0,0,0)" />
	<circle cx="775" cy="400" r="1" fill="rgb(0,0,0)" />
	<circle cx="775" cy="375" r="1" fill="rgb(0,0,0)" />
	<circle cx="775" cy="350" r="1" fill="rgb(0,0,0)" />
	<circle cx="775" cy="275" r="1" fill="rgb(0,0,0)" />
	<circle cx="775" cy="250" r="1" fill="rgb(0,0,0)" />
	<circle cx="775" cy="200" r="1" fill="rgb(0,0,0)" />
	<circle cx="800" cy="875" r="1" fill="rgb(0,0,0)" />
	<circle cx="800" cy="850" r="1" fill="rgb(0,0,0)" />
	<circle cx="800" cy="775" r="1" fill="rgb(0,0,0)" />
	<circle cx="800" cy="750" r="1" fill="rgb(0,0,0)" />
	<circle cx="800" cy="700" r="1" fill="rgb(0,0,0)" />
	<circle cx="800" cy="600" r="1" fill="rgb(0,0,0)" />
	<circle cx="800" cy="575" r="1" fill="rgb(0,0,0)" />
	<circle cx="800" cy="525" r="1" fill="rgb(0,0,0)" />
	<circle cx="800" cy="425" r="1" fill="rgb(0,0,0)" />
	<circle cx="800" cy="325" r="1" fill="rgb(0,0,0)" />
	<circle cx="800" cy="300" r="1" fill="rgb(0,0,0)" />
	<circle cx="800" cy="225" r="1" fill="rgb(0,0,0)" />
	<circle cx="825" cy="875" r="1" fill="rgb(0,0,0)" />
	<circle cx="825" cy="850" r="1" fill="rgb(0,0,0)" />
	<circle cx="825" cy="775" r="1" fill="rgb(0,0,0)" />
	<circle cx="825" cy="750" r="1" fill="rgb(0,0,0)" />
	<circle cx="825" cy="700" r="1" fill="rgb(0,0,0)" />
	<circle cx="825" cy="600" r="1" fill="rgb(0,0,0)" />
	<circle cx="825" cy="575" r="1" fill="rgb(0,0,0)" />
	<circle cx="825" cy="525" r="1" fill="rgb(0,0,0)" />
	<circle cx="825" cy="450" r="1" fill="rgb(0,0,0)" />
	<circle cx="825" cy="400" r="1" fill="rgb(0,0,0)" />
	<circle cx="825" cy="375" r="1" fill="rgb(0,0,0)" />
	<circle cx="825" cy="325" r="1" fill="rgb(0,0,0)" />
	<circle cx="825" cy="275" r="1" fill="rgb(0,0,0)" />
	<circle cx="825" cy="250" r="1" fill="rgb(0,0,0)" />
	<circle cx="825" cy="225" r="1" fill="rgb(0,0,0)" />
	<circle cx="825" cy="175" r="1" fill="rgb(0,0,0)" />
	<circle cx="825" cy="150" r="1" fill="rgb(0,0,0)" />
	<circle cx="825" cy="125" r="1" fill="rgb(0,0,0)" />
	<circle cx="825" cy="100" r="1" fill="rgb(0,0,0)" />
	<circle cx="825" cy="75" r="1" fill="rgb(0,0,0)" />
	<circle cx="825" cy="50" r="1" fill="rgb(0,0,0)" />
	<circle cx="850" cy="600" r="1" fill="rgb(0,0,0)" />
	<circle cx="850" cy="575" r="1" fill="rgb(0,0,0)" />
	<circle cx="850" cy="525" r="1" fill="rgb(0,0,0)" />
	<circle cx="850" cy="450" r="1" fill="rgb(0,0,0)" />
	<circle cx="850" cy="425" r="1" fill="rgb(0,0,0)" />
	<circle cx="850" cy="400" r="1" fill="rgb(0,0,0)" />
	<circle cx="850" cy="375" r="1" fill="rgb(0,0,0)" />
	<circle cx="850" cy="325" r="1" fill="rgb(0,0,0)" />
	<circle cx="850" cy="275" r="1" fill="rgb(0,0,0)" />
	<circle cx="850" cy="250" r="1" fill="rgb(0,0,0)" />
	<circle cx="850" cy="225" r="1" fill="rgb(0,0,0)" />
	<circle cx="850" cy="175" r="1" fill="rgb(0,0,0)" />
	<circle cx="850" cy="125" r="1" fill="rgb(0,0,0)" />
	<circle cx="850" cy="100" r="1" fill="rgb(0,0,0)" />
	<circle cx="875" cy="600" r="1" fill="rgb(0,0,0)" />
	<circle cx="875" cy="575" r="1" fill="rgb(0,0,0)" />
	<circle cx="875" cy="525" r="1" fill="rgb(0,0,0)" />
	<circle cx="875" cy="450" r="1" fill="rgb(0,0,0)" />
	<circle cx="875" cy="325" r="1" fill="rgb(0,0,0)" />
	<circle cx="875" cy="300" r="1" fill="rgb(0,0,0)" />
	<circle cx="875" cy="200" r="1" fill="rgb(0,0,0)" />
	<circle cx="875" cy="150" r="1" fill="rgb(0,0,0)" />
	<circle cx="875" cy="75" r="1" fill="rgb(0,0,0)" />
	<circle cx="875" cy="50" r="1" fill="rgb(0,0,0)" />
	<circle cx="900" cy="600" r="1" fill="rgb(0,0,0)" />
	<circle cx="900" cy="575" r="1" fill="rgb(0,0,0)" />
	<circle cx="900" cy="525" r="1" fill="rgb(0,0,0)" />
	<circle cx="900" cy="450" r="1" fill="rgb(0,0,0)" />
	<circle cx="900" cy="325" r="1" fill="rgb(0,0,0)" />
	<circle cx="900" cy="300" r="1" fill="rgb(0,0,0)" />
	<circle cx="900" cy="200" r="1" fill="rgb(0,0,0)" />
	<circle cx="900" cy="150" r="1" fill="rgb(0,0,0)" />
	<circle cx="925" cy="1050" r="1" fill="rgb(0,0,0)" />
	<circle cx="925" cy="1025" r="1" fill="rgb(0,0,0)" />
	<circle cx="925" cy="1000" r="1" fill="rgb(0,0,0)" />
	<circle cx="925" cy="975" r="1" fill="rgb(0,0,0)" />
	<circle cx="925" cy="875" r="1" fill="rgb(0,0,0)" />
	<circle cx="925" cy="850" r="1" fill="rgb(0,0,0)" />
	<circle cx="925" cy="775" r="1" fill="rgb(0,0,0)" />
	<circle cx="925" cy="750" r="1" fill="rgb(0,0,0)" />
	<circle cx="925" cy="600" r="1" fill="rgb(0,0,0)" />
	<circle cx="925" cy="575" r="1" fill="rgb(0,0,0)" />
	<circle cx="925" cy="525" r="1" fill="rgb(0,0,0)" />
	<circle cx="925" cy="475" r="1" fill="rgb(0,0,0)" />
	<circle cx="925" cy="425" r="1" fill="rgb(0,0,0)" />
	<circle cx="925" cy="400" r="1" fill="rgb(0,0,0)" />
	<circle cx="925" cy="375" r="1" fill="rgb(0,0,0)" />
	<circle cx="925" cy="350" r="1" fill="rgb(0,0,0)" />
	<circle cx="925" cy="275" r="1" fill="rgb(0,0,0)" />
	<circle cx="925" cy="250" r="1" fill="rgb(0,0,0)" />
	<circle cx="925" cy="225" r="1" fill="rgb(0,0,0)" />
	<circle cx="925" cy="175" r="1" fill="rgb(0,0,0)" />
	<circle cx="925" cy="125" r="1" fill="rgb(0,0,0)" />
	<circle cx="925" cy="100" r="1" fill="rgb(0,0,0)" />
	<circle cx="950" cy="1050" r="1" fill="rgb(0,0,0)" />
	<circle cx="950" cy="975" r="1" fill="rgb(0,0,0)" />
	<circle cx="950" cy="875" r="1" fill="rgb(0,0,0)" />
	<circle cx="950" cy="850" r="1" fill="rgb(0,0,0)" />
	<circle cx="950" cy="775" r="1" fill="rgb(0,0,0)" />
	<circle cx="950" cy="750" r="1" fill="rgb(0,0,0)" />
	<circle cx="950" cy="700" r="1" fill="rgb(0,0,0)" />
	<circle cx="950" cy="675" r="1" fill="rgb(0,0,0)" />
	<circle cx="950" cy="650" r="1" fill="rgb(0,0,0)" />
	<circle cx="950" cy="625" r="1" fill="rgb(0,0,0)" />
	<circle cx="950" cy="575" r="1" fill="rgb(0,0,0)" />
	<circle cx="950" cy="525" r="1" fill="rgb(0,0,0)" />
	<circle cx="950" cy="475" r="1" fill="rgb(0,0,0)" />
	<circle cx="950" cy="425" r="1" fill="rgb(0,0,0)" />
	<circle cx="950" cy="325" r="1" fill="rgb(0,0,0)" />
	<circle cx="950" cy="300" r="1" fill="rgb(0,0,0)" />
	<circle cx="950" cy="250" r="1" fill="rgb(0,0,0)" />
	<circle cx="950" cy="200" r="1" fill="rgb(0,0,0)" />
	<circle cx="950" cy="150" r="1" fill="rgb(0,0,0)" />
	<circle cx="975" cy="1050" r="1" fill="rgb(0,0,0)" />
	<circle cx="975" cy="1025" r="1" fill="rgb(0,0,0)" />
	<circle cx="975" cy="1000" r="1" fill="rgb(0,0,0)" />
	<circle cx="975" cy="975" r="1" fill="rgb(0,0,0)" />
	<circle cx="975" cy="875" r="1" fill="rgb(0,0,0)" />
	<circle cx="975" cy="850" r="1" fill="rgb(0,0,0)" />
	<circle cx="975" cy="775" r="1" fill="rgb(0,0,0)" />
	<circle cx="975" cy="750" r="1" fill="rgb(0,0,0)" />
	<circle cx="975" cy="700" r="1" fill="rgb(0,0,0)" />
	<circle cx="975" cy="625" r="1" fill="rgb(0,0,0)" />
	<circle cx="975" cy="575" r="1" fill="rgb(0,0,0)" />
	<circle cx="975" cy="525" r="1" fill="rgb(0,0,0)" />
	<circle cx="975" cy="475" r="1" fill="rgb(0,0,0)" />
	<circle cx="975" cy="450" r="1" fill="rgb(0,0,0)" />
	<circle cx="975" cy="250" r="1" fill="rgb(0,0,0)" />
	<circle cx="975" cy="200" r="1" fill="rgb(0,0,0)" />
	<circle cx="975" cy="150" r="1" fill="rgb(0,0,0)" />
	<circle cx="1000" cy="725" r="1" fill="rgb(0,0,0)" />
	<circle cx="1000" cy="675" r="1" fill="rgb(0,0,0)" />
	<circle cx="1000" cy="625" r="1" fill="rgb(0,0,0)" />
	<circle cx="1000" cy="575" r="1" fill="rgb(0,0,0)" />
	<circle cx="1000" cy="525" r="1" fill="rgb(0,0,0)" />
	<circle cx="1000" cy="475" r="1" fill="rgb(0,0,0)" />
	<circle cx="1000" cy="425" r="1" fill="rgb(0,0,0)" />
	<circle cx="1000" cy="400" r="1" fill="rgb(0,0,0)" />
	<circle cx="1000" cy="375" r="1" fill="rgb(0,0,0)" />
	<circle cx="1000" cy="350" r="1" fill="rgb(0,0,0)" />
	<circle cx="1000" cy="325" r="1" fill="rgb(0,0,0)" />
	<circle cx="1000" cy="300" r="1" fill="rgb(0,0,0)" />
	<circle cx="1000" cy="275" r="1" fill="rgb(0,0,0)" />
	<circle cx="1000" cy="250" r="1" fill="rgb(0,0,0)" />
	<circle cx="1000" cy="200" r="1" fill="rgb(0,0,0)" />
	<circle cx="1000" cy="150" r="1" fill="rgb(0,0,0)" />
	<circle cx="1025" cy="725" r="1" fill="rgb(0,0,0)" />
	<circle cx="1025" cy="675" r="1" fill="rgb(0,0,0)" />
	<circle cx="1025" cy="600" r="1" fill="rgb(0,0,0)" />
	<circle cx="1025" cy="550" r="1" fill="rgb(0,0,0)" />
	<circle cx="1025" cy="525" r="1" fill="rgb(0,0,0)" />
	<circle cx="1025" cy="475" r="1" fill="rgb(0,0,0)" />
	<circle cx="1025" cy="450" r="1" fill="rgb(0,0,0)" />
	<circle cx="1025" cy="200" r="1" fill="rgb(0,0,0)" />
	<circle cx="1025" cy="150" r="1" fill="rgb(0,0,0)" />
	<circle cx="1050" cy="725" r="1" fill="rgb(0,0,0)" />
	<circle cx="1050" cy="675" r="1" fill="rgb(0,0,0)" />
	<circle cx="1050" cy="650" r="1" fill="rgb(0,0,0)" />
	<circle cx="1050" cy="625" r="1" fill="rgb(0,0,0)" />
	<circle cx="1050" cy="600" r="1" fill="rgb(0,0,0)" />
	<circle cx="1050" cy="550" r="1" fill="rgb(0,0,0)" />
	<circle cx="1050" cy="525" r="1" fill="rgb(0,0,0)" />
	<circle cx="1050" cy="500" r="1" fill="rgb(0,0,0)" />
	<circle cx="1050" cy="475" r="1" fill="rgb(0,0,0)" />
	<circle cx="1050" cy="450" r="1" fill="rgb(0,0,0)" />
	<circle cx="1050" cy="175" r="1" fill="rgb(0,0,0)" />
	<circle cx="1050" cy="125" r="1" fill="rgb(0,0,0)" />
	<circle cx="1050" cy="100" r="1" fill="rgb(0,0,0)" />
</svg>
