<?xml version="1.0" standalone="no" ?>
<!DOCTYPE svg PUBLIC "-//W3C//DTD SVG 1.1//EN" "http://www.w3.org/Graphics/SVG/1.1/DTD/svg11.dtd">
<svg width="1100px" height="1100px" xmlns="http://www.w3.org/2000/svg" version="1.1" >
	<circle cx="50" cy="1050" r="1" fill="rgb(0,0,0)" />
	<circle cx="50" cy="1033.33" r="1" fill="rgb(0,0,0)" />
	<circle cx="50" cy="1016.67" r="1" fill="rgb(0,0,0)" />
	<circle cx="50" cy="1000" r="1" fill="rgb(0,0,0)" />
	<circle cx="50" cy="983.333" r="1" fill="rgb(0,0,0)" />
	<circle cx="50" cy="966.667" r="1" fill="rgb(0,0,0)" />
	<circle cx="50" cy="950" r="1" fill="rgb(0,0,0)" />
	<circle cx="50" cy="600" r="1" fill="rgb(0,0,0)" />
	<circle cx="50" cy="583.333" r="1" fill="rgb(0,0,0)" />
	<circle cx="50" cy="566.667" r="1" fill="rgb(0,0,0)" />
	<circle cx="50" cy="550" r="1" fill="rgb(0,0,0)" />
	<circle cx="50" cy="533.333" r="1" fill="rgb(0,0,0)" />
	<circle cx="50" cy="516.667" r="1" fill="rgb(0,0,0)" />
	<circle cx="50" cy="500" r="1" fill="rgb(0,0,0)" />
	<circle cx="50" cy="483.333" r="1" fill="rgb(0,0,0)" />
	<circle cx="50" cy="466.667" r="1" fill="rgb(0,0,0)" />
	<circle cx="50" cy="450" r="1" fill="rgb(0,0,0)" />
	<circle cx="50" cy="433.333" r="1" fill="rgb(0,0,0)" />
	<circle cx="50" cy="416.667" r="1" fill="rgb(0,0,0)" />
	<circle cx="50" cy="400" r="1" fill="rgb(0,0,0)" />
	<circle cx="50" cy="383.333" r="1" fill="rgb(0,0,0)" />
	<circle cx="50" cy="366.667" r="1" fill="rgb(0,0,0)" />
	<circle cx="50" cy="350" r="1" fill="rgb(0,0,0)" />
	<circle cx="50" cy="216.667" r="1" fill="rgb(0,0,0)" />
	<circle cx="50" cy="200" r="1" fill="rgb(0,0,0)" />
	<circle cx="50" cy="183.333" r="1" fill="rgb(0,0,0)" />
	<circle cx="50" cy="166.667" r="1" fill="rgb(0,0,0)" />
	<circle cx="50" cy="150" r="1" fill="rgb(0,0,0)" />
	<circle cx="50" cy="133.333" r="1" fill="rgb(0,0,0)" />
	<circle cx="50" cy="116.667" r="1" fill="rgb(0,0,0)" />
	<circle cx="50" cy="100" r="1" fill="rgb(0,0,0)" />
	<circle cx="50" cy="83.3333" r="1" fill="rgb(0,0,0)" />
	<circle cx="50" cy="66.6667" r="1" fill="rgb(0,0,0)" />
	<circle cx="50" cy="50" r="1" fill="rgb(0,0,0)" />
	<circle cx="66.6667" cy="1050" r="1" fill="rgb(0,0,0)" />
	<circle cx="66.6667" cy="1033.33" r="1" fill="rgb(0,0,0)" />
	<circle cx="66.6667" cy="600" r="1" fill="rgb(0,0,0)" />
	<circle cx="66.6667" cy="583.333" r="1" fill="rgb(0,0,0)" />
	<circle cx="66.6667" cy="566.667" r="1" fill="rgb(0,0,0)" />
	<circle cx="66.6667" cy="550" r="1" fill="rgb(0,0,0)" />
	<circle cx="66.6667" cy="533.333" r="1" fill="rgb(0,0,0)" />
	<circle cx="66.6667" cy="516.667" r="1" fill="rgb(0,0,0)" />
	<circle cx="66.6667" cy="500" r="1" fill="rgb(0,0,0)" />
	<circle cx="66.6667" cy="483.333" r="1" fill="rgb(0,0,0)" />
	<circle cx="66.6667" cy="466.667" r="1" fill="rgb(0,0,0)" />
	<circle cx="66.6667" cy="350" r="1" fill="rgb(0,0,0)" />
	<circle cx="66.6667" cy="216.667" r="1" fill="rgb(0,0,0)" />
	<circle cx="66.6667" cy="50" r="1" fill="rgb(0,0,0)" />
	<circle cx="83.3333" cy="1050" r="1" fill="rgb(0,0,0)" />
	<circle cx="83.3333" cy="1033.33" r="1" fill="rgb(0,0,0)" />
	<circle cx="83.3333" cy="450" r="1" fill="rgb(0,0,0)" />
	<circle cx="83.3333" cy="433.333" r="1" fill="rgb(0,0,0)" />
	<circle cx="83.3333" cy="416.667" r="1" fill="rgb(0,0,0)" />
	<circle cx="83.3333" cy="350" r="1" fill="rgb(0,0,0)" />
	<circle cx="83.3333" cy="283.333" r="1" fill="rgb(0,0,0)" />
	<circle cx="83.3333" cy="216.667" r="1" fill="rgb(0,0,0)" />
	<circle cx="83.3333" cy="50" r="1" fill="rgb(0,0,0)" />
	<circle cx="100" cy="1050" r="1" fill="rgb(0,0,0)" />
	<circle cx="100" cy="1033.33" r="1" fill="rgb(0,0,0)" />
	<circle cx="100" cy="583.333" r="1" fill="rgb(0,0,0)" />
	<circle cx="100" cy="400" r="1" fill="rgb(0,0,0)" />
	<circle cx="100" cy="350" r="1" fill="rgb(0,0,0)" />
	<circle cx="100" cy="283.333" r="1" fill="rgb(0,0,0)" />
	<circle cx="100" cy="216.667" r="1" fill="rgb(0,0,0)" />
	<circle cx="100" cy="50" r="1" fill="rgb(0,0,0)" />
	<circle cx="116.667" cy="1050" r="1" fill="rgb(0,0,0)" />
	<circle cx="116.667" cy="1016.67" r="1" fill="rgb(0,0,0)" />
	<circle cx="116.667" cy="1000" r="1" fill="rgb(0,0,0)" />
	<circle cx="116.667" cy="983.333" r="1" fill="rgb(0,0,0)" />
	<circle cx="116.667" cy="966.667" r="1" fill="rgb(0,0,0)" />
	<circle cx="116.667" cy="950" r="1" fill="rgb(0,0,0)" />
	<circle cx="116.667" cy="933.333" r="1" fill="rgb(0,0,0)" />
	<circle cx="116.667" cy="916.667" r="1" fill="rgb(0,0,0)" />
	<circle cx="116.667" cy="583.333" r="1" fill="rgb(0,0,0)" />
	<circle cx="116.667" cy="400" r="1" fill="rgb(0,0,0)" />
	<circle cx="116.667" cy="350" r="1" fill="rgb(0,0,0)" />
	<circle cx="116.667" cy="283.333" r="1" fill="rgb(0,0,0)" />
	<circle cx="116.667" cy="216.667" r="1" fill="rgb(0,0,0)" />
	<circle cx="116.667" cy="50" r="1" fill="rgb(0,0,0)" />
	<circle cx="133.333" cy="1050" r="1" fill="rgb(0,0,0)" />
	<circle cx="133.333" cy="1000" r="1" fill="rgb(0,0,0)" />
	<circle cx="133.333" cy="983.333" r="1" fill="rgb(0,0,0)" />
	<circle cx="133.333" cy="966.667" r="1" fill="rgb(0,0,0)" />
	<circle cx="133.333" cy="950" r="1" fill="rgb(0,0,0)" />
	<circle cx="133.333" cy="583.333" r="1" fill="rgb(0,0,0)" />
	<circle cx="133.333" cy="400" r="1" fill="rgb(0,0,0)" />
	<circle cx="133.333" cy="350" r="1" fill="rgb(0,0,0)" />
	<circle cx="133.333" cy="283.333" r="1" fill="rgb(0,0,0)" />
	<circle cx="133.333" cy="233.333" r="1" fill="rgb(0,0,0)" />
	<circle cx="133.333" cy="50" r="1" fill="rgb(0,0,0)" />
	<circle cx="150" cy="1050" r="1" fill="rgb(0,0,0)" />
	<circle cx="150" cy="1016.67" r="1" fill="rgb(0,0,0)" />
	<circle cx="150" cy="566.667" r="1" fill="rgb(0,0,0)" />
	<circle cx="150" cy="550" r="1" fill="rgb(0,0,0)" />
	<circle cx="150" cy="533.333" r="1" fill="rgb(0,0,0)" />
	<circle cx="150" cy="516.667" r="1" fill="rgb(0,0,0)" />
	<circle cx="150" cy="400" r="1" fill="rgb(0,0,0)" />
	<circle cx="150" cy="383.333" r="1" fill="rgb(0,0,0)" />
	<circle cx="150" cy="366.667" r="1" fill="rgb(0,0,0)" />
	<circle cx="150" cy="350" r="1" fill="rgb(0,0,0)" />
	<circle cx="150" cy="283.333" r="1" fill="rgb(0,0,0)" />
	<circle cx="150" cy="233.333" r="1" fill="rgb(0,0,0)" />
	<circle cx="150" cy="50" r="1" fill="rgb(0,0,0)" />
	<circle cx="166.667" cy="1050" r="1" fill="rgb(0,0,0)" />
	<circle cx="166.667" cy="1016.67" r="1" fill="rgb(0,0,0)" />
	<circle cx="166.667" cy="566.667" r="1" fill="rgb(0,0,0)" />
	<circle cx="166.667" cy="516.667" r="1" fill="rgb(0,0,0)" />
	<circle cx="166.667" cy="500" r="1" fill="rgb(0,0,0)" />
	<circle cx="166.667" cy="483.333" r="1" fill="rgb(0,0,0)" />
	<circle cx="166.667" cy="466.667" r="1" fill="rgb(0,0,0)" />
	<circle cx="166.667" cy="416.667" r="1" fill="rgb(0,0,0)" />
	<circle cx="166.667" cy="400" r="1" fill="rgb(0,0,0)" />
	<circle cx="166.667" cy="283.333" r="1" fill="rgb(0,0,0)" />
	<circle cx="166.667" cy="233.333" r="1" fill="rgb(0,0,0)" />
	<circle cx="166.667" cy="50" r="1" fill="rgb(0,0,0)" />
	<circle cx="183.333" cy="1050" r="1" fill="rgb(0,0,0)" />
	<circle cx="183.333" cy="1016.67" r="1" fill="rgb(0,0,0)" />
	<circle cx="183.333" cy="516.667" r="1" fill="rgb(0,0,0)" />
	<circle cx="183.333" cy="500" r="1" fill="rgb(0,0,0)" />
	<circle cx="183.333" cy="483.333" r="1" fill="rgb(0,0,0)" />
	<circle cx="183.333" cy="466.667" r="1" fill="rgb(0,0,0)" />
	<circle cx="183.333" cy="416.667" r="1" fill="rgb(0,0,0)" />
	<circle cx="183.333" cy="400" r="1" fill="rgb(0,0,0)" />
	<circle cx="183.333" cy="283.333" r="1" fill="rgb(0,0,0)" />
	<circle cx="183.333" cy="233.333" r="1" fill="rgb(0,0,0)" />
	<circle cx="183.333" cy="50" r="1" fill="rgb(0,0,0)" />
	<circle cx="200" cy="1050" r="1" fill="rgb(0,0,0)" />
	<circle cx="200" cy="1033.33" r="1" fill="rgb(0,0,0)" />
	<circle cx="200" cy="466.667" r="1" fill="rgb(0,0,0)" />
	<circle cx="200" cy="416.667" r="1" fill="rgb(0,0,0)" />
	<circle cx="200" cy="400" r="1" fill="rgb(0,0,0)" />
	<circle cx="200" cy="283.333" r="1" fill="rgb(0,0,0)" />
	<circle cx="200" cy="233.333" r="1" fill="rgb(0,0,0)" />
	<circle cx="200" cy="50" r="1" fill="rgb(0,0,0)" />
	<circle cx="216.667" cy="1050" r="1" fill="rgb(0,0,0)" />
	<circle cx="216.667" cy="1033.33" r="1" fill="rgb(0,0,0)" />
	<circle cx="216.667" cy="416.667" r="1" fill="rgb(0,0,0)" />
	<circle cx="216.667" cy="400" r="1" fill="rgb(0,0,0)" />
	<circle cx="216.667" cy="283.333" r="1" fill="rgb(0,0,0)" />
	<circle cx="216.667" cy="233.333" r="1" fill="rgb(0,0,0)" />
	<circle cx="216.667" cy="50" r="1" fill="rgb(0,0,0)" />
	<circle cx="233.333" cy="1050" r="1" fill="rgb(0,0,0)" />
	<circle cx="233.333" cy="1033.33" r="1" fill="rgb(0,0,0)" />
	<circle cx="233.333" cy="483.333" r="1" fill="rgb(0,0,0)" />
	<circle cx="233.333" cy="466.667" r="1" fill="rgb(0,0,0)" />
	<circle cx="233.333" cy="416.667" r="1" fill="rgb(0,0,0)" />
	<circle cx="233.333" cy="400" r="1" fill="rgb(0,0,0)" />
	<circle cx="233.333" cy="283.333" r="1" fill="rgb(0,0,0)" />
	<circle cx="233.333" cy="233.333" r="1" fill="rgb(0,0,0)" />
	<circle cx="233.333" cy="50" r="1" fill="rgb(0,0,0)" />
	<circle cx="250" cy="1050" r="1" fill="rgb(0,0,0)" />
	<circle cx="250" cy="1033.33" r="1" fill="rgb(0,0,0)" />
	<circle cx="250" cy="483.333" r="1" fill="rgb(0,0,0)" />
	<circle cx="250" cy="466.667" r="1" fill="rgb(0,0,0)" />
	<circle cx="250" cy="416.667" r="1" fill="rgb(0,0,0)" />
	<circle cx="250" cy="400" r="1" fill="rgb(0,0,0)" />
	<circle cx="250" cy="216.667" r="1" fill="rgb(0,0,0)" />
	<circle cx="250" cy="50" r="1" fill="rgb(0,0,0)" />
	<circle cx="266.667" cy="1050" r="1" fill="rgb(0,0,0)" />
	<circle cx="266.667" cy="1033.33" r="1" fill="rgb(0,0,0)" />
	<circle cx="266.667" cy="483.333" r="1" fill="rgb(0,0,0)" />
	<circle cx="266.667" cy="466.667" r="1" fill="rgb(0,0,0)" />
	<circle cx="266.667" cy="216.667" r="1" fill="rgb(0,0,0)" />
	<circle cx="266.667" cy="50" r="1" fill="rgb(0,0,0)" />
	<circle cx="283.333" cy="1050" r="1" fill="rgb(0,0,0)" />
	<circle cx="283.333" cy="1033.33" r="1" fill="rgb(0,0,0)" />
	<circle cx="283.333" cy="483.333" r="1" fill="rgb(0,0,0)" />
	<circle cx="283.333" cy="466.667" r="1" fill="rgb(0,0,0)" />
	<circle cx="283.333" cy="216.667" r="1" fill="rgb(0,0,0)" />
	<circle cx="283.333" cy="50" r="1" fill="rgb(0,0,0)" />
	<circle cx="300" cy="1050" r="1" fill="rgb(0,0,0)" />
	<circle cx="300" cy="483.333" r="1" fill="rgb(0,0,0)" />
	<circle cx="300" cy="466.667" r="1" fill="rgb(0,0,0)" />
	<circle cx="300" cy="366.667" r="1" fill="rgb(0,0,0)" />
	<circle cx="300" cy="216.667" r="1" fill="rgb(0,0,0)" />
	<circle cx="300" cy="50" r="1" fill="rgb(0,0,0)" />
	<circle cx="316.667" cy="933.333" r="1" fill="rgb(0,0,0)" />
	<circle cx="316.667" cy="916.667" r="1" fill="rgb(0,0,0)" />
	<circle cx="316.667" cy="900" r="1" fill="rgb(0,0,0)" />
	<circle cx="316.667" cy="883.333" r="1" fill="rgb(0,0,0)" />
	<circle cx="316.667" cy="866.667" r="1" fill="rgb(0,0,0)" />
	<circle cx="316.667" cy="850" r="1" fill="rgb(0,0,0)" />
	<circle cx="316.667" cy="833.333" r="1" fill="rgb(0,0,0)" />
	<circle cx="316.667" cy="816.667" r="1" fill="rgb(0,0,0)" />
	<circle cx="316.667" cy="800" r="1" fill="rgb(0,0,0)" />
	<circle cx="316.667" cy="483.333" r="1" fill="rgb(0,0,0)" />
	<circle cx="316.667" cy="466.667" r="1" fill="rgb(0,0,0)" />
	<circle cx="316.667" cy="366.667" r="1" fill="rgb(0,0,0)" />
	<circle cx="316.667" cy="216.667" r="1" fill="rgb(0,0,0)" />
	<circle cx="316.667" cy="50" r="1" fill="rgb(0,0,0)" />
	<circle cx="333.333" cy="933.333" r="1" fill="rgb(0,0,0)" />
	<circle cx="333.333" cy="800" r="1" fill="rgb(0,0,0)" />
	<circle cx="333.333" cy="483.333" r="1" fill="rgb(0,0,0)" />
	<circle cx="333.333" cy="466.667" r="1" fill="rgb(0,0,0)" />
	<circle cx="333.333" cy="366.667" r="1" fill="rgb(0,0,0)" />
	<circle cx="333.333" cy="216.667" r="1" fill="rgb(0,0,0)" />
	<circle cx="333.333" cy="50" r="1" fill="rgb(0,0,0)" />
	<circle cx="350" cy="933.333" r="1" fill="rgb(0,0,0)" />
	<circle cx="350" cy="800" r="1" fill="rgb(0,0,0)" />
	<circle cx="350" cy="483.333" r="1" fill="rgb(0,0,0)" />
	<circle cx="350" cy="466.667" r="1" fill="rgb(0,0,0)" />
	<circle cx="350" cy="366.667" r="1" fill="rgb(0,0,0)" />
	<circle cx="350" cy="350" r="1" fill="rgb(0,0,0)" />
	<circle cx="350" cy="216.667" r="1" fill="rgb(0,0,0)" />
	<circle cx="350" cy="50" r="1" fill="rgb(0,0,0)" />
	<circle cx="366.667" cy="916.667" r="1" fill="rgb(0,0,0)" />
	<circle cx="366.667" cy="900" r="1" fill="rgb(0,0,0)" />
	<circle cx="366.667" cy="883.333" r="1" fill="rgb(0,0,0)" />
	<circle cx="366.667" cy="866.667" r="1" fill="rgb(0,0,0)" />
	<circle cx="366.667" cy="800" r="1" fill="rgb(0,0,0)" />
	<circle cx="366.667" cy="483.333" r="1" fill="rgb(0,0,0)" />
	<circle cx="366.667" cy="466.667" r="1" fill="rgb(0,0,0)" />
	<circle cx="366.667" cy="216.667" r="1" fill="rgb(0,0,0)" />
	<circle cx="366.667" cy="50" r="1" fill="rgb(0,0,0)" />
	<circle cx="383.333" cy="850" r="1" fill="rgb(0,0,0)" />
	<circle cx="383.333" cy="800" r="1" fill="rgb(0,0,0)" />
	<circle cx="383.333" cy="483.333" r="1" fill="rgb(0,0,0)" />
	<circle cx="383.333" cy="466.667" r="1" fill="rgb(0,0,0)" />
	<circle cx="383.333" cy="400" r="1" fill="rgb(0,0,0)" />
	<circle cx="383.333" cy="350" r="1" fill="rgb(0,0,0)" />
	<circle cx="383.333" cy="216.667" r="1" fill="rgb(0,0,0)" />
	<circle cx="383.333" cy="50" r="1" fill="rgb(0,0,0)" />
	<circle cx="400" cy="850" r="1" fill="rgb(0,0,0)" />
	<circle cx="400" cy="800" r="1" fill="rgb(0,0,0)" />
	<circle cx="400" cy="400" r="1" fill="rgb(0,0,0)" />
	<circle cx="400" cy="350" r="1" fill="rgb(0,0,0)" />
	<circle cx="400" cy="216.667" r="1" fill="rgb(0,0,0)" />
	<circle cx="400" cy="50" r="1" fill="rgb(0,0,0)" />
	<circle cx="416.667" cy="900" r="1" fill="rgb(0,0,0)" />
	<circle cx="416.667" cy="850" r="1" fill="rgb(0,0,0)" />
	<circle cx="416.667" cy="800" r="1" fill="rgb(0,0,0)" />
	<circle cx="416.667" cy="350" r="1" fill="rgb(0,0,0)" />
	<circle cx="416.667" cy="216.667" r="1" fill="rgb(0,0,0)" />
	<circle cx="416.667" cy="50" r="1" fill="rgb(0,0,0)" />
	<circle cx="433.333" cy="1016.67" r="1" fill="rgb(0,0,0)" />
	<circle cx="433.333" cy="900" r="1" fill="rgb(0,0,0)" />
	<circle cx="433.333" cy="850" r="1" fill="rgb(0,0,0)" />
	<circle cx="433.333" cy="833.333" r="1" fill="rgb(0,0,0)" />
	<circle cx="433.333" cy="800" r="1" fill="rgb(0,0,0)" />
	<circle cx="433.333" cy="216.667" r="1" fill="rgb(0,0,0)" />
	<circle cx="433.333" cy="50" r="1" fill="rgb(0,0,0)" />
	<circle cx="450" cy="1016.67" r="1" fill="rgb(0,0,0)" />
	<circle cx="450" cy="816.667" r="1" fill="rgb(0,0,0)" />
	<circle cx="450" cy="800" r="1" fill="rgb(0,0,0)" />
	<circle cx="450" cy="216.667" r="1" fill="rgb(0,0,0)" />
	<circle cx="450" cy="50" r="1" fill="rgb(0,0,0)" />
	<circle cx="466.667" cy="1016.67" r="1" fill="rgb(0,0,0)" />
	<circle cx="466.667" cy="766.667" r="1" fill="rgb(0,0,0)" />
	<circle cx="466.667" cy="750" r="1" fill="rgb(0,0,0)" />
	<circle cx="466.667" cy="216.667" r="1" fill="rgb(0,0,0)" />
	<circle cx="466.667" cy="50" r="1" fill="rgb(0,0,0)" />
	<circle cx="483.333" cy="1016.67" r="1" fill="rgb(0,0,0)" />
	<circle cx="483.333" cy="766.667" r="1" fill="rgb(0,0,0)" />
	<circle cx="483.333" cy="750" r="1" fill="rgb(0,0,0)" />
	<circle cx="483.333" cy="583.333" r="1" fill="rgb(0,0,0)" />
	<circle cx="483.333" cy="450" r="1" fill="rgb(0,0,0)" />
	<circle cx="483.333" cy="216.667" r="1" fill="rgb(0,0,0)" />
	<circle cx="483.333" cy="50" r="1" fill="rgb(0,0,0)" />
	<circle cx="500" cy="683.333" r="1" fill="rgb(0,0,0)" />
	<circle cx="500" cy="666.667" r="1" fill="rgb(0,0,0)" />
	<circle cx="500" cy="216.667" r="1" fill="rgb(0,0,0)" />
	<circle cx="500" cy="50" r="1" fill="rgb(0,0,0)" />
	<circle cx="516.667" cy="716.667" r="1" fill="rgb(0,0,0)" />
	<circle cx="516.667" cy="700" r="1" fill="rgb(0,0,0)" />
	<circle cx="516.667" cy="666.667" r="1" fill="rgb(0,0,0)" />
	<circle cx="516.667" cy="216.667" r="1" fill="rgb(0,0,0)" />
	<circle cx="516.667" cy="50" r="1" fill="rgb(0,0,0)" />
	<circle cx="533.333" cy="1050" r="1" fill="rgb(0,0,0)" />
	<circle cx="533.333" cy="1033.33" r="1" fill="rgb(0,0,0)" />
	<circle cx="533.333" cy="1016.67" r="1" fill="rgb(0,0,0)" />
	<circle cx="533.333" cy="1000" r="1" fill="rgb(0,0,0)" />
	<circle cx="533.333" cy="983.333" r="1" fill="rgb(0,0,0)" />
	<circle cx="533.333" cy="716.667" r="1" fill="rgb(0,0,0)" />
	<circle cx="533.333" cy="700" r="1" fill="rgb(0,0,0)" />
	<circle cx="533.333" cy="683.333" r="1" fill="rgb(0,0,0)" />
	<circle cx="533.333" cy="666.667" r="1" fill="rgb(0,0,0)" />
	<circle cx="533.333" cy="216.667" r="1" fill="rgb(0,0,0)" />
	<circle cx="533.333" cy="50" r="1" fill="rgb(0,0,0)" />
	<circle cx="550" cy="1050" r="1" fill="rgb(0,0,0)" />
	<circle cx="550" cy="983.333" r="1" fill="rgb(0,0,0)" />
	<circle cx="550" cy="583.333" r="1" fill="rgb(0,0,0)" />
	<circle cx="550" cy="516.667" r="1" fill="rgb(0,0,0)" />
	<circle cx="550" cy="500" r="1" fill="rgb(0,0,0)" />
	<circle cx="550" cy="483.333" r="1" fill="rgb(0,0,0)" />
	<circle cx="550" cy="466.667" r="1" fill="rgb(0,0,0)" />
	<circle cx="550" cy="450" r="1" fill="rgb(0,0,0)" />
	<circle cx="550" cy="216.667" r="1" fill="rgb(0,0,0)" />
	<circle cx="550" cy="50" r="1" fill="rgb(0,0,0)" />
	<circle cx="566.667" cy="1050" r="1" fill="rgb(0,0,0)" />
	<circle cx="566.667" cy="983.333" r="1" fill="rgb(0,0,0)" />
	<circle cx="566.667" cy="850" r="1" fill="rgb(0,0,0)" />
	<circle cx="566.667" cy="583.333" r="1" fill="rgb(0,0,0)" />
	<circle cx="566.667" cy="516.667" r="1" fill="rgb(0,0,0)" />
	<circle cx="566.667" cy="433.333" r="1" fill="rgb(0,0,0)" />
	<circle cx="566.667" cy="216.667" r="1" fill="rgb(0,0,0)" />
	<circle cx="566.667" cy="50" r="1" fill="rgb(0,0,0)" />
	<circle cx="583.333" cy="1050" r="1" fill="rgb(0,0,0)" />
	<circle cx="583.333" cy="1016.67" r="1" fill="rgb(0,0,0)" />
	<circle cx="583.333" cy="1000" r="1" fill="rgb(0,0,0)" />
	<circle cx="583.333" cy="983.333" r="1" fill="rgb(0,0,0)" />
	<circle cx="583.333" cy="850" r="1" fill="rgb(0,0,0)" />
	<circle cx="583.333" cy="516.667" r="1" fill="rgb(0,0,0)" />
	<circle cx="583.333" cy="433.333" r="1" fill="rgb(0,0,0)" />
	<circle cx="583.333" cy="233.333" r="1" fill="rgb(0,0,0)" />
	<circle cx="583.333" cy="50" r="1" fill="rgb(0,0,0)" />
	<circle cx="600" cy="1050" r="1" fill="rgb(0,0,0)" />
	<circle cx="600" cy="1033.33" r="1" fill="rgb(0,0,0)" />
	<circle cx="600" cy="516.667" r="1" fill="rgb(0,0,0)" />
	<circle cx="600" cy="500" r="1" fill="rgb(0,0,0)" />
	<circle cx="600" cy="483.333" r="1" fill="rgb(0,0,0)" />
	<circle cx="600" cy="466.667" r="1" fill="rgb(0,0,0)" />
	<circle cx="600" cy="450" r="1" fill="rgb(0,0,0)" />
	<circle cx="600" cy="433.333" r="1" fill="rgb(0,0,0)" />
	<circle cx="600" cy="316.667" r="1" fill="rgb(0,0,0)" />
	<circle cx="600" cy="300" r="1" fill="rgb(0,0,0)" />
	<circle cx="600" cy="283.333" r="1" fill="rgb(0,0,0)" />
	<circle cx="600" cy="233.333" r="1" fill="rgb(0,0,0)" />
	<circle cx="600" cy="50" r="1" fill="rgb(0,0,0)" />
	<circle cx="616.667" cy="1050" r="1" fill="rgb(0,0,0)" />
	<circle cx="616.667" cy="1033.33" r="1" fill="rgb(0,0,0)" />
	<circle cx="616.667" cy="233.333" r="1" fill="rgb(0,0,0)" />
	<circle cx="616.667" cy="50" r="1" fill="rgb(0,0,0)" />
	<circle cx="633.333" cy="1050" r="1" fill="rgb(0,0,0)" />
	<circle cx="633.333" cy="1033.33" r="1" fill="rgb(0,0,0)" />
	<circle cx="633.333" cy="233.333" r="1" fill="rgb(0,0,0)" />
	<circle cx="633.333" cy="50" r="1" fill="rgb(0,0,0)" />
	<circle cx="650" cy="1050" r="1" fill="rgb(0,0,0)" />
	<circle cx="650" cy="1033.33" r="1" fill="rgb(0,0,0)" />
	<circle cx="650" cy="233.333" r="1" fill="rgb(0,0,0)" />
	<circle cx="650" cy="50" r="1" fill="rgb(0,0,0)" />
	<circle cx="666.667" cy="1050" r="1" fill="rgb(0,0,0)" />
	<circle cx="666.667" cy="1016.67" r="1" fill="rgb(0,0,0)" />
	<circle cx="666.667" cy="1000" r="1" fill="rgb(0,0,0)" />
	<circle cx="666.667" cy="233.333" r="1" fill="rgb(0,0,0)" />
	<circle cx="666.667" cy="50" r="1" fill="rgb(0,0,0)" />
	<circle cx="683.333" cy="1050" r="1" fill="rgb(0,0,0)" />
	<circle cx="683.333" cy="1000" r="1" fill="rgb(0,0,0)" />
	<circle cx="683.333" cy="233.333" r="1" fill="rgb(0,0,0)" />
	<circle cx="683.333" cy="50" r="1" fill="rgb(0,0,0)" />
	<circle cx="700" cy="1050" r="1" fill="rgb(0,0,0)" />
	<circle cx="700" cy="1000" r="1" fill="rgb(0,0,0)" />
	<circle cx="700" cy="666.667" r="1" fill="rgb(0,0,0)" />
	<circle cx="700" cy="650" r="1" fill="rgb(0,0,0)" />
	<circle cx="700" cy="633.333" r="1" fill="rgb(0,0,0)" />
	<circle cx="700" cy="616.667" r="1" fill="rgb(0,0,0)" />
	<circle cx="700" cy="600" r="1" fill="rgb(0,0,0)" />
	<circle cx="700" cy="583.333" r="1" fill="rgb(0,0,0)" />
	<circle cx="700" cy="566.667" r="1" fill="rgb(0,0,0)" />
	<circle cx="700" cy="233.333" r="1" fill="rgb(0,0,0)" />
	<circle cx="700" cy="50" r="1" fill="rgb(0,0,0)" />
	<circle cx="716.667" cy="1050" r="1" fill="rgb(0,0,0)" />
	<circle cx="716.667" cy="1033.33" r="1" fill="rgb(0,0,0)" />
	<circle cx="716.667" cy="1016.67" r="1" fill="rgb(0,0,0)" />
	<circle cx="716.667" cy="1000" r="1" fill="rgb(0,0,0)" />
	<circle cx="716.667" cy="666.667" r="1" fill="rgb(0,0,0)" />
	<circle cx="716.667" cy="566.667" r="1" fill="rgb(0,0,0)" />
	<circle cx="716.667" cy="233.333" r="1" fill="rgb(0,0,0)" />
	<circle cx="716.667" cy="50" r="1" fill="rgb(0,0,0)" />
	<circle cx="733.333" cy="1050" r="1" fill="rgb(0,0,0)" />
	<circle cx="733.333" cy="666.667" r="1" fill="rgb(0,0,0)" />
	<circle cx="733.333" cy="566.667" r="1" fill="rgb(0,0,0)" />
	<circle cx="733.333" cy="266.667" r="1" fill="rgb(0,0,0)" />
	<circle cx="733.333" cy="250" r="1" fill="rgb(0,0,0)" />
	<circle cx="733.333" cy="50" r="1" fill="rgb(0,0,0)" />
	<circle cx="750" cy="1050" r="1" fill="rgb(0,0,0)" />
	<circle cx="750" cy="683.333" r="1" fill="rgb(0,0,0)" />
	<circle cx="750" cy="566.667" r="1" fill="rgb(0,0,0)" />
	<circle cx="750" cy="266.667" r="1" fill="rgb(0,0,0)" />
	<circle cx="750" cy="50" r="1" fill="rgb(0,0,0)" />
	<circle cx="766.667" cy="683.333" r="1" fill="rgb(0,0,0)" />
	<circle cx="766.667" cy="566.667" r="1" fill="rgb(0,0,0)" />
	<circle cx="766.667" cy="350" r="1" fill="rgb(0,0,0)" />
	<circle cx="766.667" cy="333.333" r="1" fill="rgb(0,0,0)" />
	<circle cx="766.667" cy="316.667" r="1" fill="rgb(0,0,0)" />
	<circle cx="766.667" cy="266.667" r="1" fill="rgb(0,0,0)" />
	<circle cx="766.667" cy="50" r="1" fill="rgb(0,0,0)" />
	<circle cx="783.333" cy="683.333" r="1" fill="rgb(0,0,0)" />
	<circle cx="783.333" cy="566.667" r="1" fill="rgb(0,0,0)" />
	<circle cx="783.333" cy="350" r="1" fill="rgb(0,0,0)" />
	<circle cx="783.333" cy="316.667" r="1" fill="rgb(0,0,0)" />
	<circle cx="783.333" cy="266.667" r="1" fill="rgb(0,0,0)" />
	<circle cx="783.333" cy="250" r="1" fill="rgb(0,0,0)" />
	<circle cx="783.333" cy="233.333" r="1" fill="rgb(0,0,0)" />
	<circle cx="783.333" cy="50" r="1" fill="rgb(0,0,0)" />
	<circle cx="800" cy="716.667" r="1" fill="rgb(0,0,0)" />
	<circle cx="800" cy="700" r="1" fill="rgb(0,0,0)" />
	<circle cx="800" cy="683.333" r="1" fill="rgb(0,0,0)" />
	<circle cx="800" cy="666.667" r="1" fill="rgb(0,0,0)" />
	<circle cx="800" cy="650" r="1" fill="rgb(0,0,0)" />
	<circle cx="800" cy="633.333" r="1" fill="rgb(0,0,0)" />
	<circle cx="800" cy="616.667" r="1" fill="rgb(0,0,0)" />
	<circle cx="800" cy="600" r="1" fill="rgb(0,0,0)" />
	<circle cx="800" cy="583.333" r="1" fill="rgb(0,0,0)" />
	<circle cx="800" cy="566.667" r="1" fill="rgb(0,0,0)" />
	<circle cx="800" cy="516.667" r="1" fill="rgb(0,0,0)" />
	<circle cx="800" cy="500" r="1" fill="rgb(0,0,0)" />
	<circle cx="800" cy="483.333" r="1" fill="rgb(0,0,0)" />
	<circle cx="800" cy="466.667" r="1" fill="rgb(0,0,0)" />
	<circle cx="800" cy="450" r="1" fill="rgb(0,0,0)" />
	<circle cx="800" cy="433.333" r="1" fill="rgb(0,0,0)" />
	<circle cx="800" cy="416.667" r="1" fill="rgb(0,0,0)" />
	<circle cx="800" cy="400" r="1" fill="rgb(0,0,0)" />
	<circle cx="800" cy="383.333" r="1" fill="rgb(0,0,0)" />
	<circle cx="800" cy="366.667" r="1" fill="rgb(0,0,0)" />
	<circle cx="800" cy="316.667" r="1" fill="rgb(0,0,0)" />
	<circle cx="800" cy="216.667" r="1" fill="rgb(0,0,0)" />
	<circle cx="800" cy="50" r="1" fill="rgb(0,0,0)" />
	<circle cx="816.667" cy="833.333" r="1" fill="rgb(0,0,0)" />
	<circle cx="816.667" cy="816.667" r="1" fill="rgb(0,0,0)" />
	<circle cx="816.667" cy="516.667" r="1" fill="rgb(0,0,0)" />
	<circle cx="816.667" cy="316.667" r="1" fill="rgb(0,0,0)" />
	<circle cx="816.667" cy="216.667" r="1" fill="rgb(0,0,0)" />
	<circle cx="816.667" cy="50" r="1" fill="rgb(0,0,0)" />
	<circle cx="833.333" cy="516.667" r="1" fill="rgb(0,0,0)" />
	<circle cx="833.333" cy="316.667" r="1" fill="rgb(0,0,0)" />
	<circle cx="833.333" cy="216.667" r="1" fill="rgb(0,0,0)" />
	<circle cx="833.333" cy="50" r="1" fill="rgb(0,0,0)" />
	<circle cx="850" cy="516.667" r="1" fill="rgb(0,0,0)" />
	<circle cx="850" cy="316.667" r="1" fill="rgb(0,0,0)" />
	<circle cx="850" cy="216.667" r="1" fill="rgb(0,0,0)" />
	<circle cx="850" cy="50" r="1" fill="rgb(0,0,0)" />
	<circle cx="866.667" cy="700" r="1" fill="rgb(0,0,0)" />
	<circle cx="866.667" cy="683.333" r="1" fill="rgb(0,0,0)" />
	<circle cx="866.667" cy="666.667" r="1" fill="rgb(0,0,0)" />
	<circle cx="866.667" cy="650" r="1" fill="rgb(0,0,0)" />
	<circle cx="866.667" cy="633.333" r="1" fill="rgb(0,0,0)" />
	<circle cx="866.667" cy="616.667" r="1" fill="rgb(0,0,0)" />
	<circle cx="866.667" cy="600" r="1" fill="rgb(0,0,0)" />
	<circle cx="866.667" cy="583.333" r="1" fill="rgb(0,0,0)" />
	<circle cx="866.667" cy="566.667" r="1" fill="rgb(0,0,0)" />
	<circle cx="866.667" cy="550" r="1" fill="rgb(0,0,0)" />
	<circle cx="866.667" cy="533.333" r="1" fill="rgb(0,0,0)" />
	<circle cx="866.667" cy="316.667" r="1" fill="rgb(0,0,0)" />
	<circle cx="866.667" cy="216.667" r="1" fill="rgb(0,0,0)" />
	<circle cx="866.667" cy="50" r="1" fill="rgb(0,0,0)" />
	<circle cx="883.333" cy="1050" r="1" fill="rgb(0,0,0)" />
	<circle cx="883.333" cy="1033.33" r="1" fill="rgb(0,0,0)" />
	<circle cx="883.333" cy="1016.67" r="1" fill="rgb(0,0,0)" />
	<circle cx="883.333" cy="1000" r="1" fill="rgb(0,0,0)" />
	<circle cx="883.333" cy="983.333" r="1" fill="rgb(0,0,0)" />
	<circle cx="883.333" cy="966.667" r="1" fill="rgb(0,0,0)" />
	<circle cx="883.333" cy="950" r="1" fill="rgb(0,0,0)" />
	<circle cx="883.333" cy="933.333" r="1" fill="rgb(0,0,0)" />
	<circle cx="883.333" cy="916.667" r="1" fill="rgb(0,0,0)" />
	<circle cx="883.333" cy="900" r="1" fill="rgb(0,0,0)" />
	<circle cx="883.333" cy="883.333" r="1" fill="rgb(0,0,0)" />
	<circle cx="883.333" cy="866.667" r="1" fill="rgb(0,0,0)" />
	<circle cx="883.333" cy="850" r="1" fill="rgb(0,0,0)" />
	<circle cx="883.333" cy="833.333" r="1" fill="rgb(0,0,0)" />
	<circle cx="883.333" cy="816.667" r="1" fill="rgb(0,0,0)" />
	<circle cx="883.333" cy="800" r="1" fill="rgb(0,0,0)" />
	<circle cx="883.333" cy="783.333" r="1" fill="rgb(0,0,0)" />
	<circle cx="883.333" cy="766.667" r="1" fill="rgb(0,0,0)" />
	<circle cx="883.333" cy="750" r="1" fill="rgb(0,0,0)" />
	<circle cx="883.333" cy="733.333" r="1" fill="rgb(0,0,0)" />
	<circle cx="883.333" cy="716.667" r="1" fill="rgb(0,0,0)" />
	<circle cx="883.333" cy="300" r="1" fill="rgb(0,0,0)" />
	<circle cx="883.333" cy="283.333" r="1" fill="rgb(0,0,0)" />
	<circle cx="883.333" cy="266.667" r="1" fill="rgb(0,0,0)" />
	<circle cx="883.333" cy="250" r="1" fill="rgb(0,0,0)" />
	<circle cx="883.333" cy="233.333" r="1" fill="rgb(0,0,0)" />
	<circle cx="883.333" cy="50" r="1" fill="rgb(0,0,0)" />
	<circle cx="900" cy="1050" r="1" fill="rgb(0,0,0)" />
	<circle cx="900" cy="50" r="1" fill="rgb(0,0,0)" />
	<circle cx="916.667" cy="1050" r="1" fill="rgb(0,0,0)" />
	<circle cx="916.667" cy="50" r="1" fill="rgb(0,0,0)" />
	<circle cx="933.333" cy="1050" r="1" fill="rgb(0,0,0)" />
	<circle cx="933.333" cy="50" r="1" fill="rgb(0,0,0)" />
	<circle cx="950" cy="1050" r="1" fill="rgb(0,0,0)" />
	<circle cx="950" cy="50" r="1" fill="rgb(0,0,0)" />
	<circle cx="966.667" cy="1050" r="1" fill="rgb(0,0,0)" />
	<circle cx="966.667" cy="50" r="1" fill="rgb(0,0,0)" />
	<circle cx="983.333" cy="1050" r="1" fill="rgb(0,0,0)" />
	<circle cx="983.333" cy="50" r="1" fill="rgb(0,0,0)" />
	<circle cx="1000" cy="1050" r="1" fill="rgb(0,0,0)" />
	<circle cx="1000" cy="50" r="1" fill="rgb(0,0,0)" />
	<circle cx="1016.67" cy="1050" r="1" fill="rgb(0,0,0)" />
	<circle cx="1016.67" cy="50" r="1" fill="rgb(0,0,0)" />
	<circle cx="1033.33" cy="1050" r="1" fill="rgb(0,0,0)" />
	<circle cx="1033.33" cy="50" r="1" fill="rgb(0,0,0)" />
	<circle cx="1050" cy="1050" r="1" fill="rgb(0,0,0)" />
	<circle cx="1050" cy="1033.33" r="1" fill="rgb(0,0,0)" />
	<circle cx="1050" cy="1016.67" r="1" fill="rgb(0,0,0)" />
	<circle cx="1050" cy="1000" r="1" fill="rgb(0,0,0)" />
	<circle cx="1050" cy="983.333" r="1" fill="rgb(0,0,0)" />
	<circle cx="1050" cy="966.667" r="1" fill="rgb(0,0,0)" />
	<circle cx="1050" cy="950" r="1" fill="rgb(0,0,0)" />
	<circle cx="1050" cy="933.333" r="1" fill="rgb(0,0,0)" />
	<circle cx="1050" cy="916.667" r="1" fill="rgb(0,0,0)" />
	<circle cx="1050" cy="900" r="1" fill="rgb(0,0,0)" />
	<circle cx="1050" cy="883.333" r="1" fill="rgb(0,0,0)" />
	<circle cx="1050" cy="866.667" r="1" fill="rgb(0,0,0)" />
	<circle cx="1050" cy="850" r="1" fill="rgb(0,0,0)" />
	<circle cx="1050" cy="833.333" r="1" fill="rgb(0,0,0)" />
	<circle cx="1050" cy="816.667" r="1" fill="rgb(0,0,0)" />
	<circle cx="1050" cy="800" r="1" fill="rgb(0,0,0)" />
	<circle cx="1050" cy="783.333" r="1" fill="rgb(0,0,0)" />
	<circle cx="1050" cy="766.667" r="1" fill="rgb(0,0,0)" />
	<circle cx="1050" cy="750" r="1" fill="rgb(0,0,0)" />
	<circle cx="1050" cy="733.333" r="1" fill="rgb(0,0,0)" />
	<circle cx="1050" cy="716.667" r="1" fill="rgb(0,0,0)" />
	<circle cx="1050" cy="700" r="1" fill="rgb(0,0,0)" />
	<circle cx="1050" cy="683.333" r="1" fill="rgb(0,0,0)" />
	<circle cx="1050" cy="666.667" r="1" fill="rgb(0,0,0)" />
	<circle cx="1050" cy="650" r="1" fill="rgb(0,0,0)" />
	<circle cx="1050" cy="633.333" r="1" fill="rgb(0,0,0)" />
	<circle cx="1050" cy="616.667" r="1" fill="rgb(0,0,0)" />
	<circle cx="1050" cy="600" r="1" fill="rgb(0,0,0)" />
	<circle cx="1050" cy="583.333" r="1" fill="rgb(0,0,0)" />
	<circle cx="1050" cy="566.667" r="1" fill="rgb(0,0,0)" />
	<circle cx="1050" cy="550" r="1" fill="rgb(0,0,0)" />
	<circle cx="1050" cy="533.333" r="1" fill="rgb(0,0,0)" />
	<circle cx="1050" cy="516.667" r="1" fill="rgb(0,0,0)" />
	<circle cx="1050" cy="500" r="1" fill="rgb(0,0,0)" />
	<circle cx="1050" cy="483.333" r="1" fill="rgb(0,0,0)" />
	<circle cx="1050" cy="466.667" r="1" fill="rgb(0,0,0)" />
	<circle cx="1050" cy="450" r="1" fill="rgb(0,0,0)" />
	<circle cx="1050" cy="433.333" r="1" fill="rgb(0,0,0)" />
	<circle cx="1050" cy="416.667" r="1" fill="rgb(0,0,0)" />
	<circle cx="1050" cy="400" r="1" fill="rgb(0,0,0)" />
	<circle cx="1050" cy="383.333" r="1" fill="rgb(0,0,0)" />
	<circle cx="1050" cy="366.667" r="1" fill="rgb(0,0,0)" />
	<circle cx="1050" cy="350" r="1" fill="rgb(0,0,0)" />
	<circle cx="1050" cy="333.333" r="1" fill="rgb(0,0,0)" />
	<circle cx="1050" cy="316.667" r="1" fill="rgb(0,0,0)" />
	<circle cx="1050" cy="300" r="1" fill="rgb(0,0,0)" />
	<circle cx="1050" cy="283.333" r="1" fill="rgb(0,0,0)" />
	<circle cx="1050" cy="266.667" r="1" fill="rgb(0,0,0)" />
	<circle cx="1050" cy="250" r="1" fill="rgb(0,0,0)" />
	<circle cx="1050" cy="233.333" r="1" fill="rgb(0,0,0)" />
	<circle cx="1050" cy="216.667" r="1" fill="rgb(0,0,0)" />
	<circle cx="1050" cy="200" r="1" fill="rgb(0,0,0)" />
	<circle cx="1050" cy="183.333" r="1" fill="rgb(0,0,0)" />
	<circle cx="1050" cy="166.667" r="1" fill="rgb(0,0,0)" />
	<circle cx="1050" cy="150" r="1" fill="rgb(0,0,0)" />
	<circle cx="1050" cy="133.333" r="1" fill="rgb(0,0,0)" />
	<circle cx="1050" cy="116.667" r="1" fill="rgb(0,0,0)" />
	<circle cx="1050" cy="100" r="1" fill="rgb(0,0,0)" />
	<circle cx="1050" cy="83.3333" r="1" fill="rgb(0,0,0)" />
	<circle cx="1050" cy="66.6667" r="1" fill="rgb(0,0,0)" />
	<circle cx="1050" cy="50" r="1" fill="rgb(0,0,0)" />
</svg>
