<?xml version="1.0" standalone="no" ?>
<!DOCTYPE svg PUBLIC "-//W3C//DTD SVG 1.1//EN" "http://www.w3.org/Graphics/SVG/1.1/DTD/svg11.dtd">
<svg width="1100px" height="1100px" xmlns="http://www.w3.org/2000/svg" version="1.1" >
	<circle cx="50" cy="1000" r="1" fill="rgb(0,0,0)" />
	<circle cx="50" cy="950" r="1" fill="rgb(0,0,0)" />
	<circle cx="50" cy="750" r="1" fill="rgb(0,0,0)" />
	<circle cx="50" cy="700" r="1" fill="rgb(0,0,0)" />
	<circle cx="100" cy="1000" r="1" fill="rgb(0,0,0)" />
	<circle cx="100" cy="950" r="1" fill="rgb(0,0,0)" />
	<circle cx="100" cy="900" r="1" fill="rgb(0,0,0)" />
	<circle cx="100" cy="650" r="1" fill="rgb(0,0,0)" />
	<circle cx="100" cy="550" r="1" fill="rgb(0,0,0)" />
	<circle cx="100" cy="500" r="1" fill="rgb(0,0,0)" />
	<circle cx="100" cy="450" r="1" fill="rgb(0,0,0)" />
	<circle cx="150" cy="1000" r="1" fill="rgb(0,0,0)" />
	<circle cx="150" cy="950" r="1" fill="rgb(0,0,0)" />
	<circle cx="150" cy="900" r="1" fill="rgb(0,0,0)" />
	<circle cx="150" cy="150" r="1" fill="rgb(0,0,0)" />
	<circle cx="150" cy="100" r="1" fill="rgb(0,0,0)" />
	<circle cx="150" cy="50" r="1" fill="rgb(0,0,0)" />
	<circle cx="200" cy="1050" r="1" fill="rgb(0,0,0)" />
	<circle cx="200" cy="150" r="1" fill="rgb(0,0,0)" />
	<circle cx="200" cy="100" r="1" fill="rgb(0,0,0)" />
	<circle cx="200" cy="50" r="1" fill="rgb(0,0,0)" />
	<circle cx="300" cy="1050" r="1" fill="rgb(0,0,0)" />
	<circle cx="300" cy="1000" r="1" fill="rgb(0,0,0)" />
	<circle cx="300" cy="950" r="1" fill="rgb(0,0,0)" />
	<circle cx="300" cy="900" r="1" fill="rgb(0,0,0)" />
	<circle cx="300" cy="750" r="1" fill="rgb(0,0,0)" />
	<circle cx="350" cy="1050" r="1" fill="rgb(0,0,0)" />
	<circle cx="350" cy="1000" r="1" fill="rgb(0,0,0)" />
	<circle cx="350" cy="950" r="1" fill="rgb(0,0,0)" />
	<circle cx="350" cy="900" r="1" fill="rgb(0,0,0)" />
	<circle cx="350" cy="750" r="1" fill="rgb(0,0,0)" />
	<circle cx="400" cy="1050" r="1" fill="rgb(0,0,0)" />
	<circle cx="400" cy="1000" r="1" fill="rgb(0,0,0)" />
	<circle cx="400" cy="950" r="1" fill="rgb(0,0,0)" />
	<circle cx="450" cy="1050" r="1" fill="rgb(0,0,0)" />
	<circle cx="450" cy="1000" r="1" fill="rgb(0,0,0)" />
	<circle cx="450" cy="950" r="1" fill="rgb(0,0,0)" />
	<circle cx="500" cy="1050" r="1" fill="rgb(0,0,0)" />
	<circle cx="500" cy="1000" r="1" fill="rgb(0,0,0)" />
	<circle cx="500" cy="950" r="1" fill="rgb(0,0,0)" />
	<circle cx="500" cy="750" r="1" fill="rgb(0,0,0)" />
	<circle cx="500" cy="700" r="1" fill="rgb(0,0,0)" />
	<circle cx="500" cy="650" r="1" fill="rgb(0,0,0)" />
	<circle cx="550" cy="950" r="1" fill="rgb(0,0,0)" />
	<circle cx="550" cy="750" r="1" fill="rgb(0,0,0)" />
	<circle cx="550" cy="700" r="1" fill="rgb(0,0,0)" />
	<circle cx="550" cy="650" r="1" fill="rgb(0,0,0)" />
	<circle cx="550" cy="400" r="1" fill="rgb(0,0,0)" />
	<circle cx="550" cy="350" r="1" fill="rgb(0,0,0)" />
	<circle cx="600" cy="950" r="1" fill="rgb(0,0,0)" />
	<circle cx="600" cy="750" r="1" fill="rgb(0,0,0)" />
	<circle cx="600" cy="700" r="1" fill="rgb(0,0,0)" />
	<circle cx="600" cy="650" r="1" fill="rgb(0,0,0)" />
	<circle cx="600" cy="400" r="1" fill="rgb(0,0,0)" />
	<circle cx="650" cy="950" r="1" fill="rgb(0,0,0)" />
	<circle cx="650" cy="750" r="1" fill="rgb(0,0,0)" />
	<circle cx="650" cy="700" r="1" fill="rgb(0,0,0)" />
	<circle cx="650" cy="650" r="1" fill="rgb(0,0,0)" />
	<circle cx="650" cy="550" r="1" fill="rgb(0,0,0)" />
	<circle cx="650" cy="500" r="1" fill="rgb(0,0,0)" />
	<circle cx="650" cy="450" r="1" fill="rgb(0,0,0)" />
	<circle cx="650" cy="350" r="1" fill="rgb(0,0,0)" />
	<circle cx="650" cy="200" r="1" fill="rgb(0,0,0)" />
	<circle cx="650" cy="150" r="1" fill="rgb(0,0,0)" />
	<circle cx="700" cy="950" r="1" fill="rgb(0,0,0)" />
	<circle cx="700" cy="750" r="1" fill="rgb(0,0,0)" />
	<circle cx="700" cy="700" r="1" fill="rgb(0,0,0)" />
	<circle cx="700" cy="650" r="1" fill="rgb(0,0,0)" />
	<circle cx="700" cy="550" r="1" fill="rgb(0,0,0)" />
	<circle cx="700" cy="500" r="1" fill="rgb(0,0,0)" />
	<circle cx="700" cy="200" r="1" fill="rgb(0,0,0)" />
	<circle cx="700" cy="150" r="1" fill="rgb(0,0,0)" />
	<circle cx="750" cy="950" r="1" fill="rgb(0,0,0)" />
	<circle cx="750" cy="750" r="1" fill="rgb(0,0,0)" />
	<circle cx="750" cy="700" r="1" fill="rgb(0,0,0)" />
	<circle cx="750" cy="650" r="1" fill="rgb(0,0,0)" />
	<circle cx="750" cy="200" r="1" fill="rgb(0,0,0)" />
	<circle cx="750" cy="150" r="1" fill="rgb(0,0,0)" />
	<circle cx="750" cy="100" r="1" fill="rgb(0,0,0)" />
	<circle cx="800" cy="950" r="1" fill="rgb(0,0,0)" />
	<circle cx="800" cy="900" r="1" fill="rgb(0,0,0)" />
	<circle cx="800" cy="750" r="1" fill="rgb(0,0,0)" />
	<circle cx="800" cy="700" r="1" fill="rgb(0,0,0)" />
	<circle cx="800" cy="650" r="1" fill="rgb(0,0,0)" />
	<circle cx="800" cy="450" r="1" fill="rgb(0,0,0)" />
	<circle cx="800" cy="400" r="1" fill="rgb(0,0,0)" />
	<circle cx="800" cy="350" r="1" fill="rgb(0,0,0)" />
	<circle cx="800" cy="300" r="1" fill="rgb(0,0,0)" />
	<circle cx="800" cy="250" r="1" fill="rgb(0,0,0)" />
	<circle cx="800" cy="150" r="1" fill="rgb(0,0,0)" />
	<circle cx="800" cy="100" r="1" fill="rgb(0,0,0)" />
	<circle cx="850" cy="950" r="1" fill="rgb(0,0,0)" />
	<circle cx="850" cy="300" r="1" fill="rgb(0,0,0)" />
	<circle cx="850" cy="250" r="1" fill="rgb(0,0,0)" />
	<circle cx="850" cy="200" r="1" fill="rgb(0,0,0)" />
	<circle cx="850" cy="150" r="1" fill="rgb(0,0,0)" />
	<circle cx="850" cy="100" r="1" fill="rgb(0,0,0)" />
	<circle cx="900" cy="1000" r="1" fill="rgb(0,0,0)" />
	<circle cx="900" cy="300" r="1" fill="rgb(0,0,0)" />
	<circle cx="900" cy="250" r="1" fill="rgb(0,0,0)" />
	<circle cx="900" cy="200" r="1" fill="rgb(0,0,0)" />
	<circle cx="900" cy="50" r="1" fill="rgb(0,0,0)" />
	<circle cx="950" cy="1000" r="1" fill="rgb(0,0,0)" />
	<circle cx="950" cy="700" r="1" fill="rgb(0,0,0)" />
	<circle cx="950" cy="650" r="1" fill="rgb(0,0,0)" />
	<circle cx="950" cy="300" r="1" fill="rgb(0,0,0)" />
	<circle cx="950" cy="250" r="1" fill="rgb(0,0,0)" />
	<circle cx="950" cy="200" r="1" fill="rgb(0,0,0)" />
	<circle cx="950" cy="50" r="1" fill="rgb(0,0,0)" />
	<circle cx="1000" cy="1050" r="1" fill="rgb(0,0,0)" />
	<circle cx="1000" cy="1000" r="1" fill="rgb(0,0,0)" />
	<circle cx="1000" cy="900" r="1" fill="rgb(0,0,0)" />
	<circle cx="1000" cy="850" r="1" fill="rgb(0,0,0)" />
	<circle cx="1000" cy="700" r="1" fill="rgb(0,0,0)" />
	<circle cx="1000" cy="650" r="1" fill="rgb(0,0,0)" />
	<circle cx="1000" cy="150" r="1" fill="rgb(0,0,0)" />
	<circle cx="1000" cy="100" r="1" fill="rgb(0,0,0)" />
	<circle cx="1000" cy="50" r="1" fill="rgb(0,0,0)" />
	<circle cx="1050" cy="1050" r="1" fill="rgb(0,0,0)" />
	<circle cx="1050" cy="1000" r="1" fill="rgb(0,0,0)" />
	<circle cx="1050" cy="900" r="1" fill="rgb(0,0,0)" />
	<circle cx="1050" cy="850" r="1" fill="rgb(0,0,0)" />
</svg>
