<?xml version="1.0" standalone="no" ?>
<!DOCTYPE svg PUBLIC "-//W3C//DTD SVG 1.1//EN" "http://www.w3.org/Graphics/SVG/1.1/DTD/svg11.dtd">
<svg width="1100px" height="1100px" xmlns="http://www.w3.org/2000/svg" version="1.1" >
	<circle cx="50" cy="866.327" r="1" fill="rgb(0,0,0)" />
	<circle cx="50" cy="845.918" r="1" fill="rgb(0,0,0)" />
	<circle cx="50" cy="805.102" r="1" fill="rgb(0,0,0)" />
	<circle cx="50" cy="784.694" r="1" fill="rgb(0,0,0)" />
	<circle cx="50" cy="764.286" r="1" fill="rgb(0,0,0)" />
	<circle cx="50" cy="743.878" r="1" fill="rgb(0,0,0)" />
	<circle cx="50" cy="723.469" r="1" fill="rgb(0,0,0)" />
	<circle cx="50" cy="703.061" r="1" fill="rgb(0,0,0)" />
	<circle cx="50" cy="682.653" r="1" fill="rgb(0,0,0)" />
	<circle cx="50" cy="539.796" r="1" fill="rgb(0,0,0)" />
	<circle cx="50" cy="519.388" r="1" fill="rgb(0,0,0)" />
	<circle cx="50" cy="498.98" r="1" fill="rgb(0,0,0)" />
	<circle cx="50" cy="478.571" r="1" fill="rgb(0,0,0)" />
	<circle cx="50" cy="458.163" r="1" fill="rgb(0,0,0)" />
	<circle cx="50" cy="437.755" r="1" fill="rgb(0,0,0)" />
	<circle cx="50" cy="417.347" r="1" fill="rgb(0,0,0)" />
	<circle cx="50" cy="396.939" r="1" fill="rgb(0,0,0)" />
	<circle cx="50" cy="192.857" r="1" fill="rgb(0,0,0)" />
	<circle cx="50" cy="172.449" r="1" fill="rgb(0,0,0)" />
	<circle cx="50" cy="152.041" r="1" fill="rgb(0,0,0)" />
	<circle cx="50" cy="131.633" r="1" fill="rgb(0,0,0)" />
	<circle cx="50" cy="111.224" r="1" fill="rgb(0,0,0)" />
	<circle cx="50" cy="90.8163" r="1" fill="rgb(0,0,0)" />
	<circle cx="50" cy="70.4082" r="1" fill="rgb(0,0,0)" />
	<circle cx="50" cy="50" r="1" fill="rgb(0,0,0)" />
	<circle cx="70.4082" cy="866.327" r="1" fill="rgb(0,0,0)" />
	<circle cx="70.4082" cy="845.918" r="1" fill="rgb(0,0,0)" />
	<circle cx="70.4082" cy="805.102" r="1" fill="rgb(0,0,0)" />
	<circle cx="70.4082" cy="784.694" r="1" fill="rgb(0,0,0)" />
	<circle cx="70.4082" cy="764.286" r="1" fill="rgb(0,0,0)" />
	<circle cx="70.4082" cy="743.878" r="1" fill="rgb(0,0,0)" />
	<circle cx="70.4082" cy="723.469" r="1" fill="rgb(0,0,0)" />
	<circle cx="70.4082" cy="703.061" r="1" fill="rgb(0,0,0)" />
	<circle cx="70.4082" cy="682.653" r="1" fill="rgb(0,0,0)" />
	<circle cx="70.4082" cy="621.429" r="1" fill="rgb(0,0,0)" />
	<circle cx="70.4082" cy="601.02" r="1" fill="rgb(0,0,0)" />
	<circle cx="70.4082" cy="580.612" r="1" fill="rgb(0,0,0)" />
	<circle cx="70.4082" cy="560.204" r="1" fill="rgb(0,0,0)" />
	<circle cx="70.4082" cy="376.531" r="1" fill="rgb(0,0,0)" />
	<circle cx="70.4082" cy="192.857" r="1" fill="rgb(0,0,0)" />
	<circle cx="70.4082" cy="131.633" r="1" fill="rgb(0,0,0)" />
	<circle cx="90.8163" cy="866.327" r="1" fill="rgb(0,0,0)" />
	<circle cx="90.8163" cy="845.918" r="1" fill="rgb(0,0,0)" />
	<circle cx="90.8163" cy="621.429" r="1" fill="rgb(0,0,0)" />
	<circle cx="90.8163" cy="601.02" r="1" fill="rgb(0,0,0)" />
	<circle cx="90.8163" cy="580.612" r="1" fill="rgb(0,0,0)" />
	<circle cx="90.8163" cy="560.204" r="1" fill="rgb(0,0,0)" />
	<circle cx="90.8163" cy="539.796" r="1" fill="rgb(0,0,0)" />
	<circle cx="90.8163" cy="519.388" r="1" fill="rgb(0,0,0)" />
	<circle cx="90.8163" cy="498.98" r="1" fill="rgb(0,0,0)" />
	<circle cx="90.8163" cy="376.531" r="1" fill="rgb(0,0,0)" />
	<circle cx="90.8163" cy="192.857" r="1" fill="rgb(0,0,0)" />
	<circle cx="90.8163" cy="172.449" r="1" fill="rgb(0,0,0)" />
	<circle cx="90.8163" cy="152.041" r="1" fill="rgb(0,0,0)" />
	<circle cx="90.8163" cy="131.633" r="1" fill="rgb(0,0,0)" />
	<circle cx="90.8163" cy="111.224" r="1" fill="rgb(0,0,0)" />
	<circle cx="90.8163" cy="90.8163" r="1" fill="rgb(0,0,0)" />
	<circle cx="90.8163" cy="70.4082" r="1" fill="rgb(0,0,0)" />
	<circle cx="90.8163" cy="50" r="1" fill="rgb(0,0,0)" />
	<circle cx="111.224" cy="866.327" r="1" fill="rgb(0,0,0)" />
	<circle cx="111.224" cy="845.918" r="1" fill="rgb(0,0,0)" />
	<circle cx="111.224" cy="662.245" r="1" fill="rgb(0,0,0)" />
	<circle cx="111.224" cy="641.837" r="1" fill="rgb(0,0,0)" />
	<circle cx="111.224" cy="315.306" r="1" fill="rgb(0,0,0)" />
	<circle cx="111.224" cy="294.898" r="1" fill="rgb(0,0,0)" />
	<circle cx="111.224" cy="274.49" r="1" fill="rgb(0,0,0)" />
	<circle cx="111.224" cy="254.082" r="1" fill="rgb(0,0,0)" />
	<circle cx="111.224" cy="233.673" r="1" fill="rgb(0,0,0)" />
	<circle cx="111.224" cy="213.265" r="1" fill="rgb(0,0,0)" />
	<circle cx="111.224" cy="111.224" r="1" fill="rgb(0,0,0)" />
	<circle cx="111.224" cy="50" r="1" fill="rgb(0,0,0)" />
	<circle cx="131.633" cy="927.551" r="1" fill="rgb(0,0,0)" />
	<circle cx="131.633" cy="907.143" r="1" fill="rgb(0,0,0)" />
	<circle cx="131.633" cy="886.735" r="1" fill="rgb(0,0,0)" />
	<circle cx="131.633" cy="315.306" r="1" fill="rgb(0,0,0)" />
	<circle cx="131.633" cy="213.265" r="1" fill="rgb(0,0,0)" />
	<circle cx="131.633" cy="111.224" r="1" fill="rgb(0,0,0)" />
	<circle cx="131.633" cy="50" r="1" fill="rgb(0,0,0)" />
	<circle cx="152.041" cy="1009.18" r="1" fill="rgb(0,0,0)" />
	<circle cx="152.041" cy="988.776" r="1" fill="rgb(0,0,0)" />
	<circle cx="152.041" cy="968.367" r="1" fill="rgb(0,0,0)" />
	<circle cx="152.041" cy="947.959" r="1" fill="rgb(0,0,0)" />
	<circle cx="152.041" cy="866.327" r="1" fill="rgb(0,0,0)" />
	<circle cx="152.041" cy="315.306" r="1" fill="rgb(0,0,0)" />
	<circle cx="152.041" cy="213.265" r="1" fill="rgb(0,0,0)" />
	<circle cx="152.041" cy="111.224" r="1" fill="rgb(0,0,0)" />
	<circle cx="152.041" cy="90.8163" r="1" fill="rgb(0,0,0)" />
	<circle cx="152.041" cy="70.4082" r="1" fill="rgb(0,0,0)" />
	<circle cx="152.041" cy="50" r="1" fill="rgb(0,0,0)" />
	<circle cx="172.449" cy="1009.18" r="1" fill="rgb(0,0,0)" />
	<circle cx="172.449" cy="947.959" r="1" fill="rgb(0,0,0)" />
	<circle cx="172.449" cy="315.306" r="1" fill="rgb(0,0,0)" />
	<circle cx="172.449" cy="192.857" r="1" fill="rgb(0,0,0)" />
	<circle cx="172.449" cy="172.449" r="1" fill="rgb(0,0,0)" />
	<circle cx="172.449" cy="152.041" r="1" fill="rgb(0,0,0)" />
	<circle cx="172.449" cy="131.633" r="1" fill="rgb(0,0,0)" />
	<circle cx="192.857" cy="1009.18" r="1" fill="rgb(0,0,0)" />
	<circle cx="192.857" cy="947.959" r="1" fill="rgb(0,0,0)" />
	<circle cx="192.857" cy="845.918" r="1" fill="rgb(0,0,0)" />
	<circle cx="192.857" cy="662.245" r="1" fill="rgb(0,0,0)" />
	<circle cx="192.857" cy="641.837" r="1" fill="rgb(0,0,0)" />
	<circle cx="192.857" cy="315.306" r="1" fill="rgb(0,0,0)" />
	<circle cx="192.857" cy="294.898" r="1" fill="rgb(0,0,0)" />
	<circle cx="192.857" cy="274.49" r="1" fill="rgb(0,0,0)" />
	<circle cx="192.857" cy="254.082" r="1" fill="rgb(0,0,0)" />
	<circle cx="192.857" cy="233.673" r="1" fill="rgb(0,0,0)" />
	<circle cx="192.857" cy="213.265" r="1" fill="rgb(0,0,0)" />
	<circle cx="192.857" cy="192.857" r="1" fill="rgb(0,0,0)" />
	<circle cx="192.857" cy="172.449" r="1" fill="rgb(0,0,0)" />
	<circle cx="192.857" cy="152.041" r="1" fill="rgb(0,0,0)" />
	<circle cx="192.857" cy="131.633" r="1" fill="rgb(0,0,0)" />
	<circle cx="213.265" cy="1009.18" r="1" fill="rgb(0,0,0)" />
	<circle cx="213.265" cy="988.776" r="1" fill="rgb(0,0,0)" />
	<circle cx="213.265" cy="968.367" r="1" fill="rgb(0,0,0)" />
	<circle cx="213.265" cy="947.959" r="1" fill="rgb(0,0,0)" />
	<circle cx="213.265" cy="845.918" r="1" fill="rgb(0,0,0)" />
	<circle cx="213.265" cy="825.51" r="1" fill="rgb(0,0,0)" />
	<circle cx="213.265" cy="805.102" r="1" fill="rgb(0,0,0)" />
	<circle cx="213.265" cy="682.653" r="1" fill="rgb(0,0,0)" />
	<circle cx="213.265" cy="580.612" r="1" fill="rgb(0,0,0)" />
	<circle cx="213.265" cy="560.204" r="1" fill="rgb(0,0,0)" />
	<circle cx="213.265" cy="539.796" r="1" fill="rgb(0,0,0)" />
	<circle cx="213.265" cy="519.388" r="1" fill="rgb(0,0,0)" />
	<circle cx="213.265" cy="498.98" r="1" fill="rgb(0,0,0)" />
	<circle cx="213.265" cy="478.571" r="1" fill="rgb(0,0,0)" />
	<circle cx="213.265" cy="111.224" r="1" fill="rgb(0,0,0)" />
	<circle cx="213.265" cy="90.8163" r="1" fill="rgb(0,0,0)" />
	<circle cx="213.265" cy="70.4082" r="1" fill="rgb(0,0,0)" />
	<circle cx="213.265" cy="50" r="1" fill="rgb(0,0,0)" />
	<circle cx="233.673" cy="1009.18" r="1" fill="rgb(0,0,0)" />
	<circle cx="233.673" cy="845.918" r="1" fill="rgb(0,0,0)" />
	<circle cx="233.673" cy="805.102" r="1" fill="rgb(0,0,0)" />
	<circle cx="233.673" cy="682.653" r="1" fill="rgb(0,0,0)" />
	<circle cx="233.673" cy="580.612" r="1" fill="rgb(0,0,0)" />
	<circle cx="233.673" cy="478.571" r="1" fill="rgb(0,0,0)" />
	<circle cx="233.673" cy="111.224" r="1" fill="rgb(0,0,0)" />
	<circle cx="233.673" cy="50" r="1" fill="rgb(0,0,0)" />
	<circle cx="254.082" cy="1009.18" r="1" fill="rgb(0,0,0)" />
	<circle cx="254.082" cy="845.918" r="1" fill="rgb(0,0,0)" />
	<circle cx="254.082" cy="805.102" r="1" fill="rgb(0,0,0)" />
	<circle cx="254.082" cy="682.653" r="1" fill="rgb(0,0,0)" />
	<circle cx="254.082" cy="621.429" r="1" fill="rgb(0,0,0)" />
	<circle cx="254.082" cy="601.02" r="1" fill="rgb(0,0,0)" />
	<circle cx="254.082" cy="560.204" r="1" fill="rgb(0,0,0)" />
	<circle cx="254.082" cy="478.571" r="1" fill="rgb(0,0,0)" />
	<circle cx="254.082" cy="254.082" r="1" fill="rgb(0,0,0)" />
	<circle cx="254.082" cy="233.673" r="1" fill="rgb(0,0,0)" />
	<circle cx="254.082" cy="192.857" r="1" fill="rgb(0,0,0)" />
	<circle cx="254.082" cy="172.449" r="1" fill="rgb(0,0,0)" />
	<circle cx="254.082" cy="152.041" r="1" fill="rgb(0,0,0)" />
	<circle cx="254.082" cy="131.633" r="1" fill="rgb(0,0,0)" />
	<circle cx="254.082" cy="90.8163" r="1" fill="rgb(0,0,0)" />
	<circle cx="254.082" cy="70.4082" r="1" fill="rgb(0,0,0)" />
	<circle cx="274.49" cy="1050" r="1" fill="rgb(0,0,0)" />
	<circle cx="274.49" cy="1029.59" r="1" fill="rgb(0,0,0)" />
	<circle cx="274.49" cy="845.918" r="1" fill="rgb(0,0,0)" />
	<circle cx="274.49" cy="825.51" r="1" fill="rgb(0,0,0)" />
	<circle cx="274.49" cy="805.102" r="1" fill="rgb(0,0,0)" />
	<circle cx="274.49" cy="682.653" r="1" fill="rgb(0,0,0)" />
	<circle cx="274.49" cy="621.429" r="1" fill="rgb(0,0,0)" />
	<circle cx="274.49" cy="601.02" r="1" fill="rgb(0,0,0)" />
	<circle cx="274.49" cy="560.204" r="1" fill="rgb(0,0,0)" />
	<circle cx="274.49" cy="539.796" r="1" fill="rgb(0,0,0)" />
	<circle cx="274.49" cy="519.388" r="1" fill="rgb(0,0,0)" />
	<circle cx="274.49" cy="498.98" r="1" fill="rgb(0,0,0)" />
	<circle cx="274.49" cy="478.571" r="1" fill="rgb(0,0,0)" />
	<circle cx="274.49" cy="254.082" r="1" fill="rgb(0,0,0)" />
	<circle cx="274.49" cy="233.673" r="1" fill="rgb(0,0,0)" />
	<circle cx="274.49" cy="111.224" r="1" fill="rgb(0,0,0)" />
	<circle cx="294.898" cy="1050" r="1" fill="rgb(0,0,0)" />
	<circle cx="294.898" cy="1009.18" r="1" fill="rgb(0,0,0)" />
	<circle cx="294.898" cy="662.245" r="1" fill="rgb(0,0,0)" />
	<circle cx="294.898" cy="641.837" r="1" fill="rgb(0,0,0)" />
	<circle cx="294.898" cy="254.082" r="1" fill="rgb(0,0,0)" />
	<circle cx="294.898" cy="233.673" r="1" fill="rgb(0,0,0)" />
	<circle cx="315.306" cy="1050" r="1" fill="rgb(0,0,0)" />
	<circle cx="315.306" cy="1009.18" r="1" fill="rgb(0,0,0)" />
	<circle cx="315.306" cy="662.245" r="1" fill="rgb(0,0,0)" />
	<circle cx="315.306" cy="641.837" r="1" fill="rgb(0,0,0)" />
	<circle cx="315.306" cy="498.98" r="1" fill="rgb(0,0,0)" />
	<circle cx="315.306" cy="478.571" r="1" fill="rgb(0,0,0)" />
	<circle cx="335.714" cy="1050" r="1" fill="rgb(0,0,0)" />
	<circle cx="335.714" cy="1009.18" r="1" fill="rgb(0,0,0)" />
	<circle cx="335.714" cy="947.959" r="1" fill="rgb(0,0,0)" />
	<circle cx="335.714" cy="927.551" r="1" fill="rgb(0,0,0)" />
	<circle cx="335.714" cy="662.245" r="1" fill="rgb(0,0,0)" />
	<circle cx="335.714" cy="641.837" r="1" fill="rgb(0,0,0)" />
	<circle cx="335.714" cy="498.98" r="1" fill="rgb(0,0,0)" />
	<circle cx="335.714" cy="478.571" r="1" fill="rgb(0,0,0)" />
	<circle cx="335.714" cy="111.224" r="1" fill="rgb(0,0,0)" />
	<circle cx="356.122" cy="1050" r="1" fill="rgb(0,0,0)" />
	<circle cx="356.122" cy="1009.18" r="1" fill="rgb(0,0,0)" />
	<circle cx="356.122" cy="947.959" r="1" fill="rgb(0,0,0)" />
	<circle cx="356.122" cy="927.551" r="1" fill="rgb(0,0,0)" />
	<circle cx="356.122" cy="662.245" r="1" fill="rgb(0,0,0)" />
	<circle cx="356.122" cy="641.837" r="1" fill="rgb(0,0,0)" />
	<circle cx="356.122" cy="498.98" r="1" fill="rgb(0,0,0)" />
	<circle cx="356.122" cy="111.224" r="1" fill="rgb(0,0,0)" />
	<circle cx="376.531" cy="1050" r="1" fill="rgb(0,0,0)" />
	<circle cx="376.531" cy="1009.18" r="1" fill="rgb(0,0,0)" />
	<circle cx="376.531" cy="662.245" r="1" fill="rgb(0,0,0)" />
	<circle cx="376.531" cy="498.98" r="1" fill="rgb(0,0,0)" />
	<circle cx="376.531" cy="294.898" r="1" fill="rgb(0,0,0)" />
	<circle cx="376.531" cy="131.633" r="1" fill="rgb(0,0,0)" />
	<circle cx="376.531" cy="90.8163" r="1" fill="rgb(0,0,0)" />
	<circle cx="396.939" cy="1050" r="1" fill="rgb(0,0,0)" />
	<circle cx="396.939" cy="1009.18" r="1" fill="rgb(0,0,0)" />
	<circle cx="396.939" cy="662.245" r="1" fill="rgb(0,0,0)" />
	<circle cx="396.939" cy="621.429" r="1" fill="rgb(0,0,0)" />
	<circle cx="396.939" cy="601.02" r="1" fill="rgb(0,0,0)" />
	<circle cx="396.939" cy="580.612" r="1" fill="rgb(0,0,0)" />
	<circle cx="396.939" cy="498.98" r="1" fill="rgb(0,0,0)" />
	<circle cx="396.939" cy="294.898" r="1" fill="rgb(0,0,0)" />
	<circle cx="396.939" cy="111.224" r="1" fill="rgb(0,0,0)" />
	<circle cx="396.939" cy="90.8163" r="1" fill="rgb(0,0,0)" />
	<circle cx="417.347" cy="1050" r="1" fill="rgb(0,0,0)" />
	<circle cx="417.347" cy="1009.18" r="1" fill="rgb(0,0,0)" />
	<circle cx="417.347" cy="723.469" r="1" fill="rgb(0,0,0)" />
	<circle cx="417.347" cy="703.061" r="1" fill="rgb(0,0,0)" />
	<circle cx="417.347" cy="682.653" r="1" fill="rgb(0,0,0)" />
	<circle cx="417.347" cy="641.837" r="1" fill="rgb(0,0,0)" />
	<circle cx="417.347" cy="580.612" r="1" fill="rgb(0,0,0)" />
	<circle cx="417.347" cy="498.98" r="1" fill="rgb(0,0,0)" />
	<circle cx="417.347" cy="294.898" r="1" fill="rgb(0,0,0)" />
	<circle cx="417.347" cy="111.224" r="1" fill="rgb(0,0,0)" />
	<circle cx="417.347" cy="90.8163" r="1" fill="rgb(0,0,0)" />
	<circle cx="437.755" cy="1050" r="1" fill="rgb(0,0,0)" />
	<circle cx="437.755" cy="1009.18" r="1" fill="rgb(0,0,0)" />
	<circle cx="437.755" cy="723.469" r="1" fill="rgb(0,0,0)" />
	<circle cx="437.755" cy="682.653" r="1" fill="rgb(0,0,0)" />
	<circle cx="437.755" cy="641.837" r="1" fill="rgb(0,0,0)" />
	<circle cx="437.755" cy="621.429" r="1" fill="rgb(0,0,0)" />
	<circle cx="437.755" cy="601.02" r="1" fill="rgb(0,0,0)" />
	<circle cx="437.755" cy="580.612" r="1" fill="rgb(0,0,0)" />
	<circle cx="437.755" cy="498.98" r="1" fill="rgb(0,0,0)" />
	<circle cx="437.755" cy="111.224" r="1" fill="rgb(0,0,0)" />
	<circle cx="437.755" cy="90.8163" r="1" fill="rgb(0,0,0)" />
	<circle cx="458.163" cy="1050" r="1" fill="rgb(0,0,0)" />
	<circle cx="458.163" cy="1029.59" r="1" fill="rgb(0,0,0)" />
	<circle cx="458.163" cy="1009.18" r="1" fill="rgb(0,0,0)" />
	<circle cx="458.163" cy="723.469" r="1" fill="rgb(0,0,0)" />
	<circle cx="458.163" cy="682.653" r="1" fill="rgb(0,0,0)" />
	<circle cx="458.163" cy="641.837" r="1" fill="rgb(0,0,0)" />
	<circle cx="458.163" cy="498.98" r="1" fill="rgb(0,0,0)" />
	<circle cx="458.163" cy="111.224" r="1" fill="rgb(0,0,0)" />
	<circle cx="458.163" cy="90.8163" r="1" fill="rgb(0,0,0)" />
	<circle cx="478.571" cy="723.469" r="1" fill="rgb(0,0,0)" />
	<circle cx="478.571" cy="703.061" r="1" fill="rgb(0,0,0)" />
	<circle cx="478.571" cy="682.653" r="1" fill="rgb(0,0,0)" />
	<circle cx="478.571" cy="662.245" r="1" fill="rgb(0,0,0)" />
	<circle cx="478.571" cy="641.837" r="1" fill="rgb(0,0,0)" />
	<circle cx="478.571" cy="498.98" r="1" fill="rgb(0,0,0)" />
	<circle cx="478.571" cy="111.224" r="1" fill="rgb(0,0,0)" />
	<circle cx="478.571" cy="90.8163" r="1" fill="rgb(0,0,0)" />
	<circle cx="498.98" cy="70.4082" r="1" fill="rgb(0,0,0)" />
	<circle cx="519.388" cy="70.4082" r="1" fill="rgb(0,0,0)" />
	<circle cx="539.796" cy="70.4082" r="1" fill="rgb(0,0,0)" />
	<circle cx="560.204" cy="825.51" r="1" fill="rgb(0,0,0)" />
	<circle cx="560.204" cy="805.102" r="1" fill="rgb(0,0,0)" />
	<circle cx="560.204" cy="70.4082" r="1" fill="rgb(0,0,0)" />
	<circle cx="580.612" cy="886.735" r="1" fill="rgb(0,0,0)" />
	<circle cx="580.612" cy="866.327" r="1" fill="rgb(0,0,0)" />
	<circle cx="580.612" cy="845.918" r="1" fill="rgb(0,0,0)" />
	<circle cx="580.612" cy="805.102" r="1" fill="rgb(0,0,0)" />
	<circle cx="580.612" cy="437.755" r="1" fill="rgb(0,0,0)" />
	<circle cx="580.612" cy="396.939" r="1" fill="rgb(0,0,0)" />
	<circle cx="580.612" cy="294.898" r="1" fill="rgb(0,0,0)" />
	<circle cx="580.612" cy="152.041" r="1" fill="rgb(0,0,0)" />
	<circle cx="580.612" cy="131.633" r="1" fill="rgb(0,0,0)" />
	<circle cx="580.612" cy="111.224" r="1" fill="rgb(0,0,0)" />
	<circle cx="580.612" cy="70.4082" r="1" fill="rgb(0,0,0)" />
	<circle cx="601.02" cy="886.735" r="1" fill="rgb(0,0,0)" />
	<circle cx="601.02" cy="805.102" r="1" fill="rgb(0,0,0)" />
	<circle cx="601.02" cy="437.755" r="1" fill="rgb(0,0,0)" />
	<circle cx="601.02" cy="396.939" r="1" fill="rgb(0,0,0)" />
	<circle cx="601.02" cy="294.898" r="1" fill="rgb(0,0,0)" />
	<circle cx="601.02" cy="152.041" r="1" fill="rgb(0,0,0)" />
	<circle cx="601.02" cy="111.224" r="1" fill="rgb(0,0,0)" />
	<circle cx="601.02" cy="70.4082" r="1" fill="rgb(0,0,0)" />
	<circle cx="621.429" cy="886.735" r="1" fill="rgb(0,0,0)" />
	<circle cx="621.429" cy="805.102" r="1" fill="rgb(0,0,0)" />
	<circle cx="621.429" cy="560.204" r="1" fill="rgb(0,0,0)" />
	<circle cx="621.429" cy="539.796" r="1" fill="rgb(0,0,0)" />
	<circle cx="621.429" cy="498.98" r="1" fill="rgb(0,0,0)" />
	<circle cx="621.429" cy="437.755" r="1" fill="rgb(0,0,0)" />
	<circle cx="621.429" cy="396.939" r="1" fill="rgb(0,0,0)" />
	<circle cx="621.429" cy="294.898" r="1" fill="rgb(0,0,0)" />
	<circle cx="621.429" cy="152.041" r="1" fill="rgb(0,0,0)" />
	<circle cx="621.429" cy="90.8163" r="1" fill="rgb(0,0,0)" />
	<circle cx="641.837" cy="886.735" r="1" fill="rgb(0,0,0)" />
	<circle cx="641.837" cy="805.102" r="1" fill="rgb(0,0,0)" />
	<circle cx="641.837" cy="560.204" r="1" fill="rgb(0,0,0)" />
	<circle cx="641.837" cy="539.796" r="1" fill="rgb(0,0,0)" />
	<circle cx="641.837" cy="498.98" r="1" fill="rgb(0,0,0)" />
	<circle cx="641.837" cy="437.755" r="1" fill="rgb(0,0,0)" />
	<circle cx="641.837" cy="294.898" r="1" fill="rgb(0,0,0)" />
	<circle cx="641.837" cy="274.49" r="1" fill="rgb(0,0,0)" />
	<circle cx="641.837" cy="152.041" r="1" fill="rgb(0,0,0)" />
	<circle cx="641.837" cy="90.8163" r="1" fill="rgb(0,0,0)" />
	<circle cx="662.245" cy="886.735" r="1" fill="rgb(0,0,0)" />
	<circle cx="662.245" cy="805.102" r="1" fill="rgb(0,0,0)" />
	<circle cx="662.245" cy="437.755" r="1" fill="rgb(0,0,0)" />
	<circle cx="662.245" cy="396.939" r="1" fill="rgb(0,0,0)" />
	<circle cx="662.245" cy="376.531" r="1" fill="rgb(0,0,0)" />
	<circle cx="662.245" cy="356.122" r="1" fill="rgb(0,0,0)" />
	<circle cx="662.245" cy="294.898" r="1" fill="rgb(0,0,0)" />
	<circle cx="662.245" cy="274.49" r="1" fill="rgb(0,0,0)" />
	<circle cx="662.245" cy="152.041" r="1" fill="rgb(0,0,0)" />
	<circle cx="662.245" cy="90.8163" r="1" fill="rgb(0,0,0)" />
	<circle cx="682.653" cy="886.735" r="1" fill="rgb(0,0,0)" />
	<circle cx="682.653" cy="866.327" r="1" fill="rgb(0,0,0)" />
	<circle cx="682.653" cy="845.918" r="1" fill="rgb(0,0,0)" />
	<circle cx="682.653" cy="825.51" r="1" fill="rgb(0,0,0)" />
	<circle cx="682.653" cy="805.102" r="1" fill="rgb(0,0,0)" />
	<circle cx="682.653" cy="641.837" r="1" fill="rgb(0,0,0)" />
	<circle cx="682.653" cy="621.429" r="1" fill="rgb(0,0,0)" />
	<circle cx="682.653" cy="601.02" r="1" fill="rgb(0,0,0)" />
	<circle cx="682.653" cy="580.612" r="1" fill="rgb(0,0,0)" />
	<circle cx="682.653" cy="560.204" r="1" fill="rgb(0,0,0)" />
	<circle cx="682.653" cy="539.796" r="1" fill="rgb(0,0,0)" />
	<circle cx="682.653" cy="437.755" r="1" fill="rgb(0,0,0)" />
	<circle cx="682.653" cy="396.939" r="1" fill="rgb(0,0,0)" />
	<circle cx="682.653" cy="356.122" r="1" fill="rgb(0,0,0)" />
	<circle cx="682.653" cy="294.898" r="1" fill="rgb(0,0,0)" />
	<circle cx="682.653" cy="274.49" r="1" fill="rgb(0,0,0)" />
	<circle cx="682.653" cy="152.041" r="1" fill="rgb(0,0,0)" />
	<circle cx="682.653" cy="90.8163" r="1" fill="rgb(0,0,0)" />
	<circle cx="703.061" cy="641.837" r="1" fill="rgb(0,0,0)" />
	<circle cx="703.061" cy="621.429" r="1" fill="rgb(0,0,0)" />
	<circle cx="703.061" cy="601.02" r="1" fill="rgb(0,0,0)" />
	<circle cx="703.061" cy="580.612" r="1" fill="rgb(0,0,0)" />
	<circle cx="703.061" cy="560.204" r="1" fill="rgb(0,0,0)" />
	<circle cx="703.061" cy="539.796" r="1" fill="rgb(0,0,0)" />
	<circle cx="703.061" cy="437.755" r="1" fill="rgb(0,0,0)" />
	<circle cx="703.061" cy="417.347" r="1" fill="rgb(0,0,0)" />
	<circle cx="703.061" cy="356.122" r="1" fill="rgb(0,0,0)" />
	<circle cx="703.061" cy="294.898" r="1" fill="rgb(0,0,0)" />
	<circle cx="703.061" cy="274.49" r="1" fill="rgb(0,0,0)" />
	<circle cx="703.061" cy="152.041" r="1" fill="rgb(0,0,0)" />
	<circle cx="703.061" cy="90.8163" r="1" fill="rgb(0,0,0)" />
	<circle cx="723.469" cy="437.755" r="1" fill="rgb(0,0,0)" />
	<circle cx="723.469" cy="417.347" r="1" fill="rgb(0,0,0)" />
	<circle cx="723.469" cy="396.939" r="1" fill="rgb(0,0,0)" />
	<circle cx="723.469" cy="376.531" r="1" fill="rgb(0,0,0)" />
	<circle cx="723.469" cy="356.122" r="1" fill="rgb(0,0,0)" />
	<circle cx="723.469" cy="294.898" r="1" fill="rgb(0,0,0)" />
	<circle cx="723.469" cy="152.041" r="1" fill="rgb(0,0,0)" />
	<circle cx="723.469" cy="90.8163" r="1" fill="rgb(0,0,0)" />
	<circle cx="743.878" cy="152.041" r="1" fill="rgb(0,0,0)" />
	<circle cx="743.878" cy="90.8163" r="1" fill="rgb(0,0,0)" />
	<circle cx="764.286" cy="927.551" r="1" fill="rgb(0,0,0)" />
	<circle cx="764.286" cy="907.143" r="1" fill="rgb(0,0,0)" />
	<circle cx="764.286" cy="886.735" r="1" fill="rgb(0,0,0)" />
	<circle cx="764.286" cy="866.327" r="1" fill="rgb(0,0,0)" />
	<circle cx="764.286" cy="845.918" r="1" fill="rgb(0,0,0)" />
	<circle cx="764.286" cy="825.51" r="1" fill="rgb(0,0,0)" />
	<circle cx="764.286" cy="805.102" r="1" fill="rgb(0,0,0)" />
	<circle cx="764.286" cy="131.633" r="1" fill="rgb(0,0,0)" />
	<circle cx="764.286" cy="70.4082" r="1" fill="rgb(0,0,0)" />
	<circle cx="784.694" cy="1050" r="1" fill="rgb(0,0,0)" />
	<circle cx="784.694" cy="927.551" r="1" fill="rgb(0,0,0)" />
	<circle cx="784.694" cy="907.143" r="1" fill="rgb(0,0,0)" />
	<circle cx="784.694" cy="131.633" r="1" fill="rgb(0,0,0)" />
	<circle cx="784.694" cy="70.4082" r="1" fill="rgb(0,0,0)" />
	<circle cx="805.102" cy="1050" r="1" fill="rgb(0,0,0)" />
	<circle cx="805.102" cy="927.551" r="1" fill="rgb(0,0,0)" />
	<circle cx="805.102" cy="907.143" r="1" fill="rgb(0,0,0)" />
	<circle cx="805.102" cy="213.265" r="1" fill="rgb(0,0,0)" />
	<circle cx="805.102" cy="152.041" r="1" fill="rgb(0,0,0)" />
	<circle cx="805.102" cy="70.4082" r="1" fill="rgb(0,0,0)" />
	<circle cx="825.51" cy="1050" r="1" fill="rgb(0,0,0)" />
	<circle cx="825.51" cy="927.551" r="1" fill="rgb(0,0,0)" />
	<circle cx="825.51" cy="907.143" r="1" fill="rgb(0,0,0)" />
	<circle cx="825.51" cy="213.265" r="1" fill="rgb(0,0,0)" />
	<circle cx="825.51" cy="152.041" r="1" fill="rgb(0,0,0)" />
	<circle cx="825.51" cy="90.8163" r="1" fill="rgb(0,0,0)" />
	<circle cx="845.918" cy="1050" r="1" fill="rgb(0,0,0)" />
	<circle cx="845.918" cy="213.265" r="1" fill="rgb(0,0,0)" />
	<circle cx="845.918" cy="152.041" r="1" fill="rgb(0,0,0)" />
	<circle cx="845.918" cy="90.8163" r="1" fill="rgb(0,0,0)" />
	<circle cx="866.327" cy="1050" r="1" fill="rgb(0,0,0)" />
	<circle cx="866.327" cy="1029.59" r="1" fill="rgb(0,0,0)" />
	<circle cx="866.327" cy="988.776" r="1" fill="rgb(0,0,0)" />
	<circle cx="866.327" cy="968.367" r="1" fill="rgb(0,0,0)" />
	<circle cx="866.327" cy="947.959" r="1" fill="rgb(0,0,0)" />
	<circle cx="866.327" cy="927.551" r="1" fill="rgb(0,0,0)" />
	<circle cx="866.327" cy="907.143" r="1" fill="rgb(0,0,0)" />
	<circle cx="866.327" cy="213.265" r="1" fill="rgb(0,0,0)" />
	<circle cx="866.327" cy="152.041" r="1" fill="rgb(0,0,0)" />
	<circle cx="866.327" cy="90.8163" r="1" fill="rgb(0,0,0)" />
	<circle cx="886.735" cy="1050" r="1" fill="rgb(0,0,0)" />
	<circle cx="886.735" cy="1029.59" r="1" fill="rgb(0,0,0)" />
	<circle cx="886.735" cy="988.776" r="1" fill="rgb(0,0,0)" />
	<circle cx="886.735" cy="907.143" r="1" fill="rgb(0,0,0)" />
	<circle cx="886.735" cy="560.204" r="1" fill="rgb(0,0,0)" />
	<circle cx="886.735" cy="539.796" r="1" fill="rgb(0,0,0)" />
	<circle cx="886.735" cy="437.755" r="1" fill="rgb(0,0,0)" />
	<circle cx="886.735" cy="417.347" r="1" fill="rgb(0,0,0)" />
	<circle cx="886.735" cy="356.122" r="1" fill="rgb(0,0,0)" />
	<circle cx="886.735" cy="152.041" r="1" fill="rgb(0,0,0)" />
	<circle cx="886.735" cy="90.8163" r="1" fill="rgb(0,0,0)" />
	<circle cx="907.143" cy="1050" r="1" fill="rgb(0,0,0)" />
	<circle cx="907.143" cy="1029.59" r="1" fill="rgb(0,0,0)" />
	<circle cx="907.143" cy="988.776" r="1" fill="rgb(0,0,0)" />
	<circle cx="907.143" cy="907.143" r="1" fill="rgb(0,0,0)" />
	<circle cx="907.143" cy="866.327" r="1" fill="rgb(0,0,0)" />
	<circle cx="907.143" cy="845.918" r="1" fill="rgb(0,0,0)" />
	<circle cx="907.143" cy="825.51" r="1" fill="rgb(0,0,0)" />
	<circle cx="907.143" cy="560.204" r="1" fill="rgb(0,0,0)" />
	<circle cx="907.143" cy="539.796" r="1" fill="rgb(0,0,0)" />
	<circle cx="907.143" cy="437.755" r="1" fill="rgb(0,0,0)" />
	<circle cx="907.143" cy="417.347" r="1" fill="rgb(0,0,0)" />
	<circle cx="907.143" cy="356.122" r="1" fill="rgb(0,0,0)" />
	<circle cx="907.143" cy="172.449" r="1" fill="rgb(0,0,0)" />
	<circle cx="907.143" cy="152.041" r="1" fill="rgb(0,0,0)" />
	<circle cx="907.143" cy="131.633" r="1" fill="rgb(0,0,0)" />
	<circle cx="907.143" cy="111.224" r="1" fill="rgb(0,0,0)" />
	<circle cx="907.143" cy="90.8163" r="1" fill="rgb(0,0,0)" />
	<circle cx="927.551" cy="1050" r="1" fill="rgb(0,0,0)" />
	<circle cx="927.551" cy="1029.59" r="1" fill="rgb(0,0,0)" />
	<circle cx="927.551" cy="988.776" r="1" fill="rgb(0,0,0)" />
	<circle cx="927.551" cy="907.143" r="1" fill="rgb(0,0,0)" />
	<circle cx="927.551" cy="866.327" r="1" fill="rgb(0,0,0)" />
	<circle cx="927.551" cy="825.51" r="1" fill="rgb(0,0,0)" />
	<circle cx="927.551" cy="560.204" r="1" fill="rgb(0,0,0)" />
	<circle cx="927.551" cy="519.388" r="1" fill="rgb(0,0,0)" />
	<circle cx="927.551" cy="498.98" r="1" fill="rgb(0,0,0)" />
	<circle cx="927.551" cy="478.571" r="1" fill="rgb(0,0,0)" />
	<circle cx="927.551" cy="458.163" r="1" fill="rgb(0,0,0)" />
	<circle cx="927.551" cy="417.347" r="1" fill="rgb(0,0,0)" />
	<circle cx="927.551" cy="356.122" r="1" fill="rgb(0,0,0)" />
	<circle cx="947.959" cy="1050" r="1" fill="rgb(0,0,0)" />
	<circle cx="947.959" cy="1029.59" r="1" fill="rgb(0,0,0)" />
	<circle cx="947.959" cy="988.776" r="1" fill="rgb(0,0,0)" />
	<circle cx="947.959" cy="927.551" r="1" fill="rgb(0,0,0)" />
	<circle cx="947.959" cy="886.735" r="1" fill="rgb(0,0,0)" />
	<circle cx="947.959" cy="805.102" r="1" fill="rgb(0,0,0)" />
	<circle cx="947.959" cy="703.061" r="1" fill="rgb(0,0,0)" />
	<circle cx="947.959" cy="682.653" r="1" fill="rgb(0,0,0)" />
	<circle cx="947.959" cy="662.245" r="1" fill="rgb(0,0,0)" />
	<circle cx="947.959" cy="560.204" r="1" fill="rgb(0,0,0)" />
	<circle cx="947.959" cy="417.347" r="1" fill="rgb(0,0,0)" />
	<circle cx="947.959" cy="356.122" r="1" fill="rgb(0,0,0)" />
	<circle cx="968.367" cy="1050" r="1" fill="rgb(0,0,0)" />
	<circle cx="968.367" cy="1029.59" r="1" fill="rgb(0,0,0)" />
	<circle cx="968.367" cy="988.776" r="1" fill="rgb(0,0,0)" />
	<circle cx="968.367" cy="927.551" r="1" fill="rgb(0,0,0)" />
	<circle cx="968.367" cy="886.735" r="1" fill="rgb(0,0,0)" />
	<circle cx="968.367" cy="866.327" r="1" fill="rgb(0,0,0)" />
	<circle cx="968.367" cy="845.918" r="1" fill="rgb(0,0,0)" />
	<circle cx="968.367" cy="805.102" r="1" fill="rgb(0,0,0)" />
	<circle cx="968.367" cy="703.061" r="1" fill="rgb(0,0,0)" />
	<circle cx="968.367" cy="662.245" r="1" fill="rgb(0,0,0)" />
	<circle cx="968.367" cy="560.204" r="1" fill="rgb(0,0,0)" />
	<circle cx="968.367" cy="417.347" r="1" fill="rgb(0,0,0)" />
	<circle cx="968.367" cy="356.122" r="1" fill="rgb(0,0,0)" />
	<circle cx="968.367" cy="335.714" r="1" fill="rgb(0,0,0)" />
	<circle cx="968.367" cy="315.306" r="1" fill="rgb(0,0,0)" />
	<circle cx="968.367" cy="233.673" r="1" fill="rgb(0,0,0)" />
	<circle cx="968.367" cy="192.857" r="1" fill="rgb(0,0,0)" />
	<circle cx="968.367" cy="172.449" r="1" fill="rgb(0,0,0)" />
	<circle cx="968.367" cy="152.041" r="1" fill="rgb(0,0,0)" />
	<circle cx="968.367" cy="131.633" r="1" fill="rgb(0,0,0)" />
	<circle cx="968.367" cy="111.224" r="1" fill="rgb(0,0,0)" />
	<circle cx="968.367" cy="90.8163" r="1" fill="rgb(0,0,0)" />
	<circle cx="968.367" cy="70.4082" r="1" fill="rgb(0,0,0)" />
	<circle cx="968.367" cy="50" r="1" fill="rgb(0,0,0)" />
	<circle cx="988.776" cy="988.776" r="1" fill="rgb(0,0,0)" />
	<circle cx="988.776" cy="927.551" r="1" fill="rgb(0,0,0)" />
	<circle cx="988.776" cy="825.51" r="1" fill="rgb(0,0,0)" />
	<circle cx="988.776" cy="805.102" r="1" fill="rgb(0,0,0)" />
	<circle cx="988.776" cy="703.061" r="1" fill="rgb(0,0,0)" />
	<circle cx="988.776" cy="641.837" r="1" fill="rgb(0,0,0)" />
	<circle cx="988.776" cy="621.429" r="1" fill="rgb(0,0,0)" />
	<circle cx="988.776" cy="601.02" r="1" fill="rgb(0,0,0)" />
	<circle cx="988.776" cy="580.612" r="1" fill="rgb(0,0,0)" />
	<circle cx="988.776" cy="539.796" r="1" fill="rgb(0,0,0)" />
	<circle cx="988.776" cy="498.98" r="1" fill="rgb(0,0,0)" />
	<circle cx="988.776" cy="478.571" r="1" fill="rgb(0,0,0)" />
	<circle cx="988.776" cy="458.163" r="1" fill="rgb(0,0,0)" />
	<circle cx="988.776" cy="417.347" r="1" fill="rgb(0,0,0)" />
	<circle cx="988.776" cy="356.122" r="1" fill="rgb(0,0,0)" />
	<circle cx="988.776" cy="315.306" r="1" fill="rgb(0,0,0)" />
	<circle cx="988.776" cy="233.673" r="1" fill="rgb(0,0,0)" />
	<circle cx="988.776" cy="192.857" r="1" fill="rgb(0,0,0)" />
	<circle cx="988.776" cy="172.449" r="1" fill="rgb(0,0,0)" />
	<circle cx="988.776" cy="152.041" r="1" fill="rgb(0,0,0)" />
	<circle cx="988.776" cy="131.633" r="1" fill="rgb(0,0,0)" />
	<circle cx="988.776" cy="50" r="1" fill="rgb(0,0,0)" />
	<circle cx="1009.18" cy="988.776" r="1" fill="rgb(0,0,0)" />
	<circle cx="1009.18" cy="927.551" r="1" fill="rgb(0,0,0)" />
	<circle cx="1009.18" cy="825.51" r="1" fill="rgb(0,0,0)" />
	<circle cx="1009.18" cy="805.102" r="1" fill="rgb(0,0,0)" />
	<circle cx="1009.18" cy="703.061" r="1" fill="rgb(0,0,0)" />
	<circle cx="1009.18" cy="662.245" r="1" fill="rgb(0,0,0)" />
	<circle cx="1009.18" cy="641.837" r="1" fill="rgb(0,0,0)" />
	<circle cx="1009.18" cy="621.429" r="1" fill="rgb(0,0,0)" />
	<circle cx="1009.18" cy="601.02" r="1" fill="rgb(0,0,0)" />
	<circle cx="1009.18" cy="580.612" r="1" fill="rgb(0,0,0)" />
	<circle cx="1009.18" cy="539.796" r="1" fill="rgb(0,0,0)" />
	<circle cx="1009.18" cy="519.388" r="1" fill="rgb(0,0,0)" />
	<circle cx="1009.18" cy="437.755" r="1" fill="rgb(0,0,0)" />
	<circle cx="1009.18" cy="396.939" r="1" fill="rgb(0,0,0)" />
	<circle cx="1009.18" cy="376.531" r="1" fill="rgb(0,0,0)" />
	<circle cx="1009.18" cy="294.898" r="1" fill="rgb(0,0,0)" />
	<circle cx="1009.18" cy="274.49" r="1" fill="rgb(0,0,0)" />
	<circle cx="1009.18" cy="254.082" r="1" fill="rgb(0,0,0)" />
	<circle cx="1009.18" cy="111.224" r="1" fill="rgb(0,0,0)" />
	<circle cx="1009.18" cy="50" r="1" fill="rgb(0,0,0)" />
	<circle cx="1029.59" cy="988.776" r="1" fill="rgb(0,0,0)" />
	<circle cx="1029.59" cy="927.551" r="1" fill="rgb(0,0,0)" />
	<circle cx="1029.59" cy="825.51" r="1" fill="rgb(0,0,0)" />
	<circle cx="1029.59" cy="784.694" r="1" fill="rgb(0,0,0)" />
	<circle cx="1029.59" cy="764.286" r="1" fill="rgb(0,0,0)" />
	<circle cx="1029.59" cy="743.878" r="1" fill="rgb(0,0,0)" />
	<circle cx="1029.59" cy="723.469" r="1" fill="rgb(0,0,0)" />
	<circle cx="1029.59" cy="703.061" r="1" fill="rgb(0,0,0)" />
	<circle cx="1029.59" cy="682.653" r="1" fill="rgb(0,0,0)" />
	<circle cx="1029.59" cy="539.796" r="1" fill="rgb(0,0,0)" />
	<circle cx="1029.59" cy="519.388" r="1" fill="rgb(0,0,0)" />
	<circle cx="1029.59" cy="437.755" r="1" fill="rgb(0,0,0)" />
	<circle cx="1029.59" cy="417.347" r="1" fill="rgb(0,0,0)" />
	<circle cx="1029.59" cy="396.939" r="1" fill="rgb(0,0,0)" />
	<circle cx="1029.59" cy="376.531" r="1" fill="rgb(0,0,0)" />
	<circle cx="1029.59" cy="356.122" r="1" fill="rgb(0,0,0)" />
	<circle cx="1029.59" cy="335.714" r="1" fill="rgb(0,0,0)" />
	<circle cx="1029.59" cy="315.306" r="1" fill="rgb(0,0,0)" />
	<circle cx="1029.59" cy="294.898" r="1" fill="rgb(0,0,0)" />
	<circle cx="1029.59" cy="274.49" r="1" fill="rgb(0,0,0)" />
	<circle cx="1029.59" cy="254.082" r="1" fill="rgb(0,0,0)" />
	<circle cx="1029.59" cy="90.8163" r="1" fill="rgb(0,0,0)" />
	<circle cx="1029.59" cy="50" r="1" fill="rgb(0,0,0)" />
	<circle cx="1050" cy="1050" r="1" fill="rgb(0,0,0)" />
	<circle cx="1050" cy="1029.59" r="1" fill="rgb(0,0,0)" />
	<circle cx="1050" cy="1009.18" r="1" fill="rgb(0,0,0)" />
	<circle cx="1050" cy="988.776" r="1" fill="rgb(0,0,0)" />
	<circle cx="1050" cy="968.367" r="1" fill="rgb(0,0,0)" />
	<circle cx="1050" cy="947.959" r="1" fill="rgb(0,0,0)" />
	<circle cx="1050" cy="927.551" r="1" fill="rgb(0,0,0)" />
	<circle cx="1050" cy="825.51" r="1" fill="rgb(0,0,0)" />
	<circle cx="1050" cy="805.102" r="1" fill="rgb(0,0,0)" />
	<circle cx="1050" cy="784.694" r="1" fill="rgb(0,0,0)" />
	<circle cx="1050" cy="764.286" r="1" fill="rgb(0,0,0)" />
	<circle cx="1050" cy="743.878" r="1" fill="rgb(0,0,0)" />
	<circle cx="1050" cy="539.796" r="1" fill="rgb(0,0,0)" />
	<circle cx="1050" cy="519.388" r="1" fill="rgb(0,0,0)" />
	<circle cx="1050" cy="70.4082" r="1" fill="rgb(0,0,0)" />
	<circle cx="1050" cy="50" r="1" fill="rgb(0,0,0)" />
</svg>
