<?xml version="1.0" standalone="no" ?>
<!DOCTYPE svg PUBLIC "-//W3C//DTD SVG 1.1//EN" "http://www.w3.org/Graphics/SVG/1.1/DTD/svg11.dtd">
<svg width="1100px" height="1100px" xmlns="http://www.w3.org/2000/svg" version="1.1" >
	<circle cx="50" cy="83.3333" r="1" fill="rgb(0,0,0)" />
	<circle cx="50" cy="50" r="1" fill="rgb(0,0,0)" />
	<circle cx="83.3333" cy="716.667" r="1" fill="rgb(0,0,0)" />
	<circle cx="83.3333" cy="683.333" r="1" fill="rgb(0,0,0)" />
	<circle cx="83.3333" cy="516.667" r="1" fill="rgb(0,0,0)" />
	<circle cx="83.3333" cy="483.333" r="1" fill="rgb(0,0,0)" />
	<circle cx="83.3333" cy="450" r="1" fill="rgb(0,0,0)" />
	<circle cx="83.3333" cy="416.667" r="1" fill="rgb(0,0,0)" />
	<circle cx="83.3333" cy="383.333" r="1" fill="rgb(0,0,0)" />
	<circle cx="83.3333" cy="216.667" r="1" fill="rgb(0,0,0)" />
	<circle cx="83.3333" cy="183.333" r="1" fill="rgb(0,0,0)" />
	<circle cx="83.3333" cy="150" r="1" fill="rgb(0,0,0)" />
	<circle cx="83.3333" cy="116.667" r="1" fill="rgb(0,0,0)" />
	<circle cx="83.3333" cy="83.3333" r="1" fill="rgb(0,0,0)" />
	<circle cx="83.3333" cy="50" r="1" fill="rgb(0,0,0)" />
	<circle cx="116.667" cy="916.667" r="1" fill="rgb(0,0,0)" />
	<circle cx="116.667" cy="883.333" r="1" fill="rgb(0,0,0)" />
	<circle cx="116.667" cy="850" r="1" fill="rgb(0,0,0)" />
	<circle cx="116.667" cy="783.333" r="1" fill="rgb(0,0,0)" />
	<circle cx="116.667" cy="716.667" r="1" fill="rgb(0,0,0)" />
	<circle cx="116.667" cy="683.333" r="1" fill="rgb(0,0,0)" />
	<circle cx="116.667" cy="550" r="1" fill="rgb(0,0,0)" />
	<circle cx="116.667" cy="516.667" r="1" fill="rgb(0,0,0)" />
	<circle cx="116.667" cy="350" r="1" fill="rgb(0,0,0)" />
	<circle cx="116.667" cy="316.667" r="1" fill="rgb(0,0,0)" />
	<circle cx="116.667" cy="283.333" r="1" fill="rgb(0,0,0)" />
	<circle cx="116.667" cy="250" r="1" fill="rgb(0,0,0)" />
	<circle cx="150" cy="916.667" r="1" fill="rgb(0,0,0)" />
	<circle cx="150" cy="850" r="1" fill="rgb(0,0,0)" />
	<circle cx="150" cy="783.333" r="1" fill="rgb(0,0,0)" />
	<circle cx="150" cy="716.667" r="1" fill="rgb(0,0,0)" />
	<circle cx="150" cy="683.333" r="1" fill="rgb(0,0,0)" />
	<circle cx="150" cy="550" r="1" fill="rgb(0,0,0)" />
	<circle cx="150" cy="516.667" r="1" fill="rgb(0,0,0)" />
	<circle cx="150" cy="350" r="1" fill="rgb(0,0,0)" />
	<circle cx="150" cy="216.667" r="1" fill="rgb(0,0,0)" />
	<circle cx="150" cy="183.333" r="1" fill="rgb(0,0,0)" />
	<circle cx="150" cy="150" r="1" fill="rgb(0,0,0)" />
	<circle cx="150" cy="116.667" r="1" fill="rgb(0,0,0)" />
	<circle cx="150" cy="83.3333" r="1" fill="rgb(0,0,0)" />
	<circle cx="183.333" cy="916.667" r="1" fill="rgb(0,0,0)" />
	<circle cx="183.333" cy="816.667" r="1" fill="rgb(0,0,0)" />
	<circle cx="183.333" cy="750" r="1" fill="rgb(0,0,0)" />
	<circle cx="183.333" cy="683.333" r="1" fill="rgb(0,0,0)" />
	<circle cx="183.333" cy="583.333" r="1" fill="rgb(0,0,0)" />
	<circle cx="183.333" cy="550" r="1" fill="rgb(0,0,0)" />
	<circle cx="183.333" cy="350" r="1" fill="rgb(0,0,0)" />
	<circle cx="183.333" cy="50" r="1" fill="rgb(0,0,0)" />
	<circle cx="216.667" cy="1016.67" r="1" fill="rgb(0,0,0)" />
	<circle cx="216.667" cy="916.667" r="1" fill="rgb(0,0,0)" />
	<circle cx="216.667" cy="883.333" r="1" fill="rgb(0,0,0)" />
	<circle cx="216.667" cy="850" r="1" fill="rgb(0,0,0)" />
	<circle cx="216.667" cy="783.333" r="1" fill="rgb(0,0,0)" />
	<circle cx="216.667" cy="716.667" r="1" fill="rgb(0,0,0)" />
	<circle cx="216.667" cy="683.333" r="1" fill="rgb(0,0,0)" />
	<circle cx="216.667" cy="583.333" r="1" fill="rgb(0,0,0)" />
	<circle cx="216.667" cy="550" r="1" fill="rgb(0,0,0)" />
	<circle cx="216.667" cy="350" r="1" fill="rgb(0,0,0)" />
	<circle cx="216.667" cy="50" r="1" fill="rgb(0,0,0)" />
	<circle cx="250" cy="1016.67" r="1" fill="rgb(0,0,0)" />
	<circle cx="250" cy="983.333" r="1" fill="rgb(0,0,0)" />
	<circle cx="250" cy="950" r="1" fill="rgb(0,0,0)" />
	<circle cx="250" cy="816.667" r="1" fill="rgb(0,0,0)" />
	<circle cx="250" cy="750" r="1" fill="rgb(0,0,0)" />
	<circle cx="250" cy="650" r="1" fill="rgb(0,0,0)" />
	<circle cx="250" cy="616.667" r="1" fill="rgb(0,0,0)" />
	<circle cx="250" cy="550" r="1" fill="rgb(0,0,0)" />
	<circle cx="250" cy="350" r="1" fill="rgb(0,0,0)" />
	<circle cx="250" cy="183.333" r="1" fill="rgb(0,0,0)" />
	<circle cx="250" cy="150" r="1" fill="rgb(0,0,0)" />
	<circle cx="250" cy="116.667" r="1" fill="rgb(0,0,0)" />
	<circle cx="250" cy="83.3333" r="1" fill="rgb(0,0,0)" />
	<circle cx="250" cy="50" r="1" fill="rgb(0,0,0)" />
	<circle cx="283.333" cy="950" r="1" fill="rgb(0,0,0)" />
	<circle cx="283.333" cy="816.667" r="1" fill="rgb(0,0,0)" />
	<circle cx="283.333" cy="650" r="1" fill="rgb(0,0,0)" />
	<circle cx="283.333" cy="516.667" r="1" fill="rgb(0,0,0)" />
	<circle cx="283.333" cy="483.333" r="1" fill="rgb(0,0,0)" />
	<circle cx="283.333" cy="450" r="1" fill="rgb(0,0,0)" />
	<circle cx="283.333" cy="416.667" r="1" fill="rgb(0,0,0)" />
	<circle cx="283.333" cy="383.333" r="1" fill="rgb(0,0,0)" />
	<circle cx="283.333" cy="216.667" r="1" fill="rgb(0,0,0)" />
	<circle cx="283.333" cy="50" r="1" fill="rgb(0,0,0)" />
	<circle cx="316.667" cy="950" r="1" fill="rgb(0,0,0)" />
	<circle cx="316.667" cy="816.667" r="1" fill="rgb(0,0,0)" />
	<circle cx="316.667" cy="783.333" r="1" fill="rgb(0,0,0)" />
	<circle cx="316.667" cy="750" r="1" fill="rgb(0,0,0)" />
	<circle cx="316.667" cy="650" r="1" fill="rgb(0,0,0)" />
	<circle cx="316.667" cy="316.667" r="1" fill="rgb(0,0,0)" />
	<circle cx="316.667" cy="283.333" r="1" fill="rgb(0,0,0)" />
	<circle cx="316.667" cy="216.667" r="1" fill="rgb(0,0,0)" />
	<circle cx="350" cy="883.333" r="1" fill="rgb(0,0,0)" />
	<circle cx="350" cy="850" r="1" fill="rgb(0,0,0)" />
	<circle cx="350" cy="750" r="1" fill="rgb(0,0,0)" />
	<circle cx="350" cy="716.667" r="1" fill="rgb(0,0,0)" />
	<circle cx="350" cy="683.333" r="1" fill="rgb(0,0,0)" />
	<circle cx="350" cy="583.333" r="1" fill="rgb(0,0,0)" />
	<circle cx="350" cy="550" r="1" fill="rgb(0,0,0)" />
	<circle cx="350" cy="350" r="1" fill="rgb(0,0,0)" />
	<circle cx="350" cy="250" r="1" fill="rgb(0,0,0)" />
	<circle cx="350" cy="216.667" r="1" fill="rgb(0,0,0)" />
	<circle cx="350" cy="50" r="1" fill="rgb(0,0,0)" />
	<circle cx="383.333" cy="883.333" r="1" fill="rgb(0,0,0)" />
	<circle cx="383.333" cy="850" r="1" fill="rgb(0,0,0)" />
	<circle cx="383.333" cy="750" r="1" fill="rgb(0,0,0)" />
	<circle cx="383.333" cy="616.667" r="1" fill="rgb(0,0,0)" />
	<circle cx="383.333" cy="516.667" r="1" fill="rgb(0,0,0)" />
	<circle cx="383.333" cy="483.333" r="1" fill="rgb(0,0,0)" />
	<circle cx="383.333" cy="450" r="1" fill="rgb(0,0,0)" />
	<circle cx="383.333" cy="416.667" r="1" fill="rgb(0,0,0)" />
	<circle cx="383.333" cy="383.333" r="1" fill="rgb(0,0,0)" />
	<circle cx="383.333" cy="316.667" r="1" fill="rgb(0,0,0)" />
	<circle cx="383.333" cy="283.333" r="1" fill="rgb(0,0,0)" />
	<circle cx="383.333" cy="183.333" r="1" fill="rgb(0,0,0)" />
	<circle cx="383.333" cy="150" r="1" fill="rgb(0,0,0)" />
	<circle cx="383.333" cy="116.667" r="1" fill="rgb(0,0,0)" />
	<circle cx="383.333" cy="83.3333" r="1" fill="rgb(0,0,0)" />
	<circle cx="383.333" cy="50" r="1" fill="rgb(0,0,0)" />
	<circle cx="416.667" cy="883.333" r="1" fill="rgb(0,0,0)" />
	<circle cx="416.667" cy="850" r="1" fill="rgb(0,0,0)" />
	<circle cx="416.667" cy="750" r="1" fill="rgb(0,0,0)" />
	<circle cx="416.667" cy="616.667" r="1" fill="rgb(0,0,0)" />
	<circle cx="416.667" cy="350" r="1" fill="rgb(0,0,0)" />
	<circle cx="416.667" cy="83.3333" r="1" fill="rgb(0,0,0)" />
	<circle cx="450" cy="883.333" r="1" fill="rgb(0,0,0)" />
	<circle cx="450" cy="850" r="1" fill="rgb(0,0,0)" />
	<circle cx="450" cy="783.333" r="1" fill="rgb(0,0,0)" />
	<circle cx="450" cy="583.333" r="1" fill="rgb(0,0,0)" />
	<circle cx="450" cy="550" r="1" fill="rgb(0,0,0)" />
	<circle cx="450" cy="516.667" r="1" fill="rgb(0,0,0)" />
	<circle cx="450" cy="483.333" r="1" fill="rgb(0,0,0)" />
	<circle cx="450" cy="450" r="1" fill="rgb(0,0,0)" />
	<circle cx="450" cy="416.667" r="1" fill="rgb(0,0,0)" />
	<circle cx="450" cy="383.333" r="1" fill="rgb(0,0,0)" />
	<circle cx="450" cy="83.3333" r="1" fill="rgb(0,0,0)" />
	<circle cx="483.333" cy="883.333" r="1" fill="rgb(0,0,0)" />
	<circle cx="483.333" cy="850" r="1" fill="rgb(0,0,0)" />
	<circle cx="483.333" cy="783.333" r="1" fill="rgb(0,0,0)" />
	<circle cx="483.333" cy="583.333" r="1" fill="rgb(0,0,0)" />
	<circle cx="483.333" cy="550" r="1" fill="rgb(0,0,0)" />
	<circle cx="483.333" cy="516.667" r="1" fill="rgb(0,0,0)" />
	<circle cx="483.333" cy="483.333" r="1" fill="rgb(0,0,0)" />
	<circle cx="483.333" cy="450" r="1" fill="rgb(0,0,0)" />
	<circle cx="483.333" cy="416.667" r="1" fill="rgb(0,0,0)" />
	<circle cx="483.333" cy="50" r="1" fill="rgb(0,0,0)" />
	<circle cx="516.667" cy="783.333" r="1" fill="rgb(0,0,0)" />
	<circle cx="516.667" cy="616.667" r="1" fill="rgb(0,0,0)" />
	<circle cx="516.667" cy="383.333" r="1" fill="rgb(0,0,0)" />
	<circle cx="516.667" cy="350" r="1" fill="rgb(0,0,0)" />
	<circle cx="516.667" cy="50" r="1" fill="rgb(0,0,0)" />
	<circle cx="550" cy="783.333" r="1" fill="rgb(0,0,0)" />
	<circle cx="550" cy="583.333" r="1" fill="rgb(0,0,0)" />
	<circle cx="550" cy="316.667" r="1" fill="rgb(0,0,0)" />
	<circle cx="550" cy="50" r="1" fill="rgb(0,0,0)" />
	<circle cx="583.333" cy="1050" r="1" fill="rgb(0,0,0)" />
	<circle cx="583.333" cy="1016.67" r="1" fill="rgb(0,0,0)" />
	<circle cx="583.333" cy="950" r="1" fill="rgb(0,0,0)" />
	<circle cx="583.333" cy="916.667" r="1" fill="rgb(0,0,0)" />
	<circle cx="583.333" cy="883.333" r="1" fill="rgb(0,0,0)" />
	<circle cx="583.333" cy="783.333" r="1" fill="rgb(0,0,0)" />
	<circle cx="583.333" cy="716.667" r="1" fill="rgb(0,0,0)" />
	<circle cx="583.333" cy="683.333" r="1" fill="rgb(0,0,0)" />
	<circle cx="583.333" cy="650" r="1" fill="rgb(0,0,0)" />
	<circle cx="583.333" cy="616.667" r="1" fill="rgb(0,0,0)" />
	<circle cx="583.333" cy="583.333" r="1" fill="rgb(0,0,0)" />
	<circle cx="583.333" cy="550" r="1" fill="rgb(0,0,0)" />
	<circle cx="583.333" cy="316.667" r="1" fill="rgb(0,0,0)" />
	<circle cx="583.333" cy="50" r="1" fill="rgb(0,0,0)" />
	<circle cx="616.667" cy="1050" r="1" fill="rgb(0,0,0)" />
	<circle cx="616.667" cy="1016.67" r="1" fill="rgb(0,0,0)" />
	<circle cx="616.667" cy="950" r="1" fill="rgb(0,0,0)" />
	<circle cx="616.667" cy="883.333" r="1" fill="rgb(0,0,0)" />
	<circle cx="616.667" cy="783.333" r="1" fill="rgb(0,0,0)" />
	<circle cx="616.667" cy="750" r="1" fill="rgb(0,0,0)" />
	<circle cx="616.667" cy="316.667" r="1" fill="rgb(0,0,0)" />
	<circle cx="616.667" cy="283.333" r="1" fill="rgb(0,0,0)" />
	<circle cx="616.667" cy="250" r="1" fill="rgb(0,0,0)" />
	<circle cx="616.667" cy="216.667" r="1" fill="rgb(0,0,0)" />
	<circle cx="616.667" cy="83.3333" r="1" fill="rgb(0,0,0)" />
	<circle cx="616.667" cy="50" r="1" fill="rgb(0,0,0)" />
	<circle cx="650" cy="1050" r="1" fill="rgb(0,0,0)" />
	<circle cx="650" cy="1016.67" r="1" fill="rgb(0,0,0)" />
	<circle cx="650" cy="950" r="1" fill="rgb(0,0,0)" />
	<circle cx="650" cy="883.333" r="1" fill="rgb(0,0,0)" />
	<circle cx="650" cy="783.333" r="1" fill="rgb(0,0,0)" />
	<circle cx="650" cy="750" r="1" fill="rgb(0,0,0)" />
	<circle cx="650" cy="183.333" r="1" fill="rgb(0,0,0)" />
	<circle cx="650" cy="116.667" r="1" fill="rgb(0,0,0)" />
	<circle cx="650" cy="50" r="1" fill="rgb(0,0,0)" />
	<circle cx="683.333" cy="1050" r="1" fill="rgb(0,0,0)" />
	<circle cx="683.333" cy="1016.67" r="1" fill="rgb(0,0,0)" />
	<circle cx="683.333" cy="950" r="1" fill="rgb(0,0,0)" />
	<circle cx="683.333" cy="916.667" r="1" fill="rgb(0,0,0)" />
	<circle cx="683.333" cy="883.333" r="1" fill="rgb(0,0,0)" />
	<circle cx="683.333" cy="816.667" r="1" fill="rgb(0,0,0)" />
	<circle cx="683.333" cy="750" r="1" fill="rgb(0,0,0)" />
	<circle cx="683.333" cy="183.333" r="1" fill="rgb(0,0,0)" />
	<circle cx="683.333" cy="83.3333" r="1" fill="rgb(0,0,0)" />
	<circle cx="683.333" cy="50" r="1" fill="rgb(0,0,0)" />
	<circle cx="716.667" cy="1050" r="1" fill="rgb(0,0,0)" />
	<circle cx="716.667" cy="1016.67" r="1" fill="rgb(0,0,0)" />
	<circle cx="716.667" cy="950" r="1" fill="rgb(0,0,0)" />
	<circle cx="716.667" cy="883.333" r="1" fill="rgb(0,0,0)" />
	<circle cx="716.667" cy="816.667" r="1" fill="rgb(0,0,0)" />
	<circle cx="716.667" cy="750" r="1" fill="rgb(0,0,0)" />
	<circle cx="716.667" cy="650" r="1" fill="rgb(0,0,0)" />
	<circle cx="716.667" cy="616.667" r="1" fill="rgb(0,0,0)" />
	<circle cx="716.667" cy="583.333" r="1" fill="rgb(0,0,0)" />
	<circle cx="716.667" cy="550" r="1" fill="rgb(0,0,0)" />
	<circle cx="716.667" cy="516.667" r="1" fill="rgb(0,0,0)" />
	<circle cx="716.667" cy="483.333" r="1" fill="rgb(0,0,0)" />
	<circle cx="716.667" cy="450" r="1" fill="rgb(0,0,0)" />
	<circle cx="716.667" cy="416.667" r="1" fill="rgb(0,0,0)" />
	<circle cx="716.667" cy="383.333" r="1" fill="rgb(0,0,0)" />
	<circle cx="716.667" cy="350" r="1" fill="rgb(0,0,0)" />
	<circle cx="716.667" cy="183.333" r="1" fill="rgb(0,0,0)" />
	<circle cx="716.667" cy="50" r="1" fill="rgb(0,0,0)" />
	<circle cx="750" cy="1050" r="1" fill="rgb(0,0,0)" />
	<circle cx="750" cy="1016.67" r="1" fill="rgb(0,0,0)" />
	<circle cx="750" cy="950" r="1" fill="rgb(0,0,0)" />
	<circle cx="750" cy="816.667" r="1" fill="rgb(0,0,0)" />
	<circle cx="750" cy="750" r="1" fill="rgb(0,0,0)" />
	<circle cx="750" cy="683.333" r="1" fill="rgb(0,0,0)" />
	<circle cx="750" cy="350" r="1" fill="rgb(0,0,0)" />
	<circle cx="750" cy="216.667" r="1" fill="rgb(0,0,0)" />
	<circle cx="750" cy="50" r="1" fill="rgb(0,0,0)" />
	<circle cx="783.333" cy="1050" r="1" fill="rgb(0,0,0)" />
	<circle cx="783.333" cy="983.333" r="1" fill="rgb(0,0,0)" />
	<circle cx="783.333" cy="816.667" r="1" fill="rgb(0,0,0)" />
	<circle cx="783.333" cy="750" r="1" fill="rgb(0,0,0)" />
	<circle cx="783.333" cy="683.333" r="1" fill="rgb(0,0,0)" />
	<circle cx="783.333" cy="350" r="1" fill="rgb(0,0,0)" />
	<circle cx="783.333" cy="250" r="1" fill="rgb(0,0,0)" />
	<circle cx="783.333" cy="116.667" r="1" fill="rgb(0,0,0)" />
	<circle cx="783.333" cy="50" r="1" fill="rgb(0,0,0)" />
	<circle cx="816.667" cy="1050" r="1" fill="rgb(0,0,0)" />
	<circle cx="816.667" cy="1016.67" r="1" fill="rgb(0,0,0)" />
	<circle cx="816.667" cy="950" r="1" fill="rgb(0,0,0)" />
	<circle cx="816.667" cy="916.667" r="1" fill="rgb(0,0,0)" />
	<circle cx="816.667" cy="883.333" r="1" fill="rgb(0,0,0)" />
	<circle cx="816.667" cy="816.667" r="1" fill="rgb(0,0,0)" />
	<circle cx="816.667" cy="716.667" r="1" fill="rgb(0,0,0)" />
	<circle cx="816.667" cy="483.333" r="1" fill="rgb(0,0,0)" />
	<circle cx="816.667" cy="450" r="1" fill="rgb(0,0,0)" />
	<circle cx="816.667" cy="416.667" r="1" fill="rgb(0,0,0)" />
	<circle cx="816.667" cy="350" r="1" fill="rgb(0,0,0)" />
	<circle cx="816.667" cy="250" r="1" fill="rgb(0,0,0)" />
	<circle cx="816.667" cy="150" r="1" fill="rgb(0,0,0)" />
	<circle cx="816.667" cy="83.3333" r="1" fill="rgb(0,0,0)" />
	<circle cx="816.667" cy="50" r="1" fill="rgb(0,0,0)" />
	<circle cx="850" cy="983.333" r="1" fill="rgb(0,0,0)" />
	<circle cx="850" cy="916.667" r="1" fill="rgb(0,0,0)" />
	<circle cx="850" cy="883.333" r="1" fill="rgb(0,0,0)" />
	<circle cx="850" cy="816.667" r="1" fill="rgb(0,0,0)" />
	<circle cx="850" cy="716.667" r="1" fill="rgb(0,0,0)" />
	<circle cx="850" cy="683.333" r="1" fill="rgb(0,0,0)" />
	<circle cx="850" cy="650" r="1" fill="rgb(0,0,0)" />
	<circle cx="850" cy="616.667" r="1" fill="rgb(0,0,0)" />
	<circle cx="850" cy="583.333" r="1" fill="rgb(0,0,0)" />
	<circle cx="850" cy="550" r="1" fill="rgb(0,0,0)" />
	<circle cx="850" cy="516.667" r="1" fill="rgb(0,0,0)" />
	<circle cx="850" cy="383.333" r="1" fill="rgb(0,0,0)" />
	<circle cx="850" cy="316.667" r="1" fill="rgb(0,0,0)" />
	<circle cx="850" cy="283.333" r="1" fill="rgb(0,0,0)" />
	<circle cx="850" cy="150" r="1" fill="rgb(0,0,0)" />
	<circle cx="850" cy="83.3333" r="1" fill="rgb(0,0,0)" />
	<circle cx="850" cy="50" r="1" fill="rgb(0,0,0)" />
	<circle cx="883.333" cy="983.333" r="1" fill="rgb(0,0,0)" />
	<circle cx="883.333" cy="950" r="1" fill="rgb(0,0,0)" />
	<circle cx="883.333" cy="816.667" r="1" fill="rgb(0,0,0)" />
	<circle cx="883.333" cy="750" r="1" fill="rgb(0,0,0)" />
	<circle cx="883.333" cy="516.667" r="1" fill="rgb(0,0,0)" />
	<circle cx="883.333" cy="483.333" r="1" fill="rgb(0,0,0)" />
	<circle cx="883.333" cy="450" r="1" fill="rgb(0,0,0)" />
	<circle cx="883.333" cy="383.333" r="1" fill="rgb(0,0,0)" />
	<circle cx="883.333" cy="116.667" r="1" fill="rgb(0,0,0)" />
	<circle cx="883.333" cy="50" r="1" fill="rgb(0,0,0)" />
	<circle cx="916.667" cy="983.333" r="1" fill="rgb(0,0,0)" />
	<circle cx="916.667" cy="816.667" r="1" fill="rgb(0,0,0)" />
	<circle cx="916.667" cy="716.667" r="1" fill="rgb(0,0,0)" />
	<circle cx="916.667" cy="683.333" r="1" fill="rgb(0,0,0)" />
	<circle cx="916.667" cy="650" r="1" fill="rgb(0,0,0)" />
	<circle cx="916.667" cy="616.667" r="1" fill="rgb(0,0,0)" />
	<circle cx="916.667" cy="583.333" r="1" fill="rgb(0,0,0)" />
	<circle cx="916.667" cy="550" r="1" fill="rgb(0,0,0)" />
	<circle cx="916.667" cy="416.667" r="1" fill="rgb(0,0,0)" />
	<circle cx="916.667" cy="50" r="1" fill="rgb(0,0,0)" />
	<circle cx="950" cy="983.333" r="1" fill="rgb(0,0,0)" />
	<circle cx="950" cy="816.667" r="1" fill="rgb(0,0,0)" />
	<circle cx="950" cy="716.667" r="1" fill="rgb(0,0,0)" />
	<circle cx="950" cy="516.667" r="1" fill="rgb(0,0,0)" />
	<circle cx="950" cy="450" r="1" fill="rgb(0,0,0)" />
	<circle cx="950" cy="383.333" r="1" fill="rgb(0,0,0)" />
	<circle cx="950" cy="350" r="1" fill="rgb(0,0,0)" />
	<circle cx="950" cy="316.667" r="1" fill="rgb(0,0,0)" />
	<circle cx="950" cy="283.333" r="1" fill="rgb(0,0,0)" />
	<circle cx="950" cy="50" r="1" fill="rgb(0,0,0)" />
	<circle cx="983.333" cy="983.333" r="1" fill="rgb(0,0,0)" />
	<circle cx="983.333" cy="816.667" r="1" fill="rgb(0,0,0)" />
	<circle cx="983.333" cy="750" r="1" fill="rgb(0,0,0)" />
	<circle cx="983.333" cy="516.667" r="1" fill="rgb(0,0,0)" />
	<circle cx="983.333" cy="450" r="1" fill="rgb(0,0,0)" />
	<circle cx="983.333" cy="250" r="1" fill="rgb(0,0,0)" />
	<circle cx="983.333" cy="216.667" r="1" fill="rgb(0,0,0)" />
	<circle cx="983.333" cy="183.333" r="1" fill="rgb(0,0,0)" />
	<circle cx="983.333" cy="150" r="1" fill="rgb(0,0,0)" />
	<circle cx="983.333" cy="116.667" r="1" fill="rgb(0,0,0)" />
	<circle cx="983.333" cy="83.3333" r="1" fill="rgb(0,0,0)" />
	<circle cx="983.333" cy="50" r="1" fill="rgb(0,0,0)" />
	<circle cx="1016.67" cy="983.333" r="1" fill="rgb(0,0,0)" />
	<circle cx="1016.67" cy="816.667" r="1" fill="rgb(0,0,0)" />
	<circle cx="1016.67" cy="750" r="1" fill="rgb(0,0,0)" />
	<circle cx="1016.67" cy="683.333" r="1" fill="rgb(0,0,0)" />
	<circle cx="1016.67" cy="650" r="1" fill="rgb(0,0,0)" />
	<circle cx="1016.67" cy="616.667" r="1" fill="rgb(0,0,0)" />
	<circle cx="1016.67" cy="583.333" r="1" fill="rgb(0,0,0)" />
	<circle cx="1016.67" cy="550" r="1" fill="rgb(0,0,0)" />
	<circle cx="1016.67" cy="516.667" r="1" fill="rgb(0,0,0)" />
	<circle cx="1016.67" cy="483.333" r="1" fill="rgb(0,0,0)" />
	<circle cx="1016.67" cy="50" r="1" fill="rgb(0,0,0)" />
	<circle cx="1050" cy="983.333" r="1" fill="rgb(0,0,0)" />
	<circle cx="1050" cy="816.667" r="1" fill="rgb(0,0,0)" />
	<circle cx="1050" cy="783.333" r="1" fill="rgb(0,0,0)" />
	<circle cx="1050" cy="750" r="1" fill="rgb(0,0,0)" />
	<circle cx="1050" cy="683.333" r="1" fill="rgb(0,0,0)" />
	<circle cx="1050" cy="50" r="1" fill="rgb(0,0,0)" />
</svg>
