<?xml version="1.0" standalone="no" ?>
<!DOCTYPE svg PUBLIC "-//W3C//DTD SVG 1.1//EN" "http://www.w3.org/Graphics/SVG/1.1/DTD/svg11.dtd">
<svg width="1100px" height="1100px" xmlns="http://www.w3.org/2000/svg" version="1.1" >
	<circle cx="50" cy="1050" r="1" fill="rgb(0,0,0)" />
	<circle cx="50" cy="1025" r="1" fill="rgb(0,0,0)" />
	<circle cx="50" cy="1000" r="1" fill="rgb(0,0,0)" />
	<circle cx="50" cy="975" r="1" fill="rgb(0,0,0)" />
	<circle cx="50" cy="900" r="1" fill="rgb(0,0,0)" />
	<circle cx="50" cy="825" r="1" fill="rgb(0,0,0)" />
	<circle cx="50" cy="100" r="1" fill="rgb(0,0,0)" />
	<circle cx="50" cy="75" r="1" fill="rgb(0,0,0)" />
	<circle cx="50" cy="50" r="1" fill="rgb(0,0,0)" />
	<circle cx="75" cy="1050" r="1" fill="rgb(0,0,0)" />
	<circle cx="75" cy="975" r="1" fill="rgb(0,0,0)" />
	<circle cx="75" cy="900" r="1" fill="rgb(0,0,0)" />
	<circle cx="75" cy="875" r="1" fill="rgb(0,0,0)" />
	<circle cx="75" cy="850" r="1" fill="rgb(0,0,0)" />
	<circle cx="75" cy="775" r="1" fill="rgb(0,0,0)" />
	<circle cx="75" cy="750" r="1" fill="rgb(0,0,0)" />
	<circle cx="75" cy="725" r="1" fill="rgb(0,0,0)" />
	<circle cx="75" cy="100" r="1" fill="rgb(0,0,0)" />
	<circle cx="75" cy="50" r="1" fill="rgb(0,0,0)" />
	<circle cx="100" cy="1025" r="1" fill="rgb(0,0,0)" />
	<circle cx="100" cy="975" r="1" fill="rgb(0,0,0)" />
	<circle cx="100" cy="950" r="1" fill="rgb(0,0,0)" />
	<circle cx="100" cy="925" r="1" fill="rgb(0,0,0)" />
	<circle cx="100" cy="875" r="1" fill="rgb(0,0,0)" />
	<circle cx="100" cy="825" r="1" fill="rgb(0,0,0)" />
	<circle cx="100" cy="800" r="1" fill="rgb(0,0,0)" />
	<circle cx="100" cy="700" r="1" fill="rgb(0,0,0)" />
	<circle cx="100" cy="475" r="1" fill="rgb(0,0,0)" />
	<circle cx="100" cy="450" r="1" fill="rgb(0,0,0)" />
	<circle cx="100" cy="425" r="1" fill="rgb(0,0,0)" />
	<circle cx="100" cy="400" r="1" fill="rgb(0,0,0)" />
	<circle cx="100" cy="375" r="1" fill="rgb(0,0,0)" />
	<circle cx="100" cy="350" r="1" fill="rgb(0,0,0)" />
	<circle cx="100" cy="325" r="1" fill="rgb(0,0,0)" />
	<circle cx="100" cy="300" r="1" fill="rgb(0,0,0)" />
	<circle cx="100" cy="100" r="1" fill="rgb(0,0,0)" />
	<circle cx="100" cy="75" r="1" fill="rgb(0,0,0)" />
	<circle cx="100" cy="50" r="1" fill="rgb(0,0,0)" />
	<circle cx="125" cy="1025" r="1" fill="rgb(0,0,0)" />
	<circle cx="125" cy="1000" r="1" fill="rgb(0,0,0)" />
	<circle cx="125" cy="875" r="1" fill="rgb(0,0,0)" />
	<circle cx="125" cy="775" r="1" fill="rgb(0,0,0)" />
	<circle cx="125" cy="750" r="1" fill="rgb(0,0,0)" />
	<circle cx="125" cy="725" r="1" fill="rgb(0,0,0)" />
	<circle cx="125" cy="700" r="1" fill="rgb(0,0,0)" />
	<circle cx="125" cy="475" r="1" fill="rgb(0,0,0)" />
	<circle cx="125" cy="425" r="1" fill="rgb(0,0,0)" />
	<circle cx="125" cy="400" r="1" fill="rgb(0,0,0)" />
	<circle cx="125" cy="375" r="1" fill="rgb(0,0,0)" />
	<circle cx="125" cy="300" r="1" fill="rgb(0,0,0)" />
	<circle cx="150" cy="1025" r="1" fill="rgb(0,0,0)" />
	<circle cx="150" cy="975" r="1" fill="rgb(0,0,0)" />
	<circle cx="150" cy="950" r="1" fill="rgb(0,0,0)" />
	<circle cx="150" cy="925" r="1" fill="rgb(0,0,0)" />
	<circle cx="150" cy="900" r="1" fill="rgb(0,0,0)" />
	<circle cx="150" cy="700" r="1" fill="rgb(0,0,0)" />
	<circle cx="150" cy="475" r="1" fill="rgb(0,0,0)" />
	<circle cx="150" cy="450" r="1" fill="rgb(0,0,0)" />
	<circle cx="150" cy="350" r="1" fill="rgb(0,0,0)" />
	<circle cx="150" cy="300" r="1" fill="rgb(0,0,0)" />
	<circle cx="175" cy="1025" r="1" fill="rgb(0,0,0)" />
	<circle cx="175" cy="975" r="1" fill="rgb(0,0,0)" />
	<circle cx="175" cy="825" r="1" fill="rgb(0,0,0)" />
	<circle cx="175" cy="800" r="1" fill="rgb(0,0,0)" />
	<circle cx="175" cy="775" r="1" fill="rgb(0,0,0)" />
	<circle cx="175" cy="750" r="1" fill="rgb(0,0,0)" />
	<circle cx="175" cy="725" r="1" fill="rgb(0,0,0)" />
	<circle cx="175" cy="700" r="1" fill="rgb(0,0,0)" />
	<circle cx="175" cy="475" r="1" fill="rgb(0,0,0)" />
	<circle cx="175" cy="450" r="1" fill="rgb(0,0,0)" />
	<circle cx="175" cy="350" r="1" fill="rgb(0,0,0)" />
	<circle cx="175" cy="325" r="1" fill="rgb(0,0,0)" />
	<circle cx="175" cy="300" r="1" fill="rgb(0,0,0)" />
	<circle cx="200" cy="975" r="1" fill="rgb(0,0,0)" />
	<circle cx="200" cy="950" r="1" fill="rgb(0,0,0)" />
	<circle cx="200" cy="850" r="1" fill="rgb(0,0,0)" />
	<circle cx="200" cy="700" r="1" fill="rgb(0,0,0)" />
	<circle cx="200" cy="675" r="1" fill="rgb(0,0,0)" />
	<circle cx="200" cy="650" r="1" fill="rgb(0,0,0)" />
	<circle cx="200" cy="475" r="1" fill="rgb(0,0,0)" />
	<circle cx="200" cy="425" r="1" fill="rgb(0,0,0)" />
	<circle cx="200" cy="400" r="1" fill="rgb(0,0,0)" />
	<circle cx="200" cy="375" r="1" fill="rgb(0,0,0)" />
	<circle cx="200" cy="75" r="1" fill="rgb(0,0,0)" />
	<circle cx="200" cy="50" r="1" fill="rgb(0,0,0)" />
	<circle cx="225" cy="1000" r="1" fill="rgb(0,0,0)" />
	<circle cx="225" cy="925" r="1" fill="rgb(0,0,0)" />
	<circle cx="225" cy="850" r="1" fill="rgb(0,0,0)" />
	<circle cx="225" cy="700" r="1" fill="rgb(0,0,0)" />
	<circle cx="225" cy="650" r="1" fill="rgb(0,0,0)" />
	<circle cx="225" cy="475" r="1" fill="rgb(0,0,0)" />
	<circle cx="225" cy="375" r="1" fill="rgb(0,0,0)" />
	<circle cx="225" cy="75" r="1" fill="rgb(0,0,0)" />
	<circle cx="225" cy="50" r="1" fill="rgb(0,0,0)" />
	<circle cx="250" cy="1000" r="1" fill="rgb(0,0,0)" />
	<circle cx="250" cy="975" r="1" fill="rgb(0,0,0)" />
	<circle cx="250" cy="900" r="1" fill="rgb(0,0,0)" />
	<circle cx="250" cy="875" r="1" fill="rgb(0,0,0)" />
	<circle cx="250" cy="700" r="1" fill="rgb(0,0,0)" />
	<circle cx="250" cy="675" r="1" fill="rgb(0,0,0)" />
	<circle cx="250" cy="475" r="1" fill="rgb(0,0,0)" />
	<circle cx="250" cy="450" r="1" fill="rgb(0,0,0)" />
	<circle cx="250" cy="425" r="1" fill="rgb(0,0,0)" />
	<circle cx="250" cy="400" r="1" fill="rgb(0,0,0)" />
	<circle cx="250" cy="375" r="1" fill="rgb(0,0,0)" />
	<circle cx="250" cy="175" r="1" fill="rgb(0,0,0)" />
	<circle cx="250" cy="150" r="1" fill="rgb(0,0,0)" />
	<circle cx="250" cy="125" r="1" fill="rgb(0,0,0)" />
	<circle cx="250" cy="75" r="1" fill="rgb(0,0,0)" />
	<circle cx="275" cy="1000" r="1" fill="rgb(0,0,0)" />
	<circle cx="275" cy="950" r="1" fill="rgb(0,0,0)" />
	<circle cx="275" cy="925" r="1" fill="rgb(0,0,0)" />
	<circle cx="275" cy="900" r="1" fill="rgb(0,0,0)" />
	<circle cx="275" cy="875" r="1" fill="rgb(0,0,0)" />
	<circle cx="275" cy="700" r="1" fill="rgb(0,0,0)" />
	<circle cx="275" cy="650" r="1" fill="rgb(0,0,0)" />
	<circle cx="275" cy="625" r="1" fill="rgb(0,0,0)" />
	<circle cx="275" cy="600" r="1" fill="rgb(0,0,0)" />
	<circle cx="275" cy="575" r="1" fill="rgb(0,0,0)" />
	<circle cx="275" cy="525" r="1" fill="rgb(0,0,0)" />
	<circle cx="275" cy="500" r="1" fill="rgb(0,0,0)" />
	<circle cx="275" cy="350" r="1" fill="rgb(0,0,0)" />
	<circle cx="275" cy="325" r="1" fill="rgb(0,0,0)" />
	<circle cx="275" cy="300" r="1" fill="rgb(0,0,0)" />
	<circle cx="275" cy="275" r="1" fill="rgb(0,0,0)" />
	<circle cx="275" cy="250" r="1" fill="rgb(0,0,0)" />
	<circle cx="275" cy="225" r="1" fill="rgb(0,0,0)" />
	<circle cx="275" cy="200" r="1" fill="rgb(0,0,0)" />
	<circle cx="275" cy="150" r="1" fill="rgb(0,0,0)" />
	<circle cx="275" cy="125" r="1" fill="rgb(0,0,0)" />
	<circle cx="275" cy="75" r="1" fill="rgb(0,0,0)" />
	<circle cx="300" cy="1000" r="1" fill="rgb(0,0,0)" />
	<circle cx="300" cy="975" r="1" fill="rgb(0,0,0)" />
	<circle cx="300" cy="850" r="1" fill="rgb(0,0,0)" />
	<circle cx="300" cy="825" r="1" fill="rgb(0,0,0)" />
	<circle cx="300" cy="800" r="1" fill="rgb(0,0,0)" />
	<circle cx="300" cy="775" r="1" fill="rgb(0,0,0)" />
	<circle cx="300" cy="750" r="1" fill="rgb(0,0,0)" />
	<circle cx="300" cy="725" r="1" fill="rgb(0,0,0)" />
	<circle cx="300" cy="675" r="1" fill="rgb(0,0,0)" />
	<circle cx="300" cy="550" r="1" fill="rgb(0,0,0)" />
	<circle cx="300" cy="500" r="1" fill="rgb(0,0,0)" />
	<circle cx="300" cy="400" r="1" fill="rgb(0,0,0)" />
	<circle cx="300" cy="375" r="1" fill="rgb(0,0,0)" />
	<circle cx="300" cy="325" r="1" fill="rgb(0,0,0)" />
	<circle cx="300" cy="300" r="1" fill="rgb(0,0,0)" />
	<circle cx="300" cy="200" r="1" fill="rgb(0,0,0)" />
	<circle cx="300" cy="150" r="1" fill="rgb(0,0,0)" />
	<circle cx="300" cy="125" r="1" fill="rgb(0,0,0)" />
	<circle cx="300" cy="75" r="1" fill="rgb(0,0,0)" />
	<circle cx="325" cy="1000" r="1" fill="rgb(0,0,0)" />
	<circle cx="325" cy="975" r="1" fill="rgb(0,0,0)" />
	<circle cx="325" cy="850" r="1" fill="rgb(0,0,0)" />
	<circle cx="325" cy="725" r="1" fill="rgb(0,0,0)" />
	<circle cx="325" cy="675" r="1" fill="rgb(0,0,0)" />
	<circle cx="325" cy="550" r="1" fill="rgb(0,0,0)" />
	<circle cx="325" cy="525" r="1" fill="rgb(0,0,0)" />
	<circle cx="325" cy="500" r="1" fill="rgb(0,0,0)" />
	<circle cx="325" cy="400" r="1" fill="rgb(0,0,0)" />
	<circle cx="325" cy="350" r="1" fill="rgb(0,0,0)" />
	<circle cx="325" cy="275" r="1" fill="rgb(0,0,0)" />
	<circle cx="325" cy="250" r="1" fill="rgb(0,0,0)" />
	<circle cx="325" cy="225" r="1" fill="rgb(0,0,0)" />
	<circle cx="325" cy="200" r="1" fill="rgb(0,0,0)" />
	<circle cx="325" cy="175" r="1" fill="rgb(0,0,0)" />
	<circle cx="325" cy="150" r="1" fill="rgb(0,0,0)" />
	<circle cx="325" cy="125" r="1" fill="rgb(0,0,0)" />
	<circle cx="325" cy="100" r="1" fill="rgb(0,0,0)" />
	<circle cx="325" cy="50" r="1" fill="rgb(0,0,0)" />
	<circle cx="350" cy="1000" r="1" fill="rgb(0,0,0)" />
	<circle cx="350" cy="975" r="1" fill="rgb(0,0,0)" />
	<circle cx="350" cy="850" r="1" fill="rgb(0,0,0)" />
	<circle cx="350" cy="700" r="1" fill="rgb(0,0,0)" />
	<circle cx="350" cy="650" r="1" fill="rgb(0,0,0)" />
	<circle cx="350" cy="625" r="1" fill="rgb(0,0,0)" />
	<circle cx="350" cy="600" r="1" fill="rgb(0,0,0)" />
	<circle cx="350" cy="575" r="1" fill="rgb(0,0,0)" />
	<circle cx="350" cy="475" r="1" fill="rgb(0,0,0)" />
	<circle cx="350" cy="450" r="1" fill="rgb(0,0,0)" />
	<circle cx="350" cy="400" r="1" fill="rgb(0,0,0)" />
	<circle cx="350" cy="375" r="1" fill="rgb(0,0,0)" />
	<circle cx="350" cy="325" r="1" fill="rgb(0,0,0)" />
	<circle cx="350" cy="300" r="1" fill="rgb(0,0,0)" />
	<circle cx="350" cy="100" r="1" fill="rgb(0,0,0)" />
	<circle cx="375" cy="1000" r="1" fill="rgb(0,0,0)" />
	<circle cx="375" cy="975" r="1" fill="rgb(0,0,0)" />
	<circle cx="375" cy="850" r="1" fill="rgb(0,0,0)" />
	<circle cx="375" cy="775" r="1" fill="rgb(0,0,0)" />
	<circle cx="375" cy="750" r="1" fill="rgb(0,0,0)" />
	<circle cx="375" cy="725" r="1" fill="rgb(0,0,0)" />
	<circle cx="375" cy="700" r="1" fill="rgb(0,0,0)" />
	<circle cx="375" cy="650" r="1" fill="rgb(0,0,0)" />
	<circle cx="375" cy="575" r="1" fill="rgb(0,0,0)" />
	<circle cx="375" cy="475" r="1" fill="rgb(0,0,0)" />
	<circle cx="375" cy="450" r="1" fill="rgb(0,0,0)" />
	<circle cx="375" cy="400" r="1" fill="rgb(0,0,0)" />
	<circle cx="375" cy="375" r="1" fill="rgb(0,0,0)" />
	<circle cx="375" cy="325" r="1" fill="rgb(0,0,0)" />
	<circle cx="375" cy="300" r="1" fill="rgb(0,0,0)" />
	<circle cx="375" cy="250" r="1" fill="rgb(0,0,0)" />
	<circle cx="375" cy="225" r="1" fill="rgb(0,0,0)" />
	<circle cx="375" cy="100" r="1" fill="rgb(0,0,0)" />
	<circle cx="400" cy="1000" r="1" fill="rgb(0,0,0)" />
	<circle cx="400" cy="975" r="1" fill="rgb(0,0,0)" />
	<circle cx="400" cy="850" r="1" fill="rgb(0,0,0)" />
	<circle cx="400" cy="800" r="1" fill="rgb(0,0,0)" />
	<circle cx="400" cy="700" r="1" fill="rgb(0,0,0)" />
	<circle cx="400" cy="650" r="1" fill="rgb(0,0,0)" />
	<circle cx="400" cy="625" r="1" fill="rgb(0,0,0)" />
	<circle cx="400" cy="600" r="1" fill="rgb(0,0,0)" />
	<circle cx="400" cy="575" r="1" fill="rgb(0,0,0)" />
	<circle cx="400" cy="475" r="1" fill="rgb(0,0,0)" />
	<circle cx="400" cy="450" r="1" fill="rgb(0,0,0)" />
	<circle cx="400" cy="400" r="1" fill="rgb(0,0,0)" />
	<circle cx="400" cy="375" r="1" fill="rgb(0,0,0)" />
	<circle cx="400" cy="275" r="1" fill="rgb(0,0,0)" />
	<circle cx="400" cy="200" r="1" fill="rgb(0,0,0)" />
	<circle cx="400" cy="175" r="1" fill="rgb(0,0,0)" />
	<circle cx="400" cy="150" r="1" fill="rgb(0,0,0)" />
	<circle cx="400" cy="100" r="1" fill="rgb(0,0,0)" />
	<circle cx="425" cy="1000" r="1" fill="rgb(0,0,0)" />
	<circle cx="425" cy="975" r="1" fill="rgb(0,0,0)" />
	<circle cx="425" cy="850" r="1" fill="rgb(0,0,0)" />
	<circle cx="425" cy="800" r="1" fill="rgb(0,0,0)" />
	<circle cx="425" cy="675" r="1" fill="rgb(0,0,0)" />
	<circle cx="425" cy="550" r="1" fill="rgb(0,0,0)" />
	<circle cx="425" cy="525" r="1" fill="rgb(0,0,0)" />
	<circle cx="425" cy="500" r="1" fill="rgb(0,0,0)" />
	<circle cx="425" cy="400" r="1" fill="rgb(0,0,0)" />
	<circle cx="425" cy="375" r="1" fill="rgb(0,0,0)" />
	<circle cx="425" cy="275" r="1" fill="rgb(0,0,0)" />
	<circle cx="425" cy="200" r="1" fill="rgb(0,0,0)" />
	<circle cx="425" cy="150" r="1" fill="rgb(0,0,0)" />
	<circle cx="425" cy="100" r="1" fill="rgb(0,0,0)" />
	<circle cx="450" cy="1000" r="1" fill="rgb(0,0,0)" />
	<circle cx="450" cy="975" r="1" fill="rgb(0,0,0)" />
	<circle cx="450" cy="850" r="1" fill="rgb(0,0,0)" />
	<circle cx="450" cy="825" r="1" fill="rgb(0,0,0)" />
	<circle cx="450" cy="800" r="1" fill="rgb(0,0,0)" />
	<circle cx="450" cy="725" r="1" fill="rgb(0,0,0)" />
	<circle cx="450" cy="700" r="1" fill="rgb(0,0,0)" />
	<circle cx="450" cy="675" r="1" fill="rgb(0,0,0)" />
	<circle cx="450" cy="550" r="1" fill="rgb(0,0,0)" />
	<circle cx="450" cy="500" r="1" fill="rgb(0,0,0)" />
	<circle cx="450" cy="400" r="1" fill="rgb(0,0,0)" />
	<circle cx="450" cy="375" r="1" fill="rgb(0,0,0)" />
	<circle cx="450" cy="275" r="1" fill="rgb(0,0,0)" />
	<circle cx="450" cy="200" r="1" fill="rgb(0,0,0)" />
	<circle cx="450" cy="125" r="1" fill="rgb(0,0,0)" />
	<circle cx="475" cy="1025" r="1" fill="rgb(0,0,0)" />
	<circle cx="475" cy="1000" r="1" fill="rgb(0,0,0)" />
	<circle cx="475" cy="950" r="1" fill="rgb(0,0,0)" />
	<circle cx="475" cy="925" r="1" fill="rgb(0,0,0)" />
	<circle cx="475" cy="900" r="1" fill="rgb(0,0,0)" />
	<circle cx="475" cy="875" r="1" fill="rgb(0,0,0)" />
	<circle cx="475" cy="725" r="1" fill="rgb(0,0,0)" />
	<circle cx="475" cy="700" r="1" fill="rgb(0,0,0)" />
	<circle cx="475" cy="675" r="1" fill="rgb(0,0,0)" />
	<circle cx="475" cy="550" r="1" fill="rgb(0,0,0)" />
	<circle cx="475" cy="475" r="1" fill="rgb(0,0,0)" />
	<circle cx="475" cy="450" r="1" fill="rgb(0,0,0)" />
	<circle cx="475" cy="425" r="1" fill="rgb(0,0,0)" />
	<circle cx="475" cy="400" r="1" fill="rgb(0,0,0)" />
	<circle cx="475" cy="375" r="1" fill="rgb(0,0,0)" />
	<circle cx="475" cy="275" r="1" fill="rgb(0,0,0)" />
	<circle cx="475" cy="200" r="1" fill="rgb(0,0,0)" />
	<circle cx="475" cy="175" r="1" fill="rgb(0,0,0)" />
	<circle cx="475" cy="150" r="1" fill="rgb(0,0,0)" />
	<circle cx="475" cy="125" r="1" fill="rgb(0,0,0)" />
	<circle cx="475" cy="75" r="1" fill="rgb(0,0,0)" />
	<circle cx="475" cy="50" r="1" fill="rgb(0,0,0)" />
	<circle cx="500" cy="975" r="1" fill="rgb(0,0,0)" />
	<circle cx="500" cy="850" r="1" fill="rgb(0,0,0)" />
	<circle cx="500" cy="825" r="1" fill="rgb(0,0,0)" />
	<circle cx="500" cy="800" r="1" fill="rgb(0,0,0)" />
	<circle cx="500" cy="775" r="1" fill="rgb(0,0,0)" />
	<circle cx="500" cy="750" r="1" fill="rgb(0,0,0)" />
	<circle cx="500" cy="550" r="1" fill="rgb(0,0,0)" />
	<circle cx="500" cy="525" r="1" fill="rgb(0,0,0)" />
	<circle cx="500" cy="500" r="1" fill="rgb(0,0,0)" />
	<circle cx="500" cy="475" r="1" fill="rgb(0,0,0)" />
	<circle cx="500" cy="450" r="1" fill="rgb(0,0,0)" />
	<circle cx="500" cy="425" r="1" fill="rgb(0,0,0)" />
	<circle cx="500" cy="375" r="1" fill="rgb(0,0,0)" />
	<circle cx="500" cy="275" r="1" fill="rgb(0,0,0)" />
	<circle cx="500" cy="75" r="1" fill="rgb(0,0,0)" />
	<circle cx="525" cy="975" r="1" fill="rgb(0,0,0)" />
	<circle cx="525" cy="900" r="1" fill="rgb(0,0,0)" />
	<circle cx="525" cy="875" r="1" fill="rgb(0,0,0)" />
	<circle cx="525" cy="850" r="1" fill="rgb(0,0,0)" />
	<circle cx="525" cy="825" r="1" fill="rgb(0,0,0)" />
	<circle cx="525" cy="725" r="1" fill="rgb(0,0,0)" />
	<circle cx="525" cy="700" r="1" fill="rgb(0,0,0)" />
	<circle cx="525" cy="675" r="1" fill="rgb(0,0,0)" />
	<circle cx="525" cy="650" r="1" fill="rgb(0,0,0)" />
	<circle cx="525" cy="625" r="1" fill="rgb(0,0,0)" />
	<circle cx="525" cy="600" r="1" fill="rgb(0,0,0)" />
	<circle cx="525" cy="575" r="1" fill="rgb(0,0,0)" />
	<circle cx="525" cy="400" r="1" fill="rgb(0,0,0)" />
	<circle cx="525" cy="350" r="1" fill="rgb(0,0,0)" />
	<circle cx="525" cy="325" r="1" fill="rgb(0,0,0)" />
	<circle cx="525" cy="300" r="1" fill="rgb(0,0,0)" />
	<circle cx="525" cy="250" r="1" fill="rgb(0,0,0)" />
	<circle cx="525" cy="225" r="1" fill="rgb(0,0,0)" />
	<circle cx="525" cy="200" r="1" fill="rgb(0,0,0)" />
	<circle cx="525" cy="175" r="1" fill="rgb(0,0,0)" />
	<circle cx="525" cy="150" r="1" fill="rgb(0,0,0)" />
	<circle cx="525" cy="125" r="1" fill="rgb(0,0,0)" />
	<circle cx="525" cy="100" r="1" fill="rgb(0,0,0)" />
	<circle cx="525" cy="50" r="1" fill="rgb(0,0,0)" />
	<circle cx="550" cy="975" r="1" fill="rgb(0,0,0)" />
	<circle cx="550" cy="950" r="1" fill="rgb(0,0,0)" />
	<circle cx="550" cy="925" r="1" fill="rgb(0,0,0)" />
	<circle cx="550" cy="800" r="1" fill="rgb(0,0,0)" />
	<circle cx="550" cy="725" r="1" fill="rgb(0,0,0)" />
	<circle cx="550" cy="700" r="1" fill="rgb(0,0,0)" />
	<circle cx="550" cy="650" r="1" fill="rgb(0,0,0)" />
	<circle cx="550" cy="625" r="1" fill="rgb(0,0,0)" />
	<circle cx="550" cy="600" r="1" fill="rgb(0,0,0)" />
	<circle cx="550" cy="575" r="1" fill="rgb(0,0,0)" />
	<circle cx="550" cy="400" r="1" fill="rgb(0,0,0)" />
	<circle cx="550" cy="350" r="1" fill="rgb(0,0,0)" />
	<circle cx="550" cy="300" r="1" fill="rgb(0,0,0)" />
	<circle cx="550" cy="250" r="1" fill="rgb(0,0,0)" />
	<circle cx="550" cy="100" r="1" fill="rgb(0,0,0)" />
	<circle cx="550" cy="50" r="1" fill="rgb(0,0,0)" />
	<circle cx="575" cy="850" r="1" fill="rgb(0,0,0)" />
	<circle cx="575" cy="825" r="1" fill="rgb(0,0,0)" />
	<circle cx="575" cy="800" r="1" fill="rgb(0,0,0)" />
	<circle cx="575" cy="750" r="1" fill="rgb(0,0,0)" />
	<circle cx="575" cy="675" r="1" fill="rgb(0,0,0)" />
	<circle cx="575" cy="550" r="1" fill="rgb(0,0,0)" />
	<circle cx="575" cy="525" r="1" fill="rgb(0,0,0)" />
	<circle cx="575" cy="500" r="1" fill="rgb(0,0,0)" />
	<circle cx="575" cy="400" r="1" fill="rgb(0,0,0)" />
	<circle cx="575" cy="350" r="1" fill="rgb(0,0,0)" />
	<circle cx="575" cy="300" r="1" fill="rgb(0,0,0)" />
	<circle cx="575" cy="250" r="1" fill="rgb(0,0,0)" />
	<circle cx="575" cy="100" r="1" fill="rgb(0,0,0)" />
	<circle cx="575" cy="50" r="1" fill="rgb(0,0,0)" />
	<circle cx="600" cy="925" r="1" fill="rgb(0,0,0)" />
	<circle cx="600" cy="900" r="1" fill="rgb(0,0,0)" />
	<circle cx="600" cy="875" r="1" fill="rgb(0,0,0)" />
	<circle cx="600" cy="775" r="1" fill="rgb(0,0,0)" />
	<circle cx="600" cy="750" r="1" fill="rgb(0,0,0)" />
	<circle cx="600" cy="675" r="1" fill="rgb(0,0,0)" />
	<circle cx="600" cy="550" r="1" fill="rgb(0,0,0)" />
	<circle cx="600" cy="475" r="1" fill="rgb(0,0,0)" />
	<circle cx="600" cy="400" r="1" fill="rgb(0,0,0)" />
	<circle cx="600" cy="325" r="1" fill="rgb(0,0,0)" />
	<circle cx="600" cy="300" r="1" fill="rgb(0,0,0)" />
	<circle cx="600" cy="250" r="1" fill="rgb(0,0,0)" />
	<circle cx="600" cy="150" r="1" fill="rgb(0,0,0)" />
	<circle cx="600" cy="125" r="1" fill="rgb(0,0,0)" />
	<circle cx="600" cy="100" r="1" fill="rgb(0,0,0)" />
	<circle cx="600" cy="50" r="1" fill="rgb(0,0,0)" />
	<circle cx="625" cy="1025" r="1" fill="rgb(0,0,0)" />
	<circle cx="625" cy="1000" r="1" fill="rgb(0,0,0)" />
	<circle cx="625" cy="925" r="1" fill="rgb(0,0,0)" />
	<circle cx="625" cy="875" r="1" fill="rgb(0,0,0)" />
	<circle cx="625" cy="775" r="1" fill="rgb(0,0,0)" />
	<circle cx="625" cy="750" r="1" fill="rgb(0,0,0)" />
	<circle cx="625" cy="675" r="1" fill="rgb(0,0,0)" />
	<circle cx="625" cy="600" r="1" fill="rgb(0,0,0)" />
	<circle cx="625" cy="575" r="1" fill="rgb(0,0,0)" />
	<circle cx="625" cy="475" r="1" fill="rgb(0,0,0)" />
	<circle cx="625" cy="400" r="1" fill="rgb(0,0,0)" />
	<circle cx="625" cy="325" r="1" fill="rgb(0,0,0)" />
	<circle cx="625" cy="300" r="1" fill="rgb(0,0,0)" />
	<circle cx="625" cy="250" r="1" fill="rgb(0,0,0)" />
	<circle cx="625" cy="175" r="1" fill="rgb(0,0,0)" />
	<circle cx="625" cy="75" r="1" fill="rgb(0,0,0)" />
	<circle cx="650" cy="1025" r="1" fill="rgb(0,0,0)" />
	<circle cx="650" cy="1000" r="1" fill="rgb(0,0,0)" />
	<circle cx="650" cy="925" r="1" fill="rgb(0,0,0)" />
	<circle cx="650" cy="900" r="1" fill="rgb(0,0,0)" />
	<circle cx="650" cy="875" r="1" fill="rgb(0,0,0)" />
	<circle cx="650" cy="775" r="1" fill="rgb(0,0,0)" />
	<circle cx="650" cy="725" r="1" fill="rgb(0,0,0)" />
	<circle cx="650" cy="700" r="1" fill="rgb(0,0,0)" />
	<circle cx="650" cy="675" r="1" fill="rgb(0,0,0)" />
	<circle cx="650" cy="600" r="1" fill="rgb(0,0,0)" />
	<circle cx="650" cy="575" r="1" fill="rgb(0,0,0)" />
	<circle cx="650" cy="550" r="1" fill="rgb(0,0,0)" />
	<circle cx="650" cy="475" r="1" fill="rgb(0,0,0)" />
	<circle cx="650" cy="350" r="1" fill="rgb(0,0,0)" />
	<circle cx="650" cy="275" r="1" fill="rgb(0,0,0)" />
	<circle cx="650" cy="225" r="1" fill="rgb(0,0,0)" />
	<circle cx="650" cy="175" r="1" fill="rgb(0,0,0)" />
	<circle cx="650" cy="75" r="1" fill="rgb(0,0,0)" />
	<circle cx="675" cy="975" r="1" fill="rgb(0,0,0)" />
	<circle cx="675" cy="950" r="1" fill="rgb(0,0,0)" />
	<circle cx="675" cy="775" r="1" fill="rgb(0,0,0)" />
	<circle cx="675" cy="675" r="1" fill="rgb(0,0,0)" />
	<circle cx="675" cy="525" r="1" fill="rgb(0,0,0)" />
	<circle cx="675" cy="500" r="1" fill="rgb(0,0,0)" />
	<circle cx="675" cy="450" r="1" fill="rgb(0,0,0)" />
	<circle cx="675" cy="425" r="1" fill="rgb(0,0,0)" />
	<circle cx="675" cy="400" r="1" fill="rgb(0,0,0)" />
	<circle cx="675" cy="375" r="1" fill="rgb(0,0,0)" />
	<circle cx="675" cy="350" r="1" fill="rgb(0,0,0)" />
	<circle cx="675" cy="225" r="1" fill="rgb(0,0,0)" />
	<circle cx="675" cy="200" r="1" fill="rgb(0,0,0)" />
	<circle cx="675" cy="175" r="1" fill="rgb(0,0,0)" />
	<circle cx="675" cy="75" r="1" fill="rgb(0,0,0)" />
	<circle cx="700" cy="975" r="1" fill="rgb(0,0,0)" />
	<circle cx="700" cy="950" r="1" fill="rgb(0,0,0)" />
	<circle cx="700" cy="775" r="1" fill="rgb(0,0,0)" />
	<circle cx="700" cy="675" r="1" fill="rgb(0,0,0)" />
	<circle cx="700" cy="575" r="1" fill="rgb(0,0,0)" />
	<circle cx="700" cy="475" r="1" fill="rgb(0,0,0)" />
	<circle cx="700" cy="350" r="1" fill="rgb(0,0,0)" />
	<circle cx="700" cy="150" r="1" fill="rgb(0,0,0)" />
	<circle cx="700" cy="125" r="1" fill="rgb(0,0,0)" />
	<circle cx="700" cy="100" r="1" fill="rgb(0,0,0)" />
	<circle cx="700" cy="50" r="1" fill="rgb(0,0,0)" />
	<circle cx="725" cy="1050" r="1" fill="rgb(0,0,0)" />
	<circle cx="725" cy="975" r="1" fill="rgb(0,0,0)" />
	<circle cx="725" cy="925" r="1" fill="rgb(0,0,0)" />
	<circle cx="725" cy="900" r="1" fill="rgb(0,0,0)" />
	<circle cx="725" cy="875" r="1" fill="rgb(0,0,0)" />
	<circle cx="725" cy="850" r="1" fill="rgb(0,0,0)" />
	<circle cx="725" cy="825" r="1" fill="rgb(0,0,0)" />
	<circle cx="725" cy="775" r="1" fill="rgb(0,0,0)" />
	<circle cx="725" cy="650" r="1" fill="rgb(0,0,0)" />
	<circle cx="725" cy="625" r="1" fill="rgb(0,0,0)" />
	<circle cx="725" cy="600" r="1" fill="rgb(0,0,0)" />
	<circle cx="725" cy="575" r="1" fill="rgb(0,0,0)" />
	<circle cx="725" cy="475" r="1" fill="rgb(0,0,0)" />
	<circle cx="725" cy="400" r="1" fill="rgb(0,0,0)" />
	<circle cx="725" cy="375" r="1" fill="rgb(0,0,0)" />
	<circle cx="725" cy="150" r="1" fill="rgb(0,0,0)" />
	<circle cx="725" cy="50" r="1" fill="rgb(0,0,0)" />
	<circle cx="750" cy="1050" r="1" fill="rgb(0,0,0)" />
	<circle cx="750" cy="975" r="1" fill="rgb(0,0,0)" />
	<circle cx="750" cy="900" r="1" fill="rgb(0,0,0)" />
	<circle cx="750" cy="875" r="1" fill="rgb(0,0,0)" />
	<circle cx="750" cy="825" r="1" fill="rgb(0,0,0)" />
	<circle cx="750" cy="775" r="1" fill="rgb(0,0,0)" />
	<circle cx="750" cy="575" r="1" fill="rgb(0,0,0)" />
	<circle cx="750" cy="475" r="1" fill="rgb(0,0,0)" />
	<circle cx="750" cy="400" r="1" fill="rgb(0,0,0)" />
	<circle cx="750" cy="375" r="1" fill="rgb(0,0,0)" />
	<circle cx="750" cy="150" r="1" fill="rgb(0,0,0)" />
	<circle cx="750" cy="50" r="1" fill="rgb(0,0,0)" />
	<circle cx="775" cy="1000" r="1" fill="rgb(0,0,0)" />
	<circle cx="775" cy="925" r="1" fill="rgb(0,0,0)" />
	<circle cx="775" cy="850" r="1" fill="rgb(0,0,0)" />
	<circle cx="775" cy="800" r="1" fill="rgb(0,0,0)" />
	<circle cx="775" cy="775" r="1" fill="rgb(0,0,0)" />
	<circle cx="775" cy="750" r="1" fill="rgb(0,0,0)" />
	<circle cx="775" cy="575" r="1" fill="rgb(0,0,0)" />
	<circle cx="775" cy="450" r="1" fill="rgb(0,0,0)" />
	<circle cx="775" cy="425" r="1" fill="rgb(0,0,0)" />
	<circle cx="775" cy="350" r="1" fill="rgb(0,0,0)" />
	<circle cx="775" cy="250" r="1" fill="rgb(0,0,0)" />
	<circle cx="775" cy="225" r="1" fill="rgb(0,0,0)" />
	<circle cx="775" cy="150" r="1" fill="rgb(0,0,0)" />
	<circle cx="775" cy="50" r="1" fill="rgb(0,0,0)" />
	<circle cx="800" cy="1000" r="1" fill="rgb(0,0,0)" />
	<circle cx="800" cy="975" r="1" fill="rgb(0,0,0)" />
	<circle cx="800" cy="950" r="1" fill="rgb(0,0,0)" />
	<circle cx="800" cy="925" r="1" fill="rgb(0,0,0)" />
	<circle cx="800" cy="850" r="1" fill="rgb(0,0,0)" />
	<circle cx="800" cy="800" r="1" fill="rgb(0,0,0)" />
	<circle cx="800" cy="725" r="1" fill="rgb(0,0,0)" />
	<circle cx="800" cy="550" r="1" fill="rgb(0,0,0)" />
	<circle cx="800" cy="525" r="1" fill="rgb(0,0,0)" />
	<circle cx="800" cy="500" r="1" fill="rgb(0,0,0)" />
	<circle cx="800" cy="450" r="1" fill="rgb(0,0,0)" />
	<circle cx="800" cy="425" r="1" fill="rgb(0,0,0)" />
	<circle cx="800" cy="350" r="1" fill="rgb(0,0,0)" />
	<circle cx="800" cy="325" r="1" fill="rgb(0,0,0)" />
	<circle cx="800" cy="300" r="1" fill="rgb(0,0,0)" />
	<circle cx="800" cy="275" r="1" fill="rgb(0,0,0)" />
	<circle cx="800" cy="225" r="1" fill="rgb(0,0,0)" />
	<circle cx="800" cy="175" r="1" fill="rgb(0,0,0)" />
	<circle cx="800" cy="150" r="1" fill="rgb(0,0,0)" />
	<circle cx="800" cy="50" r="1" fill="rgb(0,0,0)" />
	<circle cx="825" cy="1050" r="1" fill="rgb(0,0,0)" />
	<circle cx="825" cy="1025" r="1" fill="rgb(0,0,0)" />
	<circle cx="825" cy="900" r="1" fill="rgb(0,0,0)" />
	<circle cx="825" cy="875" r="1" fill="rgb(0,0,0)" />
	<circle cx="825" cy="800" r="1" fill="rgb(0,0,0)" />
	<circle cx="825" cy="725" r="1" fill="rgb(0,0,0)" />
	<circle cx="825" cy="700" r="1" fill="rgb(0,0,0)" />
	<circle cx="825" cy="675" r="1" fill="rgb(0,0,0)" />
	<circle cx="825" cy="650" r="1" fill="rgb(0,0,0)" />
	<circle cx="825" cy="625" r="1" fill="rgb(0,0,0)" />
	<circle cx="825" cy="600" r="1" fill="rgb(0,0,0)" />
	<circle cx="825" cy="575" r="1" fill="rgb(0,0,0)" />
	<circle cx="825" cy="550" r="1" fill="rgb(0,0,0)" />
	<circle cx="825" cy="525" r="1" fill="rgb(0,0,0)" />
	<circle cx="825" cy="500" r="1" fill="rgb(0,0,0)" />
	<circle cx="825" cy="450" r="1" fill="rgb(0,0,0)" />
	<circle cx="825" cy="425" r="1" fill="rgb(0,0,0)" />
	<circle cx="825" cy="350" r="1" fill="rgb(0,0,0)" />
	<circle cx="825" cy="325" r="1" fill="rgb(0,0,0)" />
	<circle cx="825" cy="300" r="1" fill="rgb(0,0,0)" />
	<circle cx="825" cy="275" r="1" fill="rgb(0,0,0)" />
	<circle cx="825" cy="250" r="1" fill="rgb(0,0,0)" />
	<circle cx="825" cy="225" r="1" fill="rgb(0,0,0)" />
	<circle cx="825" cy="175" r="1" fill="rgb(0,0,0)" />
	<circle cx="825" cy="125" r="1" fill="rgb(0,0,0)" />
	<circle cx="825" cy="50" r="1" fill="rgb(0,0,0)" />
	<circle cx="850" cy="1050" r="1" fill="rgb(0,0,0)" />
	<circle cx="850" cy="1025" r="1" fill="rgb(0,0,0)" />
	<circle cx="850" cy="900" r="1" fill="rgb(0,0,0)" />
	<circle cx="850" cy="875" r="1" fill="rgb(0,0,0)" />
	<circle cx="850" cy="850" r="1" fill="rgb(0,0,0)" />
	<circle cx="850" cy="825" r="1" fill="rgb(0,0,0)" />
	<circle cx="850" cy="800" r="1" fill="rgb(0,0,0)" />
	<circle cx="850" cy="775" r="1" fill="rgb(0,0,0)" />
	<circle cx="850" cy="750" r="1" fill="rgb(0,0,0)" />
	<circle cx="850" cy="450" r="1" fill="rgb(0,0,0)" />
	<circle cx="850" cy="400" r="1" fill="rgb(0,0,0)" />
	<circle cx="850" cy="375" r="1" fill="rgb(0,0,0)" />
	<circle cx="850" cy="225" r="1" fill="rgb(0,0,0)" />
	<circle cx="850" cy="175" r="1" fill="rgb(0,0,0)" />
	<circle cx="850" cy="125" r="1" fill="rgb(0,0,0)" />
	<circle cx="850" cy="75" r="1" fill="rgb(0,0,0)" />
	<circle cx="875" cy="1050" r="1" fill="rgb(0,0,0)" />
	<circle cx="875" cy="1025" r="1" fill="rgb(0,0,0)" />
	<circle cx="875" cy="975" r="1" fill="rgb(0,0,0)" />
	<circle cx="875" cy="950" r="1" fill="rgb(0,0,0)" />
	<circle cx="875" cy="925" r="1" fill="rgb(0,0,0)" />
	<circle cx="875" cy="750" r="1" fill="rgb(0,0,0)" />
	<circle cx="875" cy="650" r="1" fill="rgb(0,0,0)" />
	<circle cx="875" cy="625" r="1" fill="rgb(0,0,0)" />
	<circle cx="875" cy="600" r="1" fill="rgb(0,0,0)" />
	<circle cx="875" cy="575" r="1" fill="rgb(0,0,0)" />
	<circle cx="875" cy="550" r="1" fill="rgb(0,0,0)" />
	<circle cx="875" cy="525" r="1" fill="rgb(0,0,0)" />
	<circle cx="875" cy="500" r="1" fill="rgb(0,0,0)" />
	<circle cx="875" cy="475" r="1" fill="rgb(0,0,0)" />
	<circle cx="875" cy="425" r="1" fill="rgb(0,0,0)" />
	<circle cx="875" cy="375" r="1" fill="rgb(0,0,0)" />
	<circle cx="875" cy="225" r="1" fill="rgb(0,0,0)" />
	<circle cx="875" cy="175" r="1" fill="rgb(0,0,0)" />
	<circle cx="875" cy="125" r="1" fill="rgb(0,0,0)" />
	<circle cx="875" cy="100" r="1" fill="rgb(0,0,0)" />
	<circle cx="875" cy="75" r="1" fill="rgb(0,0,0)" />
	<circle cx="900" cy="1050" r="1" fill="rgb(0,0,0)" />
	<circle cx="900" cy="1025" r="1" fill="rgb(0,0,0)" />
	<circle cx="900" cy="975" r="1" fill="rgb(0,0,0)" />
	<circle cx="900" cy="900" r="1" fill="rgb(0,0,0)" />
	<circle cx="900" cy="875" r="1" fill="rgb(0,0,0)" />
	<circle cx="900" cy="850" r="1" fill="rgb(0,0,0)" />
	<circle cx="900" cy="825" r="1" fill="rgb(0,0,0)" />
	<circle cx="900" cy="800" r="1" fill="rgb(0,0,0)" />
	<circle cx="900" cy="775" r="1" fill="rgb(0,0,0)" />
	<circle cx="900" cy="725" r="1" fill="rgb(0,0,0)" />
	<circle cx="900" cy="700" r="1" fill="rgb(0,0,0)" />
	<circle cx="900" cy="675" r="1" fill="rgb(0,0,0)" />
	<circle cx="900" cy="400" r="1" fill="rgb(0,0,0)" />
	<circle cx="900" cy="350" r="1" fill="rgb(0,0,0)" />
	<circle cx="900" cy="325" r="1" fill="rgb(0,0,0)" />
	<circle cx="900" cy="300" r="1" fill="rgb(0,0,0)" />
	<circle cx="900" cy="275" r="1" fill="rgb(0,0,0)" />
	<circle cx="900" cy="200" r="1" fill="rgb(0,0,0)" />
	<circle cx="900" cy="150" r="1" fill="rgb(0,0,0)" />
	<circle cx="900" cy="50" r="1" fill="rgb(0,0,0)" />
	<circle cx="925" cy="1050" r="1" fill="rgb(0,0,0)" />
	<circle cx="925" cy="1025" r="1" fill="rgb(0,0,0)" />
	<circle cx="925" cy="975" r="1" fill="rgb(0,0,0)" />
	<circle cx="925" cy="950" r="1" fill="rgb(0,0,0)" />
	<circle cx="925" cy="925" r="1" fill="rgb(0,0,0)" />
	<circle cx="925" cy="900" r="1" fill="rgb(0,0,0)" />
	<circle cx="925" cy="875" r="1" fill="rgb(0,0,0)" />
	<circle cx="925" cy="850" r="1" fill="rgb(0,0,0)" />
	<circle cx="925" cy="825" r="1" fill="rgb(0,0,0)" />
	<circle cx="925" cy="800" r="1" fill="rgb(0,0,0)" />
	<circle cx="925" cy="775" r="1" fill="rgb(0,0,0)" />
	<circle cx="925" cy="725" r="1" fill="rgb(0,0,0)" />
	<circle cx="925" cy="675" r="1" fill="rgb(0,0,0)" />
	<circle cx="925" cy="400" r="1" fill="rgb(0,0,0)" />
	<circle cx="925" cy="200" r="1" fill="rgb(0,0,0)" />
	<circle cx="925" cy="175" r="1" fill="rgb(0,0,0)" />
	<circle cx="925" cy="125" r="1" fill="rgb(0,0,0)" />
	<circle cx="925" cy="100" r="1" fill="rgb(0,0,0)" />
	<circle cx="925" cy="75" r="1" fill="rgb(0,0,0)" />
	<circle cx="950" cy="1000" r="1" fill="rgb(0,0,0)" />
	<circle cx="950" cy="775" r="1" fill="rgb(0,0,0)" />
	<circle cx="950" cy="725" r="1" fill="rgb(0,0,0)" />
	<circle cx="950" cy="675" r="1" fill="rgb(0,0,0)" />
	<circle cx="950" cy="525" r="1" fill="rgb(0,0,0)" />
	<circle cx="950" cy="500" r="1" fill="rgb(0,0,0)" />
	<circle cx="950" cy="475" r="1" fill="rgb(0,0,0)" />
	<circle cx="950" cy="400" r="1" fill="rgb(0,0,0)" />
	<circle cx="950" cy="150" r="1" fill="rgb(0,0,0)" />
	<circle cx="950" cy="100" r="1" fill="rgb(0,0,0)" />
	<circle cx="975" cy="1000" r="1" fill="rgb(0,0,0)" />
	<circle cx="975" cy="775" r="1" fill="rgb(0,0,0)" />
	<circle cx="975" cy="750" r="1" fill="rgb(0,0,0)" />
	<circle cx="975" cy="700" r="1" fill="rgb(0,0,0)" />
	<circle cx="975" cy="675" r="1" fill="rgb(0,0,0)" />
	<circle cx="975" cy="525" r="1" fill="rgb(0,0,0)" />
	<circle cx="975" cy="475" r="1" fill="rgb(0,0,0)" />
	<circle cx="975" cy="400" r="1" fill="rgb(0,0,0)" />
	<circle cx="975" cy="375" r="1" fill="rgb(0,0,0)" />
	<circle cx="975" cy="350" r="1" fill="rgb(0,0,0)" />
	<circle cx="975" cy="325" r="1" fill="rgb(0,0,0)" />
	<circle cx="975" cy="300" r="1" fill="rgb(0,0,0)" />
	<circle cx="975" cy="275" r="1" fill="rgb(0,0,0)" />
	<circle cx="975" cy="150" r="1" fill="rgb(0,0,0)" />
	<circle cx="975" cy="100" r="1" fill="rgb(0,0,0)" />
	<circle cx="1000" cy="1000" r="1" fill="rgb(0,0,0)" />
	<circle cx="1000" cy="975" r="1" fill="rgb(0,0,0)" />
	<circle cx="1000" cy="950" r="1" fill="rgb(0,0,0)" />
	<circle cx="1000" cy="925" r="1" fill="rgb(0,0,0)" />
	<circle cx="1000" cy="900" r="1" fill="rgb(0,0,0)" />
	<circle cx="1000" cy="875" r="1" fill="rgb(0,0,0)" />
	<circle cx="1000" cy="775" r="1" fill="rgb(0,0,0)" />
	<circle cx="1000" cy="750" r="1" fill="rgb(0,0,0)" />
	<circle cx="1000" cy="700" r="1" fill="rgb(0,0,0)" />
	<circle cx="1000" cy="675" r="1" fill="rgb(0,0,0)" />
	<circle cx="1000" cy="525" r="1" fill="rgb(0,0,0)" />
	<circle cx="1000" cy="500" r="1" fill="rgb(0,0,0)" />
	<circle cx="1000" cy="475" r="1" fill="rgb(0,0,0)" />
	<circle cx="1000" cy="400" r="1" fill="rgb(0,0,0)" />
	<circle cx="1000" cy="300" r="1" fill="rgb(0,0,0)" />
	<circle cx="1000" cy="250" r="1" fill="rgb(0,0,0)" />
	<circle cx="1000" cy="225" r="1" fill="rgb(0,0,0)" />
	<circle cx="1000" cy="200" r="1" fill="rgb(0,0,0)" />
	<circle cx="1000" cy="150" r="1" fill="rgb(0,0,0)" />
	<circle cx="1000" cy="75" r="1" fill="rgb(0,0,0)" />
	<circle cx="1000" cy="50" r="1" fill="rgb(0,0,0)" />
	<circle cx="1025" cy="1000" r="1" fill="rgb(0,0,0)" />
	<circle cx="1025" cy="925" r="1" fill="rgb(0,0,0)" />
	<circle cx="1025" cy="775" r="1" fill="rgb(0,0,0)" />
	<circle cx="1025" cy="750" r="1" fill="rgb(0,0,0)" />
	<circle cx="1025" cy="700" r="1" fill="rgb(0,0,0)" />
	<circle cx="1025" cy="650" r="1" fill="rgb(0,0,0)" />
	<circle cx="1025" cy="625" r="1" fill="rgb(0,0,0)" />
	<circle cx="1025" cy="550" r="1" fill="rgb(0,0,0)" />
	<circle cx="1025" cy="400" r="1" fill="rgb(0,0,0)" />
	<circle cx="1025" cy="375" r="1" fill="rgb(0,0,0)" />
	<circle cx="1025" cy="350" r="1" fill="rgb(0,0,0)" />
	<circle cx="1025" cy="325" r="1" fill="rgb(0,0,0)" />
	<circle cx="1025" cy="300" r="1" fill="rgb(0,0,0)" />
	<circle cx="1025" cy="250" r="1" fill="rgb(0,0,0)" />
	<circle cx="1025" cy="200" r="1" fill="rgb(0,0,0)" />
	<circle cx="1025" cy="150" r="1" fill="rgb(0,0,0)" />
	<circle cx="1025" cy="100" r="1" fill="rgb(0,0,0)" />
	<circle cx="1025" cy="75" r="1" fill="rgb(0,0,0)" />
	<circle cx="1025" cy="50" r="1" fill="rgb(0,0,0)" />
	<circle cx="1050" cy="1000" r="1" fill="rgb(0,0,0)" />
	<circle cx="1050" cy="975" r="1" fill="rgb(0,0,0)" />
	<circle cx="1050" cy="950" r="1" fill="rgb(0,0,0)" />
	<circle cx="1050" cy="925" r="1" fill="rgb(0,0,0)" />
	<circle cx="1050" cy="775" r="1" fill="rgb(0,0,0)" />
	<circle cx="1050" cy="750" r="1" fill="rgb(0,0,0)" />
	<circle cx="1050" cy="700" r="1" fill="rgb(0,0,0)" />
	<circle cx="1050" cy="650" r="1" fill="rgb(0,0,0)" />
	<circle cx="1050" cy="625" r="1" fill="rgb(0,0,0)" />
	<circle cx="1050" cy="525" r="1" fill="rgb(0,0,0)" />
	<circle cx="1050" cy="500" r="1" fill="rgb(0,0,0)" />
	<circle cx="1050" cy="475" r="1" fill="rgb(0,0,0)" />
	<circle cx="1050" cy="450" r="1" fill="rgb(0,0,0)" />
	<circle cx="1050" cy="425" r="1" fill="rgb(0,0,0)" />
	<circle cx="1050" cy="250" r="1" fill="rgb(0,0,0)" />
	<circle cx="1050" cy="225" r="1" fill="rgb(0,0,0)" />
	<circle cx="1050" cy="200" r="1" fill="rgb(0,0,0)" />
	<circle cx="1050" cy="175" r="1" fill="rgb(0,0,0)" />
	<circle cx="1050" cy="125" r="1" fill="rgb(0,0,0)" />
</svg>
