<?xml version="1.0" standalone="no" ?>
<!DOCTYPE svg PUBLIC "-//W3C//DTD SVG 1.1//EN" "http://www.w3.org/Graphics/SVG/1.1/DTD/svg11.dtd">
<svg width="1100px" height="1100px" xmlns="http://www.w3.org/2000/svg" version="1.1" >
	<circle cx="50" cy="500" r="1" fill="rgb(0,0,0)" />
	<circle cx="50" cy="450" r="1" fill="rgb(0,0,0)" />
	<circle cx="100" cy="700" r="1" fill="rgb(0,0,0)" />
	<circle cx="100" cy="650" r="1" fill="rgb(0,0,0)" />
	<circle cx="100" cy="600" r="1" fill="rgb(0,0,0)" />
	<circle cx="100" cy="550" r="1" fill="rgb(0,0,0)" />
	<circle cx="100" cy="500" r="1" fill="rgb(0,0,0)" />
	<circle cx="150" cy="950" r="1" fill="rgb(0,0,0)" />
	<circle cx="150" cy="900" r="1" fill="rgb(0,0,0)" />
	<circle cx="150" cy="850" r="1" fill="rgb(0,0,0)" />
	<circle cx="150" cy="800" r="1" fill="rgb(0,0,0)" />
	<circle cx="150" cy="750" r="1" fill="rgb(0,0,0)" />
	<circle cx="150" cy="700" r="1" fill="rgb(0,0,0)" />
	<circle cx="150" cy="500" r="1" fill="rgb(0,0,0)" />
	<circle cx="150" cy="100" r="1" fill="rgb(0,0,0)" />
	<circle cx="150" cy="50" r="1" fill="rgb(0,0,0)" />
	<circle cx="200" cy="950" r="1" fill="rgb(0,0,0)" />
	<circle cx="200" cy="900" r="1" fill="rgb(0,0,0)" />
	<circle cx="200" cy="800" r="1" fill="rgb(0,0,0)" />
	<circle cx="200" cy="750" r="1" fill="rgb(0,0,0)" />
	<circle cx="200" cy="700" r="1" fill="rgb(0,0,0)" />
	<circle cx="200" cy="500" r="1" fill="rgb(0,0,0)" />
	<circle cx="200" cy="450" r="1" fill="rgb(0,0,0)" />
	<circle cx="200" cy="350" r="1" fill="rgb(0,0,0)" />
	<circle cx="200" cy="300" r="1" fill="rgb(0,0,0)" />
	<circle cx="200" cy="250" r="1" fill="rgb(0,0,0)" />
	<circle cx="200" cy="200" r="1" fill="rgb(0,0,0)" />
	<circle cx="200" cy="150" r="1" fill="rgb(0,0,0)" />
	<circle cx="250" cy="1000" r="1" fill="rgb(0,0,0)" />
	<circle cx="250" cy="850" r="1" fill="rgb(0,0,0)" />
	<circle cx="250" cy="500" r="1" fill="rgb(0,0,0)" />
	<circle cx="250" cy="450" r="1" fill="rgb(0,0,0)" />
	<circle cx="250" cy="350" r="1" fill="rgb(0,0,0)" />
	<circle cx="250" cy="300" r="1" fill="rgb(0,0,0)" />
	<circle cx="250" cy="250" r="1" fill="rgb(0,0,0)" />
	<circle cx="250" cy="200" r="1" fill="rgb(0,0,0)" />
	<circle cx="250" cy="150" r="1" fill="rgb(0,0,0)" />
	<circle cx="300" cy="1000" r="1" fill="rgb(0,0,0)" />
	<circle cx="300" cy="850" r="1" fill="rgb(0,0,0)" />
	<circle cx="300" cy="500" r="1" fill="rgb(0,0,0)" />
	<circle cx="300" cy="450" r="1" fill="rgb(0,0,0)" />
	<circle cx="300" cy="350" r="1" fill="rgb(0,0,0)" />
	<circle cx="300" cy="100" r="1" fill="rgb(0,0,0)" />
	<circle cx="300" cy="50" r="1" fill="rgb(0,0,0)" />
	<circle cx="350" cy="1050" r="1" fill="rgb(0,0,0)" />
	<circle cx="350" cy="850" r="1" fill="rgb(0,0,0)" />
	<circle cx="350" cy="550" r="1" fill="rgb(0,0,0)" />
	<circle cx="350" cy="450" r="1" fill="rgb(0,0,0)" />
	<circle cx="350" cy="350" r="1" fill="rgb(0,0,0)" />
	<circle cx="400" cy="1050" r="1" fill="rgb(0,0,0)" />
	<circle cx="400" cy="550" r="1" fill="rgb(0,0,0)" />
	<circle cx="400" cy="450" r="1" fill="rgb(0,0,0)" />
	<circle cx="400" cy="350" r="1" fill="rgb(0,0,0)" />
	<circle cx="450" cy="1050" r="1" fill="rgb(0,0,0)" />
	<circle cx="450" cy="550" r="1" fill="rgb(0,0,0)" />
	<circle cx="450" cy="450" r="1" fill="rgb(0,0,0)" />
	<circle cx="450" cy="350" r="1" fill="rgb(0,0,0)" />
	<circle cx="500" cy="1050" r="1" fill="rgb(0,0,0)" />
	<circle cx="500" cy="650" r="1" fill="rgb(0,0,0)" />
	<circle cx="500" cy="600" r="1" fill="rgb(0,0,0)" />
	<circle cx="500" cy="550" r="1" fill="rgb(0,0,0)" />
	<circle cx="500" cy="500" r="1" fill="rgb(0,0,0)" />
	<circle cx="500" cy="450" r="1" fill="rgb(0,0,0)" />
	<circle cx="500" cy="350" r="1" fill="rgb(0,0,0)" />
	<circle cx="550" cy="1050" r="1" fill="rgb(0,0,0)" />
	<circle cx="550" cy="1000" r="1" fill="rgb(0,0,0)" />
	<circle cx="600" cy="1050" r="1" fill="rgb(0,0,0)" />
	<circle cx="600" cy="1000" r="1" fill="rgb(0,0,0)" />
	<circle cx="650" cy="1050" r="1" fill="rgb(0,0,0)" />
	<circle cx="650" cy="1000" r="1" fill="rgb(0,0,0)" />
	<circle cx="650" cy="250" r="1" fill="rgb(0,0,0)" />
	<circle cx="650" cy="200" r="1" fill="rgb(0,0,0)" />
	<circle cx="650" cy="150" r="1" fill="rgb(0,0,0)" />
	<circle cx="650" cy="100" r="1" fill="rgb(0,0,0)" />
	<circle cx="650" cy="50" r="1" fill="rgb(0,0,0)" />
	<circle cx="700" cy="950" r="1" fill="rgb(0,0,0)" />
	<circle cx="700" cy="900" r="1" fill="rgb(0,0,0)" />
	<circle cx="700" cy="250" r="1" fill="rgb(0,0,0)" />
	<circle cx="750" cy="950" r="1" fill="rgb(0,0,0)" />
	<circle cx="750" cy="900" r="1" fill="rgb(0,0,0)" />
	<circle cx="750" cy="550" r="1" fill="rgb(0,0,0)" />
	<circle cx="750" cy="250" r="1" fill="rgb(0,0,0)" />
	<circle cx="800" cy="950" r="1" fill="rgb(0,0,0)" />
	<circle cx="800" cy="900" r="1" fill="rgb(0,0,0)" />
	<circle cx="800" cy="550" r="1" fill="rgb(0,0,0)" />
	<circle cx="800" cy="250" r="1" fill="rgb(0,0,0)" />
	<circle cx="850" cy="950" r="1" fill="rgb(0,0,0)" />
	<circle cx="850" cy="900" r="1" fill="rgb(0,0,0)" />
	<circle cx="850" cy="550" r="1" fill="rgb(0,0,0)" />
	<circle cx="850" cy="300" r="1" fill="rgb(0,0,0)" />
	<circle cx="900" cy="950" r="1" fill="rgb(0,0,0)" />
	<circle cx="900" cy="900" r="1" fill="rgb(0,0,0)" />
	<circle cx="900" cy="550" r="1" fill="rgb(0,0,0)" />
	<circle cx="900" cy="300" r="1" fill="rgb(0,0,0)" />
	<circle cx="950" cy="950" r="1" fill="rgb(0,0,0)" />
	<circle cx="950" cy="900" r="1" fill="rgb(0,0,0)" />
	<circle cx="950" cy="300" r="1" fill="rgb(0,0,0)" />
	<circle cx="1000" cy="950" r="1" fill="rgb(0,0,0)" />
	<circle cx="1000" cy="900" r="1" fill="rgb(0,0,0)" />
	<circle cx="1000" cy="300" r="1" fill="rgb(0,0,0)" />
	<circle cx="1050" cy="750" r="1" fill="rgb(0,0,0)" />
	<circle cx="1050" cy="700" r="1" fill="rgb(0,0,0)" />
	<circle cx="1050" cy="650" r="1" fill="rgb(0,0,0)" />
	<circle cx="1050" cy="550" r="1" fill="rgb(0,0,0)" />
	<circle cx="1050" cy="450" r="1" fill="rgb(0,0,0)" />
	<circle cx="1050" cy="400" r="1" fill="rgb(0,0,0)" />
	<circle cx="1050" cy="350" r="1" fill="rgb(0,0,0)" />
</svg>
